STARTFONT 2.3
FONT -FontForge-Lobster-Book-R-Normal--18-180-72-72-P-105-ISO10646-1
SIZE 18 72 72  4
FONTBOUNDINGBOX 37 28 -9 -9
COMMENT "Generated by fontforge, http://fontforge.sourceforge.net"
COMMENT "Copyright 2010 The Lobster Project Authors (https://github.com/impallari/The-Lobster-Font), with Reserved Font Name "Lobster"."
STARTPROPERTIES 41
FOUNDRY "FontForge"
FAMILY_NAME "Lobster"
WEIGHT_NAME "Book"
SLANT "R"
SETWIDTH_NAME "Normal"
ADD_STYLE_NAME ""
PIXEL_SIZE 18
POINT_SIZE 180
RESOLUTION_X 72
RESOLUTION_Y 72
SPACING "P"
AVERAGE_WIDTH 105
CHARSET_REGISTRY "ISO10646"
CHARSET_ENCODING "1"
FONTNAME_REGISTRY ""
CHARSET_COLLECTIONS "ISO8859-2 ISO8859-5 ISO8859-9 ISO8859-4 ISO10646-1"
BITS_PER_PIXEL 4
FONT_NAME "Lobster-Regular"
FACE_NAME "Lobster Regular"
COPYRIGHT "Copyright 2010 The Lobster Project Authors (https://github.com/impallari/The-Lobster-Font), with Reserved Font Name "Lobster"."
FONT_VERSION "2.100"
FONT_ASCENT 14
FONT_DESCENT 4
UNDERLINE_POSITION -2
UNDERLINE_THICKNESS 1
X_HEIGHT 9
CAP_HEIGHT 12
DEFAULT_CHAR 1
RAW_ASCENT 800
RAW_DESCENT 200
NORM_SPACE 4
RELATIVE_WEIGHT 40
RELATIVE_SETWIDTH 50
SUPERSCRIPT_X 0
SUPERSCRIPT_Y 6
SUPERSCRIPT_SIZE 10
SUBSCRIPT_X 0
SUBSCRIPT_Y 1
SUBSCRIPT_SIZE 10
AVG_LOWERCASE_WIDTH 84
AVG_UPPERCASE_WIDTH 111
ENDPROPERTIES
CHARS 1148
STARTCHAR NULL.dup1
ENCODING 0
SWIDTH 600 0
DWIDTH 11 0
BBX 1 1 0 0
BITMAP
00
ENDCHAR
STARTCHAR nonmarkingreturn
ENCODING 13
SWIDTH 600 0
DWIDTH 11 0
BBX 1 1 0 0
BITMAP
00
ENDCHAR
STARTCHAR space
ENCODING 32
SWIDTH 217 0
DWIDTH 4 0
BBX 1 1 0 0
BITMAP
00
ENDCHAR
STARTCHAR exclam
ENCODING 33
SWIDTH 257 0
DWIDTH 5 0
BBX 6 14 0 0
BITMAP
000002
000DFB
001FF6
004FF2
006FD0
008F90
00AF40
00DF10
00FB00
02F700
000000
1AB100
6FF600
2DD200
ENDCHAR
STARTCHAR quotedbl
ENCODING 34
SWIDTH 353 0
DWIDTH 6 0
BBX 7 4 1 9
BITMAP
06F78F40
0BE1DB00
1F73F400
6E19C000
ENDCHAR
STARTCHAR numbersign
ENCODING 35
SWIDTH 659 0
DWIDTH 12 0
BBX 10 13 1 0
BITMAP
0003600530
0008C00E60
000B902F30
000E604F10
0FFFFFFFF8
017E11C910
00AA00F500
BEFFEEFEB0
23F528D210
04F10AA000
07D00C8000
09A00F5000
0110010000
ENDCHAR
STARTCHAR dollar
ENCODING 36
SWIDTH 548 0
DWIDTH 10 0
BBX 10 18 0 -2
BITMAP
0000003A00
0000006800
0000008600
0003ACEC81
003ED1D3F7
007FE698E5
005FFE4000
000BFF8000
0001CFF500
00005FFE10
1BE598FF80
8FC4C1DFA0
BF30D0CF90
9F33A1EF40
2FDABDF800
03BFEC5000
000D100000
002B000000
ENDCHAR
STARTCHAR percent
ENCODING 37
SWIDTH 796 0
DWIDTH 14 0
BBX 15 13 0 0
BITMAP
002BEB1000B80000
01DB3F6005E10000
08F30F900D600000
0DD02F907C000000
0FA04F62E4000000
1F908F2AA0000000
0EA2E93E208EE600
06FF90C809F4AE00
001105D13F808F20
00001D507F30AF00
00008C009F10EB00
0002E3007F49E300
000A90001BEC3000
ENDCHAR
STARTCHAR ampersand
ENCODING 38
SWIDTH 682 0
DWIDTH 12 0
BBX 12 13 0 0
BITMAP
00007DFC4000
000AFA2AF200
004FE108F400
006FC00CB000
003FF2000000
000BFD300027
02CFC228BCFC
1DFE10CFFFD3
7FF800C58600
AFF60001D200
AFFB103CA000
4FFFEDFB1000
05CEEC600000
ENDCHAR
STARTCHAR quotesingle
ENCODING 39
SWIDTH 196 0
DWIDTH 4 0
BBX 4 4 1 9
BITMAP
06F7
0BE1
1F70
6D10
ENDCHAR
STARTCHAR parenleft
ENCODING 40
SWIDTH 437 0
DWIDTH 8 0
BBX 8 19 2 -5
BITMAP
00000035
000009C2
0000AC10
0009E200
005F8000
00DE1000
06FA0000
0BF50000
0FF20000
2FE00000
4FD00000
4FC00000
3FC00000
1FD00000
0BF00000
05F30000
00C80000
002D0000
00010000
ENDCHAR
STARTCHAR parenright
ENCODING 41
SWIDTH 413 0
DWIDTH 7 0
BBX 8 19 -2 -5
BITMAP
00006200
00006C00
00001F60
00000BD0
000009F3
000007F7
000006F8
000007F9
000008F8
00000AF7
00000DF3
00002FE0
00007F70
0000DE10
0006F500
002E9000
02D80000
1C500000
01000000
ENDCHAR
STARTCHAR asterisk
ENCODING 42
SWIDTH 515 0
DWIDTH 9 0
BBX 7 7 1 6
BITMAP
011D7000
3E5F7D80
2CFFFC60
15CFD710
6FBE9F80
042F6530
003E4000
ENDCHAR
STARTCHAR plus
ENCODING 43
SWIDTH 442 0
DWIDTH 8 0
BBX 8 7 0 2
BITMAP
0006F100
0009D000
122CB220
8FFFFFF1
347F6440
007E0000
00560000
ENDCHAR
STARTCHAR comma
ENCODING 44
SWIDTH 216 0
DWIDTH 4 0
BBX 4 5 0 -2
BITMAP
3EB0
8FF1
2DC0
0A40
4600
ENDCHAR
STARTCHAR hyphen
ENCODING 45
SWIDTH 290 0
DWIDTH 5 0
BBX 5 2 0 3
BITMAP
7EEE20
122200
ENDCHAR
STARTCHAR period
ENCODING 46
SWIDTH 263 0
DWIDTH 5 0
BBX 4 3 0 0
BITMAP
1BA1
6FF6
2DD2
ENDCHAR
STARTCHAR slash
ENCODING 47
SWIDTH 311 0
DWIDTH 6 0
BBX 6 17 0 -4
BITMAP
0001F3
0005E0
0008B0
000C80
000F50
003F10
007D00
00A900
00D600
02F300
05E000
08B000
0C8000
0F4000
4F1000
7D0000
A90000
ENDCHAR
STARTCHAR zero
ENCODING 48
SWIDTH 546 0
DWIDTH 10 0
BBX 10 13 0 0
BITMAP
00018DFD60
001DF92DF4
00CFC009FB
06FF4007FD
0DFD0008FE
2FF90009FD
6FF6000BFB
8FF3000EF7
9FF2004FF2
8FF1009FB0
6FF202FF30
1EF92CF600
03BEEB4000
ENDCHAR
STARTCHAR one
ENCODING 49
SWIDTH 317 0
DWIDTH 6 0
BBX 6 14 0 0
BITMAP
000001
0014AA
0CFFF6
026FF3
008FF0
00CFC0
00FF90
03FF50
06FF20
0AFE00
0DFB00
1FF800
5FF400
8FF100
ENDCHAR
STARTCHAR two
ENCODING 50
SWIDTH 492 0
DWIDTH 9 0
BBX 10 13 -1 0
BITMAP
0004BEEB30
004F82BFE1
00BF104FF6
00BF504FF7
003B608FF3
000002EF70
00001CF800
0001CE5000
002DC20000
01DB000000
0BF88634A0
2FFFFFFFE0
2A669DFC30
ENDCHAR
STARTCHAR three
ENCODING 51
SWIDTH 514 0
DWIDTH 9 0
BBX 9 13 0 0
BITMAP
0019DFE910
00CF52BFB0
01FE006FE0
00AC30BF90
000019FB10
0001CFD200
00001CFE20
2BE505FF90
AFA201FFB0
DF3002FF80
CF2006FF20
7FA25EF500
07CEEA3000
ENDCHAR
STARTCHAR four
ENCODING 52
SWIDTH 476 0
DWIDTH 9 0
BBX 9 13 0 0
BITMAP
0002EC1000
0002FF5000
0004FF2000
000AF84B00
003FB09B00
00CC11E700
09B105F530
6FDFDEFE80
DCBDFFFE30
00007FB100
0000BF6000
0002FF3000
0007FE0000
ENDCHAR
STARTCHAR five
ENCODING 53
SWIDTH 517 0
DWIDTH 9 0
BBX 9 13 0 0
BITMAP
0012101260
005FFFFFE0
008FCEFF70
00CB002100
01F7000000
04FBDEB400
06833CFF20
000003FF80
1AE800FF90
8FB101FF80
AF5006FF20
7FB36EF700
08DFEA4000
ENDCHAR
STARTCHAR six
ENCODING 54
SWIDTH 500 0
DWIDTH 9 0
BBX 10 13 0 0
BITMAP
00018DFD50
001DF82BF1
00CF900AF1
07FE100640
0EF9000000
4FF6AED700
8FFA34EF50
9FF300AF90
BFF0009F90
AFE000CF60
7FF102FE10
2EF82CE400
04CFEA2000
ENDCHAR
STARTCHAR seven
ENCODING 55
SWIDTH 464 0
DWIDTH 8 0
BBX 9 13 1 0
BITMAP
3CEC511530
DFFFFFFE10
B5367AF500
00002EA000
0001CE1000
000BF50000
009FB00000
04FF300000
0DFA000000
5FF5000000
9FF2000000
9FF2000000
2DE4000000
ENDCHAR
STARTCHAR eight
ENCODING 56
SWIDTH 499 0
DWIDTH 9 0
BBX 9 13 0 0
BITMAP
0006CFE910
009FC34FB0
02FF500EF0
03FF703FB0
00DFE3CD20
004FFFB100
005DFFF400
1BF75FFE20
AFA007FF90
EF6001FFA0
EF7002FF60
7FD33BFA00
05CEEC6000
ENDCHAR
STARTCHAR nine
ENCODING 57
SWIDTH 489 0
DWIDTH 9 0
BBX 9 13 0 0
BITMAP
0029DFD500
03ED34FF30
1EF300CF90
6FD000BFC0
7FC000EFD0
4FE218FFC0
08FFE6FFA0
000104FF70
000008FF20
4D300EFA00
BE007FE200
9F47FF4000
1AEEA20000
ENDCHAR
STARTCHAR colon
ENCODING 58
SWIDTH 267 0
DWIDTH 5 0
BBX 5 7 0 1
BITMAP
01CD20
05FF70
01AB10
000000
09B200
3FF800
1CE300
ENDCHAR
STARTCHAR semicolon
ENCODING 59
SWIDTH 276 0
DWIDTH 5 0
BBX 5 10 0 -3
BITMAP
00AB20
04FF70
01CE30
000000
047000
1FF600
1EF500
04E100
094000
030000
ENDCHAR
STARTCHAR less
ENCODING 60
SWIDTH 358 0
DWIDTH 6 0
BBX 7 7 0 1
BITMAP
00002A40
002AFB20
29FC4000
BFA00000
18ED6000
002AF600
00003100
ENDCHAR
STARTCHAR equal
ENCODING 61
SWIDTH 515 0
DWIDTH 9 0
BBX 9 6 0 2
BITMAP
05FFFFFF50
08FFFFFF20
0000000000
0000000000
1FFFFFF800
5FFFFFF500
ENDCHAR
STARTCHAR greater
ENCODING 62
SWIDTH 362 0
DWIDTH 7 0
BBX 7 7 0 1
BITMAP
0B700000
09FD5000
0029FB20
0029FC20
18ED5000
CD500000
40000000
ENDCHAR
STARTCHAR question
ENCODING 63
SWIDTH 441 0
DWIDTH 8 0
BBX 8 13 0 0
BITMAP
007DFD90
09E43EF8
1FC00BFB
0EF40DF7
02407FA0
0006F700
004F5000
00C80000
00E20000
00000000
08C30000
2FFA0000
0BE40000
ENDCHAR
STARTCHAR at
ENCODING 64
SWIDTH 688 0
DWIDTH 12 0
BBX 13 13 -1 -2
BITMAP
000006BDEC8100
0002CF9425DC10
002ED4BDB93F60
00CE3CD4F80EA0
06F67F54F50EA0
0CE0CE07F12F70
0FA0FB0AD07F20
2F80FC2EC3E800
2F80AFB6FE8000
0EC00100320000
07F81016E50000
005DFFFD700000
00000100000000
ENDCHAR
STARTCHAR A
ENCODING 65
SWIDTH 668 0
DWIDTH 12 0
BBX 13 15 0 -2
BITMAP
0000000029EE40
00000003CAFF30
0000003D3AFE00
000002E60DFB00
00000CC01FF800
07CEEFC66FF400
9F84FD36DFF100
BF39F600BFD000
022FE100EF9000
008FA003FF6000
00EF5006FF3000
03FF100AFE0000
06FD000DFB0000
07FB0000000000
01CB0000000000
ENDCHAR
STARTCHAR B
ENCODING 66
SWIDTH 641 0
DWIDTH 12 0
BBX 11 13 0 0
BITMAP
0005ADFEB400
02CE7344CF40
1DD1CFB04F80
8F41FF707F50
BE04FF36F900
7E08FFFFF910
010BFC25FF90
000EF900AFD0
003FF6009FD0
006FF200CFA0
00AFE204FF50
00DFBBEFFB00
01FF76EE9100
ENDCHAR
STARTCHAR C
ENCODING 67
SWIDTH 497 0
DWIDTH 9 0
BBX 10 13 0 0
BITMAP
00018DFD80
001DFD43E6
00BFF300E9
05FF9005F6
0CFF300020
2FFD000000
6FFA000000
8FF7000000
9FF6000000
9FF5000000
7FF8000042
2EFE523970
03BEFD9300
ENDCHAR
STARTCHAR D
ENCODING 68
SWIDTH 663 0
DWIDTH 12 0
BBX 12 13 0 0
BITMAP
0005ADFEB500
02CD7324DF70
1DC1BEA04FF2
9F32FF700FF7
DD06FF300DF9
BC09FF000EF8
150DFC001FF7
001FF8004FF4
004FF5008FE0
008FF200DF80
00BFD006FE10
00EFC25EF500
03FFACFC4000
ENDCHAR
STARTCHAR E
ENCODING 69
SWIDTH 459 0
DWIDTH 8 0
BBX 9 13 0 0
BITMAP
00018DEB20
000CF82BB0
006FD00AC0
009FB01C40
007FE10000
001DFB1000
04EFB10000
2EFD100000
9FF7000000
CFF4000040
CFF9002A30
7FFFEEE500
07DED92000
ENDCHAR
STARTCHAR F
ENCODING 70
SWIDTH 459 0
DWIDTH 8 0
BBX 11 13 0 0
BITMAP
0039DEFFFFB0
08E6EFDBDC20
5F32FF700000
BE05FF400000
CD08FF110000
5C0CFFFF6000
000FFA441000
003FF6000000
006FF2000000
00AFE0000000
00DFB0000000
01FF70000000
05FF40000000
ENDCHAR
STARTCHAR G
ENCODING 71
SWIDTH 578 0
DWIDTH 10 0
BBX 11 17 0 -4
BITMAP
00028CEEB300
006EFB42BE10
05FFA0009F30
1EFE1001DB00
6FF800000000
9FF400026500
9FF20009F900
7FF3002EF600
2EFA12CFF200
04DFFBAFE000
000100BFA000
000100EF7000
01CFD4FF2000
0AE228FC0000
0AD12EF30000
02CFFD400000
000110000000
ENDCHAR
STARTCHAR H
ENCODING 72
SWIDTH 665 0
DWIDTH 12 0
BBX 13 13 0 0
BITMAP
0005ADF203FF60
02C5BFE007FF20
1E70EFA00AFE00
9F13FF700EFB00
BE06FF413FF700
4C09FFFFFFF400
000CFC44AFF100
001FF800CFD000
004FF500FF9000
007FF203FF6000
00AFE006FF3000
00DFB00AFE0000
01FF700DFB0000
ENDCHAR
STARTCHAR I
ENCODING 73
SWIDTH 375 0
DWIDTH 7 0
BBX 8 13 0 0
BITMAP
0005ADF1
02C8DFC0
2E81FF90
AF14FF60
DD07FF20
8C0AFE00
010DFB00
002FF700
005FF400
008FF100
00CFC000
00FF9000
03FF6000
ENDCHAR
STARTCHAR J
ENCODING 74
SWIDTH 536 0
DWIDTH 10 0
BBX 11 17 0 -4
BITMAP
00000039DF40
00001ADBFF10
0000BD1BFD00
0006F50EF900
0009F23FF600
0005F17FF200
000011AFE000
000000EFB000
000003FF7000
000006FF4000
00000AFF1000
00100DFC0000
2CFE4FF80000
9E227FF30000
9E21CF900000
2CFFE8000000
001100000000
ENDCHAR
STARTCHAR K
ENCODING 75
SWIDTH 601 0
DWIDTH 11 0
BBX 12 13 0 0
BITMAP
0006BEE106F7
03D9DFC04F70
3F80FF82E800
BE03FF5D8000
CC07FFC80000
380AFFEDB300
000DF90BFB00
001FF60AFC00
005FF30CF900
008FF01FF600
00BFC05FF200
00EF908FF000
03FF605EF300
ENDCHAR
STARTCHAR L
ENCODING 76
SWIDTH 379 0
DWIDTH 7 0
BBX 12 17 0 -4
BITMAP
0005AEF10000
02CADFC00000
2E90FF900000
AF13FF500000
DD07FF200000
7C0AFE000000
000DFA000000
002FF7000000
005FF3000000
009FF0000000
00CFC0000000
01FF80000000
04FFC5100000
0015CFE83000
000007FFFEDC
0000003DFFF9
000000018ED2
ENDCHAR
STARTCHAR M
ENCODING 77
SWIDTH 787 0
DWIDTH 14 0
BBX 14 13 1 0
BITMAP
0006BEF5005FF6
02C78FF400BFF4
1D90DFF303FFF2
8F24FFF309FFE0
BF09FFF21EFFC0
5E1EDFF17EEFA0
005F8FF1D9FF80
00BB7FF5F5FF60
02F58FEBA5FF30
07E08FFF48FF10
0D909FFC0AFE00
4F30AFF60CFC00
9C00AFE10EFA00
ENDCHAR
STARTCHAR N
ENCODING 78
SWIDTH 668 0
DWIDTH 12 0
BBX 13 13 0 0
BITMAP
0039DFD1000EC0
06E6CFF4002F90
4F70EFF8005F50
BF13FFFB009F20
DE06FEFF00CE00
9F0AF7FF30FA00
041DE1FF73F700
002FA0DFA6F300
005F709FEAF000
008F305FFEC000
00CE002FFF8000
00FB000DFF5000
03F70009FF1000
ENDCHAR
STARTCHAR O
ENCODING 79
SWIDTH 665 0
DWIDTH 12 0
BBX 12 13 0 0
BITMAP
00017BEFEA20
007EA5547FE1
0AE44EE30CF8
6F62EF6009FB
AF1BFD000AFC
7E3FF7000BFB
028FF2000EF8
00CFD0003FF4
00EFB0009FE1
01FF9002EF70
00EFB00AFC00
009FF8BFD100
0019EFD81000
ENDCHAR
STARTCHAR P
ENCODING 80
SWIDTH 573 0
DWIDTH 10 0
BBX 11 13 0 0
BITMAP
0005ADFD9200
02CC6225EE10
1DB0CEA08F80
9F22FF705FA0
DD06FF308F80
AC09FF00DF20
030DFB09F600
001FFCCC4000
004FF6100000
008FF1000000
00BFD0000000
00EF90000000
03FF60000000
ENDCHAR
STARTCHAR Q
ENCODING 81
SWIDTH 665 0
DWIDTH 12 0
BBX 12 15 0 -2
BITMAP
00017BEFEA20
008EA5547FE1
0AE44EE20CF7
6F62EF5009FB
AF1BFD000AFC
7E3FF7000BFB
028FF2000EF9
00CFD0003FF5
00EFB0009FE1
01FF9002EF80
00EFDAABFD10
009FE3DFE300
0019EEDFA000
0000000DFC80
00000004DE50
ENDCHAR
STARTCHAR R
ENCODING 82
SWIDTH 601 0
DWIDTH 11 0
BBX 11 13 0 0
BITMAP
0006BEFEA300
03DD6333DF30
3EA0DF906F70
BF13FF50AF40
DC06FF27F700
5A09FFFFD300
000DFB3DFB00
001FF70AFB00
005FF30CF900
008FF11FF600
00BFC05FF200
00EF908FF000
03FF605EF300
ENDCHAR
STARTCHAR S
ENCODING 83
SWIDTH 570 0
DWIDTH 10 0
BBX 10 13 0 0
BITMAP
00007DFE91
000BFC33EA
003FF500DE
003FF804F9
000DFE3010
0003EFE300
00005FFE20
017717FFB0
0CFC50CFF2
5FD0007FF3
5FB000AFE0
1DF749FF40
02AEFD9200
ENDCHAR
STARTCHAR T
ENCODING 84
SWIDTH 481 0
DWIDTH 9 0
BBX 13 13 0 0
BITMAP
0039DEFD941280
07E73BFFFFFFA0
4F500EFE9BDB20
AE002FFA000000
DC005FF6000000
BC009FF3000000
2700CFE0000000
0000FFB0000000
0003FF70000000
0006FF40000000
000AFF00000000
000DFC00000000
001FF800000000
ENDCHAR
STARTCHAR U
ENCODING 85
SWIDTH 716 0
DWIDTH 13 0
BBX 15 13 -1 0
BITMAP
00016BDF8000EF90
005E96FF4003FF60
05F708FF1006FF20
0DD00CFB0009FE00
1FA01FF7000DFB00
09C05FF3001FF800
00109FD0005FF400
0000DF90008FF100
0001FF5000CFC000
0002FF3002FF7000
0001FF500BFD1000
0000BFEADFE30000
000019DFD9200000
ENDCHAR
STARTCHAR V
ENCODING 86
SWIDTH 615 0
DWIDTH 11 0
BBX 13 13 0 0
BITMAP
0005ADF2001F20
02CBAFF2007C00
2EA08FF300C600
AF107FF302E100
DD007FF3079000
8C006FF30D3000
01006FF43D0000
00006FF4870000
00005FF4D10000
00005FF8A00000
00005FFE500000
00004FFE000000
00004FF8000000
ENDCHAR
STARTCHAR W
ENCODING 87
SWIDTH 962 0
DWIDTH 17 0
BBX 19 13 0 0
BITMAP
0005ADF2001FF6000D60
02CBAFF2007FF6003E10
2EA08FF300CFF6009900
AF107FF302FFF600E300
DD007FF307DFF704D000
8C006FF30D7FF7097000
01006FF43D3FF71E1000
00006FF4872FF75A0000
00005FF4D22FF7A50000
00005FF8B02FF9D00000
00005FFE501FFE800000
00004FFE001FFF200000
00004FF8000FFC000000
ENDCHAR
STARTCHAR X
ENCODING 88
SWIDTH 620 0
DWIDTH 11 0
BBX 12 13 0 0
BITMAP
0005ADF404E1
02CB9FF70C60
2EA04FFA6C00
AF101FFEE300
DD000CFF9000
8C0009FF5000
010006FF8000
000006FFB000
00001DFFE000
00008ABFF300
0002E17FF600
000B604FF900
004C001FFC00
ENDCHAR
STARTCHAR Y
ENCODING 89
SWIDTH 620 0
DWIDTH 11 0
BBX 13 13 0 0
BITMAP
0005ADF4000D50
02CB9FF8004D00
2EA03FFB00A600
AF100EFF12E100
DD000AFF488000
8C0006FF8D1000
010002FFF90000
000000DFF20000
000000FFD00000
000003FFA00000
000007FF700000
00000AFF300000
00000DFF000000
ENDCHAR
STARTCHAR Z
ENCODING 90
SWIDTH 542 0
DWIDTH 10 0
BBX 10 13 0 0
BITMAP
009EFFFFFA
05F811BFF2
03D504FF90
00000CFF20
00005FF900
0000CFE200
0005FF8000
000DFE1000
006FF80000
01EFE10000
07FF700BB0
1EFE212ED0
8FFFFFFD30
ENDCHAR
STARTCHAR bracketleft
ENCODING 91
SWIDTH 400 0
DWIDTH 7 0
BBX 9 17 -1 -4
BITMAP
00007FFF60
0000AF4100
0000EE0000
0002FB0000
0005F80000
0009F40000
000CF10000
000FD00000
004F900000
007F600000
00AF200000
00EE000000
02FB000000
05F7000000
09F4000000
0CF2100000
1FFFC00000
ENDCHAR
STARTCHAR backslash
ENCODING 92
SWIDTH 362 0
DWIDTH 7 0
BBX 6 17 0 -4
BITMAP
2F2000
0E6000
0A9000
07D000
04F100
01F400
00C800
008B00
005E00
002F30
000D60
000AA0
0007D0
0003F1
0000F5
0000B8
00008B
ENDCHAR
STARTCHAR bracketright
ENCODING 93
SWIDTH 400 0
DWIDTH 7 0
BBX 8 17 -1 -4
BITMAP
0006FFF7
00011AF3
00000CF0
00001FC0
00004F80
00008F50
0000BF10
0000ED00
0003FA00
0006F600
000AF300
000DF000
001FB000
005F8000
008F5000
11CF1000
EFFD0000
ENDCHAR
STARTCHAR asciicircum
ENCODING 94
SWIDTH 421 0
DWIDTH 8 0
BBX 6 4 1 10
BITMAP
000410
006F60
07EBB0
8910B1
ENDCHAR
STARTCHAR underscore
ENCODING 95
SWIDTH 444 0
DWIDTH 8 0
BBX 8 2 0 -1
BITMAP
3EEEEEE2
12222220
ENDCHAR
STARTCHAR grave
ENCODING 96
SWIDTH 201 0
DWIDTH 4 0
BBX 3 3 0 10
BITMAP
5F60
0D90
06B0
ENDCHAR
STARTCHAR a
ENCODING 97
SWIDTH 526 0
DWIDTH 9 0
BBX 12 9 -1 0
BITMAP
0006DFAFF800
008FE48FF500
04FF507FF200
0BFD00AFD000
1FF900DFA000
3FF702FF7021
3FF707FF50B0
1EFEACFFDC50
04DE919EC500
ENDCHAR
STARTCHAR b
ENCODING 98
SWIDTH 444 0
DWIDTH 8 0
BBX 9 13 -1 0
BITMAP
0003540000
003FF60000
007FF20000
00AFE00000
00DFEDE700
01FF92CF20
05FF408F40
08FF108F40
0BFC00BF20
0EF901FD00
1FF809F600
0EFFEFB000
05DEC70000
ENDCHAR
STARTCHAR c
ENCODING 99
SWIDTH 384 0
DWIDTH 7 0
BBX 9 9 -1 0
BITMAP
0006DFC200
008FE3D800
04FF60D600
0BFE001000
0FFA000000
3FF8000000
3FF7000730
1EFB239500
04CFD92000
ENDCHAR
STARTCHAR d
ENCODING 100
SWIDTH 525 0
DWIDTH 9 0
BBX 12 13 -1 0
BITMAP
000000003520
00000006FF30
00000009FF00
0000000DFC00
0006DFAFF900
008FE48FF600
04FF607FF300
0BFE00AFE000
1FFA00DFB000
3FF801FF8000
3FF704FF5071
1EFA2CFF6470
04DFB4BFD600
ENDCHAR
STARTCHAR e
ENCODING 101
SWIDTH 384 0
DWIDTH 7 0
BBX 9 9 -1 0
BITMAP
0006DFD300
008FD3D800
04FF31E600
0BFC2CD100
0FFFE91000
3FF8000120
3FF7000910
1EFC239300
04CFD81000
ENDCHAR
STARTCHAR f
ENCODING 102
SWIDTH 267 0
DWIDTH 5 0
BBX 11 17 -4 -4
BITMAP
0000002BED50
000000DFA3D0
000005FF2020
000009FE0000
00000CFFF100
00001FF91000
00004FF50000
00008FF20000
0000BFD00000
0000EFA00000
0003FF700000
0006FF300000
002BFE000000
1ADEFB000000
991FF8000000
A77FF2000000
2CEC40000000
ENDCHAR
STARTCHAR g
ENCODING 103
SWIDTH 507 0
DWIDTH 9 0
BBX 11 13 -1 -4
BITMAP
0006DFAFF800
008FE48FF500
04FF507FF100
0BFD00BFD000
1FF900EFA000
3FF702FF7040
3FF809FF3480
1EFFEFFF2A10
04DE9DFE8100
0007DFF80000
008A5FF50000
00C5AFD00000
004DEB200000
ENDCHAR
STARTCHAR h
ENCODING 104
SWIDTH 505 0
DWIDTH 9 0
BBX 11 13 -1 0
BITMAP
000353000000
003FF6000000
006FF2000000
00AFD0000000
00DFDBEC2000
01FFC3EF9000
04FF40DFA000
08FF01FF8000
0BFC04FF5000
0EF907FF2000
2FF609FE0190
5FF308FE2920
9FF001BEC400
ENDCHAR
STARTCHAR i
ENCODING 105
SWIDTH 267 0
DWIDTH 5 0
BBX 7 12 -1 0
BITMAP
002DD200
006FF600
001BB100
00DFB000
02FF7000
05FF4000
08FF1000
0BFD0000
0EF90120
2FF70A40
1FFECA00
07ED7000
ENDCHAR
STARTCHAR j
ENCODING 106
SWIDTH 240 0
DWIDTH 4 0
BBX 9 16 -4 -4
BITMAP
000003EC10
000008FF40
000002BA00
00000DFB00
00001FF800
00005FF400
00008FF100
0000BFD000
0000EFA030
0003FF61A0
0006FF4920
000AFF9200
06EFFB0000
6C3FF80000
988FF20000
3CEC400000
ENDCHAR
STARTCHAR k
ENCODING 107
SWIDTH 518 0
DWIDTH 9 0
BBX 11 13 -1 0
BITMAP
000464000000
003FF6000000
007FF2000000
00AFE0000000
00DFB02CB100
01FF84D60000
04FFBFA40000
08FFFFFF3000
0BFE34FF6000
0EFA04FF5020
2FF707FF21B0
6FF306FFCD40
9FF001BED500
ENDCHAR
STARTCHAR l
ENCODING 108
SWIDTH 267 0
DWIDTH 5 0
BBX 7 13 -1 0
BITMAP
00179500
004FF500
007FF200
00AFE000
00EFB000
02FF8000
05FF4000
08FF1000
0BFD0000
0EFA0230
2FF70920
1FFC9900
07ED7000
ENDCHAR
STARTCHAR m
ENCODING 109
SWIDTH 752 0
DWIDTH 14 0
BBX 16 9 -1 0
BITMAP
00DFDBEE58DE7000
01FFC3EFF59FF100
05FF40EFB06FF200
08FF02FF709FF000
0BFC05FF40CFC000
0EF908FF10FF9000
2FF60BFD02FF6091
6FF30EFA01FF7480
9FF02FF7007EE800
ENDCHAR
STARTCHAR n
ENCODING 110
SWIDTH 505 0
DWIDTH 9 0
BBX 11 9 -1 0
BITMAP
00DFDBEC2000
01FFC3EF9000
05FF40DFA000
08FF01FF8000
0BFC04FF5000
0EF907FF2000
2FF609FE0190
6FF308FE2920
9FF001BEC400
ENDCHAR
STARTCHAR o
ENCODING 111
SWIDTH 439 0
DWIDTH 8 0
BBX 11 9 -1 0
BITMAP
0006CFC30000
008FE4AB0000
03FF60CE15A0
0AFE10EF9500
0FFA00AC0000
3FF800E90000
3FF704F30000
1EFA2D800000
04CED6000000
ENDCHAR
STARTCHAR p
ENCODING 112
SWIDTH 468 0
DWIDTH 8 0
BBX 10 15 -2 -5
BITMAP
0005870000
000DFDBED3
001FFB2BFC
004FF408FE
007FF108FE
00BFC00BFC
00EF901EF8
02FF608FF3
06FFBAFF80
09FEBED700
0CFC000000
1FF8000000
4FF5000000
7FD2000000
2100000000
ENDCHAR
STARTCHAR q
ENCODING 113
SWIDTH 486 0
DWIDTH 9 0
BBX 10 14 -1 -5
BITMAP
0006DFAFF8
008FE48FF4
04FF507FF1
0BFD00BFD0
1FF900EFA0
3FF703FF70
3FF80AFF30
1EFFEFFF00
04DE9DFC00
00001FF900
00003FF500
00007FF200
0000AFC000
0000310000
ENDCHAR
STARTCHAR r
ENCODING 114
SWIDTH 376 0
DWIDTH 7 0
BBX 8 9 -1 0
BITMAP
00DFB8EA
01FFEBFE
05FF50B7
08FF1000
0BFD0000
0EFA0000
2FF70000
6FF30000
9FF00000
ENDCHAR
STARTCHAR s
ENCODING 115
SWIDTH 382 0
DWIDTH 7 0
BBX 9 10 -1 0
BITMAP
0003793000
000BFF5000
001EFF5000
0078FF7000
00C3FF8000
0661FF9000
3E90FFA330
8A20FFD900
6B28FF6000
09EEB30000
ENDCHAR
STARTCHAR t
ENCODING 116
SWIDTH 267 0
DWIDTH 5 0
BBX 7 12 -1 0
BITMAP
0028A400
007FF200
00AFE000
07FFFC00
01FF9100
04FF5000
07FF2000
0AFD0000
0EFA0110
1FF70940
1FFEBA00
07ED8000
ENDCHAR
STARTCHAR u
ENCODING 117
SWIDTH 505 0
DWIDTH 9 0
BBX 11 9 -1 0
BITMAP
00DFB07FF200
02FF70AFE000
05FF40DFB000
08FF11FF8000
0BFD04FF4000
0EF908FF1030
2FF81DFE0480
1FFEDCFFCD10
07ED62CEA200
ENDCHAR
STARTCHAR v
ENCODING 118
SWIDTH 414 0
DWIDTH 7 0
BBX 9 9 -1 0
BITMAP
00DFB0DC00
02FF70BE20
05FF400E10
08FF102E00
0BFD007A00
0EF901E500
2FF70AC000
1FFEDE2000
07EEB30000
ENDCHAR
STARTCHAR w
ENCODING 119
SWIDTH 661 0
DWIDTH 12 0
BBX 13 9 -1 0
BITMAP
00DFB07FF26E50
02FF70AFE06D90
05FF40DFB00780
08FF11FF800B60
0BFD04FF401F20
0EF908FF108B00
2FF81DFE04F400
1FFEDDFFCF8000
07ED62CFD70000
ENDCHAR
STARTCHAR x
ENCODING 120
SWIDTH 522 0
DWIDTH 9 0
BBX 10 10 0 0
BITMAP
0000001B80
005DE72EE0
0487FF14D0
0A03FF4C50
3701FFD800
8200EFB000
B004FF9000
103DCFB009
03D45FE365
2D400AEC50
ENDCHAR
STARTCHAR y
ENCODING 121
SWIDTH 486 0
DWIDTH 9 0
BBX 11 13 -1 -4
BITMAP
00DFB07FF200
02FF70AFE000
05FF40DFB000
08FF11FF8000
0BFD05FF4000
0EF908FF1120
2FF81EFD0920
1FFEDFFA5800
07ED9FFC6000
0029EFF30000
00C4AFE00000
02E7FF800000
009EE8000000
ENDCHAR
STARTCHAR z
ENCODING 122
SWIDTH 428 0
DWIDTH 8 0
BBX 8 9 0 0
BITMAP
04DFFFF6
0EC1BFD0
0964FF40
000CFB00
006FF300
01EF9000
08FE1460
2FF92BD0
BFFFFD40
ENDCHAR
STARTCHAR braceleft
ENCODING 123
SWIDTH 352 0
DWIDTH 6 0
BBX 8 17 0 -4
BITMAP
00008DF2
0007FA20
000CF200
000FE000
002FC000
003FB000
008F7000
1FF60000
03EB0000
00FD0000
03FA0000
07F60000
0BF30000
0FF10000
2FF00000
1FF40000
05DE0000
ENDCHAR
STARTCHAR bar
ENCODING 124
SWIDTH 532 0
DWIDTH 10 0
BBX 3 17 3 -4
BITMAP
1F90
1F90
1F90
1F90
1F90
1F90
1F90
1F90
1F90
1F90
1F90
1F90
1F90
1F90
1F90
1F90
1F90
ENDCHAR
STARTCHAR braceright
ENCODING 125
SWIDTH 352 0
DWIDTH 6 0
BBX 8 17 -2 -4
BITMAP
0000ED60
00003FF1
00000EF2
00001FE0
00004F90
00008F50
0000BF10
0000CF00
00005FF2
0004FA20
0009F400
000BF300
000DF200
000EF000
003FC000
02AF6000
1FD80000
ENDCHAR
STARTCHAR asciitilde
ENCODING 126
SWIDTH 431 0
DWIDTH 8 0
BBX 7 2 1 10
BITMAP
2BEEB980
88BEEA20
ENDCHAR
STARTCHAR uni00A0
ENCODING 160
SWIDTH 217 0
DWIDTH 4 0
BBX 1 1 0 0
BITMAP
00
ENDCHAR
STARTCHAR exclamdown
ENCODING 161
SWIDTH 219 0
DWIDTH 4 0
BBX 6 14 -1 -5
BITMAP
004EB0
009FF2
003C90
000000
006A00
00DC00
02FA00
06F800
0BF500
0EF300
4FF100
8FD000
DFB000
752000
ENDCHAR
STARTCHAR cent
ENCODING 162
SWIDTH 384 0
DWIDTH 7 0
BBX 8 14 0 -2
BITMAP
00002C00
00005800
0029EFC2
03ECD4F7
1DF3D4F5
7FA4A030
BF677000
CF5A3000
BF6D0000
6FDC1710
08EFF900
00A51000
00D10000
00500000
ENDCHAR
STARTCHAR sterling
ENCODING 163
SWIDTH 455 0
DWIDTH 8 0
BBX 10 13 0 0
BITMAP
00003AEE90
0003EF59F3
000BFB09B1
001FF60000
005FF20000
4EFFFEE600
12CFB22000
00EF700000
02FF400000
05FF100000
0AF7011490
3FFFFFFFB0
ADDDEFFC30
ENDCHAR
STARTCHAR currency
ENCODING 164
SWIDTH 500 0
DWIDTH 9 0
BBX 7 8 1 2
BITMAP
21000130
7CBECC70
0E827E00
3D000B40
3C000B40
0E605E10
5DDFED60
32010140
ENDCHAR
STARTCHAR yen
ENCODING 165
SWIDTH 558 0
DWIDTH 10 0
BBX 10 13 1 0
BITMAP
0EFF0001E2
0BFF4007A0
07FF700D40
03FFB04C00
00EFE0A600
00BFF5D000
007FFD8000
003FFF1000
0CEFFEDD10
5EFFFFE900
12CFF32100
00EFE00000
02FFB00000
ENDCHAR
STARTCHAR brokenbar
ENCODING 166
SWIDTH 532 0
DWIDTH 10 0
BBX 3 17 3 -4
BITMAP
1F90
1F90
1F90
1F90
1F90
1F90
1F90
1F90
0000
1F90
1F90
1F90
1F90
1F90
1F90
1F90
1F90
ENDCHAR
STARTCHAR section
ENCODING 167
SWIDTH 542 0
DWIDTH 10 0
BBX 10 15 0 -2
BITMAP
00003AEEA1
0003EF52E5
0009FA00D5
000AFA0280
006EFF4000
03FAEFF500
07FA2DFF50
04FF81CFE0
008FF81FF1
0008FF6CE0
1860BFDE70
9F815FF500
CD004FD000
AF209F7000
19DDB50000
ENDCHAR
STARTCHAR dieresis
ENCODING 168
SWIDTH 392 0
DWIDTH 7 0
BBX 6 3 1 10
BITMAP
110010
CE19F4
BD17E3
ENDCHAR
STARTCHAR copyright
ENCODING 169
SWIDTH 587 0
DWIDTH 11 0
BBX 10 10 0 0
BITMAP
0018DEB400
01C9425D60
0973CEA1C2
0D1D539657
1C3C000039
0D1E405348
0A54EFC2B3
02D7113B80
002AFFE700
0000010000
ENDCHAR
STARTCHAR ordfeminine
ENCODING 170
SWIDTH 345 0
DWIDTH 6 0
BBX 6 5 0 8
BITMAP
02CEEA
0BD3F6
1F54F3
3F49F0
1EE8F5
ENDCHAR
STARTCHAR guillemotleft
ENCODING 171
SWIDTH 589 0
DWIDTH 11 0
BBX 10 7 0 1
BITMAP
0000160016
0017C629C4
17D739C500
8D20BB1000
05D927D710
0007D019A0
0000100010
ENDCHAR
STARTCHAR logicalnot
ENCODING 172
SWIDTH 444 0
DWIDTH 8 0
BBX 8 5 0 0
BITMAP
7EEEEEE1
12225FD0
00006F90
0000AF60
00001200
ENDCHAR
STARTCHAR uni00AD
ENCODING 173
SWIDTH 290 0
DWIDTH 5 0
BBX 5 2 0 3
BITMAP
7EEE20
122200
ENDCHAR
STARTCHAR registered
ENCODING 174
SWIDTH 553 0
DWIDTH 10 0
BBX 10 10 0 0
BITMAP
002ADD9200
03E7337D30
0D3CED73C0
4A0C23E0A3
570CEF8074
490C295093
0D2C01C2C0
05D4005D40
004CFFC400
0000110000
ENDCHAR
STARTCHAR macron
ENCODING 175
SWIDTH 446 0
DWIDTH 8 0
BBX 7 2 1 10
BITMAP
8EEEEE30
12222200
ENDCHAR
STARTCHAR degree
ENCODING 176
SWIDTH 314 0
DWIDTH 6 0
BBX 5 7 0 6
BITMAP
01AE80
0BC4F0
2F41F0
4F03D0
4F2B70
1DFA00
001000
ENDCHAR
STARTCHAR plusminus
ENCODING 177
SWIDTH 479 0
DWIDTH 9 0
BBX 8 10 0 1
BITMAP
00003500
0000BB00
0122E822
0BFFFFFD
0449F443
0009C000
000C9000
00010000
6EEEEED0
12222210
ENDCHAR
STARTCHAR uni00B2
ENCODING 178
SWIDTH 328 0
DWIDTH 6 0
BBX 6 9 0 4
BITMAP
009EC3
04C3FA
05C0F9
0025E2
002D40
01C500
0A7001
1FEEE4
022210
ENDCHAR
STARTCHAR uni00B3
ENCODING 179
SWIDTH 336 0
DWIDTH 6 0
BBX 6 7 0 6
BITMAP
008ED5
02F4BC
0083D7
0009B1
0C81FA
1F33F7
05BB60
ENDCHAR
STARTCHAR acute
ENCODING 180
SWIDTH 316 0
DWIDTH 6 0
BBX 4 4 2 10
BITMAP
0284
0AD1
2F40
9800
ENDCHAR
STARTCHAR uni00B5
ENCODING 181
SWIDTH 505 0
DWIDTH 9 0
BBX 12 12 -2 -3
BITMAP
000DFB07FF20
001FF70AFE00
005FF40DFB00
008FF11FF800
00BFD04FF500
00EFA07FF102
02FF80DFE038
05FFDCCFFBC1
09FFE62DEB20
0CFC00000000
0FF900000000
3B8200000000
ENDCHAR
STARTCHAR paragraph
ENCODING 182
SWIDTH 542 0
DWIDTH 10 0
BBX 9 14 1 -1
BITMAP
006CEEA200
09FFFFBC00
4FFFFE7F10
9FFFFA9F10
AFFFF7CD00
7FFFF4FA00
1EFFF5F600
029FEDF300
002F8BE000
006F5EB000
009F4F8000
00DD6F4000
01FAAF1000
04F6DC0000
ENDCHAR
STARTCHAR periodcentered
ENCODING 183
SWIDTH 434 0
DWIDTH 8 0
BBX 4 3 2 3
BITMAP
5ED3
CFF9
5ED3
ENDCHAR
STARTCHAR cedilla
ENCODING 184
SWIDTH 227 0
DWIDTH 4 0
BBX 5 6 0 -5
BITMAP
002000
066000
0DCA10
319F30
7FF800
010000
ENDCHAR
STARTCHAR uni00B9
ENCODING 185
SWIDTH 229 0
DWIDTH 4 0
BBX 4 9 0 4
BITMAP
0148
1FFA
01F7
04F4
07F1
0AD0
0DA0
1F70
0100
ENDCHAR
STARTCHAR ordmasculine
ENCODING 186
SWIDTH 329 0
DWIDTH 6 0
BBX 6 6 0 7
BITMAP
02BE50
0CC4C2
2F53A0
3F4850
1DF900
001000
ENDCHAR
STARTCHAR guillemotright
ENCODING 187
SWIDTH 586 0
DWIDTH 11 0
BBX 10 7 0 1
BITMAP
0520052000
05D805D800
0019D419D4
0001AC01AC
04AC75AC71
8A408A4000
1000100000
ENDCHAR
STARTCHAR onequarter
ENCODING 188
SWIDTH 749 0
DWIDTH 13 0
BBX 14 13 0 0
BITMAP
014800000C7000
1FFA00006D0000
01F70001E50000
04F40008B00000
07F1002F300000
0AD000B9000000
0DA004E109A5C2
1F700D600AAAD0
01007D002C1E90
0001E4009DDFD0
0009B000006F20
003F2000009F00
00B8000000CC00
ENDCHAR
STARTCHAR onehalf
ENCODING 189
SWIDTH 745 0
DWIDTH 13 0
BBX 14 13 0 0
BITMAP
014800000C7000
1FFA00006D0000
01F70001E50000
04F40008B00000
07F1002F300000
0AD000B9000000
0DA004E104DE90
1F700D600D59F2
01007D000848D1
0001E400003D30
0009B00003B200
003F20002C2120
00B800008FFFA0
ENDCHAR
STARTCHAR threequarters
ENCODING 190
SWIDTH 836 0
DWIDTH 15 0
BBX 15 13 0 0
BITMAP
008ED500004E1000
02F4BC0000D70000
0083D70006D00000
0009B1001E400000
0C81FA009B000000
1F33F703F2000000
05BB600B901E4A90
0000005E102F5F70
000000D600886F30
000007C002DCEF70
00001E400000CB00
00009A000000F800
0003E2000003F600
ENDCHAR
STARTCHAR questiondown
ENCODING 191
SWIDTH 439 0
DWIDTH 8 0
BBX 8 13 -1 -4
BITMAP
00000BE4
00002FFA
000009C3
00000000
00000880
00001D50
0001BB00
002CC100
03ED1250
0EF60BF7
3FF404F8
1EF929E3
04CEEA30
ENDCHAR
STARTCHAR Agrave
ENCODING 192
SWIDTH 668 0
DWIDTH 12 0
BBX 13 20 0 -2
BITMAP
000000001FB000
000000000BE000
0000000005F100
00000000000000
00000000000000
0000000029EE40
00000003CAFF30
0000003D3AFE00
000002E60DFB00
00000CC01FF800
07CEEFC66FF400
9F84FD36DFF100
BF39F600BFD000
022FE100EF9000
008FA003FF6000
00EF5006FF3000
03FF100AFE0000
06FD000DFB0000
07FB0000000000
01CB0000000000
ENDCHAR
STARTCHAR Aacute
ENCODING 193
SWIDTH 668 0
DWIDTH 12 0
BBX 14 20 0 -2
BITMAP
00000000000185
000000000009E3
00000000002F60
00000000004600
00000000000000
0000000029EE40
00000003CAFF30
0000003D3AFE00
000002E60DFB00
00000CC01FF800
07CEEFC66FF400
9F84FD36DFF100
BF39F600BFD000
022FE100EF9000
008FA003FF6000
00EF5006FF3000
03FF100AFE0000
06FD000DFB0000
07FB0000000000
01CB0000000000
ENDCHAR
STARTCHAR Acircumflex
ENCODING 194
SWIDTH 668 0
DWIDTH 12 0
BBX 14 20 0 -2
BITMAP
00000000000150
00000000002CF1
0000000005D8B6
00000000260015
00000000000000
0000000029EE40
00000003CAFF30
0000003D3AFE00
000002E60DFB00
00000CC01FF800
07CEEFC66FF400
9F84FD36DFF100
BF39F600BFD000
022FE100EF9000
008FA003FF6000
00EF5006FF3000
03FF100AFE0000
06FD000DFB0000
07FB0000000000
01CB0000000000
ENDCHAR
STARTCHAR Atilde
ENCODING 195
SWIDTH 668 0
DWIDTH 12 0
BBX 15 19 0 -2
BITMAP
0000000016752120
00000002DFFFFD20
0000000212576100
0000000000000000
0000000029EE4000
00000003CAFF3000
0000003D3AFE0000
000002E60DFB0000
00000CC01FF80000
07CEEFC66FF40000
9F84FD36DFF10000
BF39F600BFD00000
022FE100EF900000
008FA003FF600000
00EF5006FF300000
03FF100AFE000000
06FD000DFB000000
07FB000000000000
01CB000000000000
ENDCHAR
STARTCHAR Adieresis
ENCODING 196
SWIDTH 668 0
DWIDTH 12 0
BBX 14 19 0 -2
BITMAP
000000008E25E5
00000000AF37F7
00000000010020
00000000000000
0000000029EE40
00000003CAFF30
0000003D3AFE00
000002E60DFB00
00000CC01FF800
07CEEFC66FF400
9F84FD36DFF100
BF39F600BFD000
022FE100EF9000
008FA003FF6000
00EF5006FF3000
03FF100AFE0000
06FD000DFB0000
07FB0000000000
01CB0000000000
ENDCHAR
STARTCHAR Aring
ENCODING 197
SWIDTH 668 0
DWIDTH 12 0
BBX 13 19 0 -2
BITMAP
0000000001CC10
00000000067850
0000000004FE10
00000000001000
0000000029EE40
00000003CAFF30
0000003D3AFE00
000002E60DFB00
00000CC01FF800
07CEEFC66FF400
9F84FD36DFF100
BF39F600BFD000
022FE100EF9000
008FA003FF6000
00EF5006FF3000
03FF100AFE0000
06FD000DFB0000
07FB0000000000
01CB0000000000
ENDCHAR
STARTCHAR AE
ENCODING 198
SWIDTH 764 0
DWIDTH 14 0
BBX 17 15 0 -2
BITMAP
0000000029ED821620
00000004DAFFCFFA00
0000004E3AFF101000
000002E70DFC000000
00000CC01FF8000000
07CEEFB45FF6110000
9F94FC37EFFFFD0000
CF39F600BFD4430000
242FE100EFA0000000
008FA003FF60000000
00EF5006FF30000000
03FF1009FFDDDD0000
06FD000DFFFFFC0000
07FB00000000000000
02CB00000000000000
ENDCHAR
STARTCHAR Ccedilla
ENCODING 199
SWIDTH 497 0
DWIDTH 9 0
BBX 10 17 0 -4
BITMAP
00018DFD80
001DFD33E6
00BFE200E9
05FF8005D4
0CFF200000
2FFC000000
6FF8000000
8FF6000000
9FF5000000
9FF7000032
7FFD3027B0
2FFFFFFB10
04CEE84000
0003C72000
00012F7000
00261F4000
003AA60000
ENDCHAR
STARTCHAR Egrave
ENCODING 200
SWIDTH 459 0
DWIDTH 8 0
BBX 9 18 0 0
BITMAP
00004F8000
00000EA000
000009D000
0000000000
0000000000
00018DEB20
000CF82BB0
006FD00AC0
009FB01C40
007FE10000
001DFB1000
04EFB10000
2EFD100000
9FF7000000
CFF4000040
CFF9002A30
7FFFEEE500
07DED92000
ENDCHAR
STARTCHAR Eacute
ENCODING 201
SWIDTH 459 0
DWIDTH 8 0
BBX 10 18 0 0
BITMAP
0000000AF3
0000002F80
0000009D10
0000007300
0000000000
00018DEB20
000CF82BB0
006FD00AC0
009FB01C40
007FE10000
001DFB1000
04EFB10000
2EFD100000
9FF7000000
CFF4000040
CFF9002A30
7FFFEEE500
07DED92000
ENDCHAR
STARTCHAR Ecircumflex
ENCODING 202
SWIDTH 459 0
DWIDTH 8 0
BBX 9 18 0 0
BITMAP
0000003D00
000004EF40
00005D7790
0001610050
0000000000
00018DEB20
000CF82BB0
006FD00AC0
009FB01C40
007FE10000
001DFB1000
04EFB10000
2EFD100000
9FF7000000
CFF4000040
CFF9002A30
7FFFEEE500
07DED92000
ENDCHAR
STARTCHAR Edieresis
ENCODING 203
SWIDTH 459 0
DWIDTH 8 0
BBX 10 17 0 0
BITMAP
00007E44E7
00009F55F8
0000010010
0000000000
00018DEB20
000CF82BB0
006FD00AC0
009FB01C40
007FE10000
001DFB1000
04EFB10000
2EFD100000
9FF7000000
CFF4000040
CFF9002A30
7FFFEEE500
07DED92000
ENDCHAR
STARTCHAR Igrave
ENCODING 204
SWIDTH 375 0
DWIDTH 7 0
BBX 8 18 0 0
BITMAP
0000ED00
00009F00
00004F30
00000000
00000000
0005ADF1
02C8DFC0
2E81FF90
AF14FF60
DD07FF20
8C0AFE00
010DFB00
002FF700
005FF400
008FF100
00CFC000
00FF9000
03FF6000
ENDCHAR
STARTCHAR Iacute
ENCODING 205
SWIDTH 375 0
DWIDTH 7 0
BBX 9 18 0 0
BITMAP
0000002850
000000AE20
000003F500
0000046000
0000000000
0005ADF100
02C8DFC000
2E81FF9000
AF14FF6000
DD07FF2000
8C0AFE0000
010DFB0000
002FF70000
005FF40000
008FF10000
00CFC00000
00FF900000
03FF600000
ENDCHAR
STARTCHAR Icircumflex
ENCODING 206
SWIDTH 375 0
DWIDTH 7 0
BBX 9 18 0 0
BITMAP
0000003300
000006F900
00019C6D00
0005300320
0000000000
0005ADF100
02C8DFC000
2E81FF9000
AF14FF6000
DD07FF2000
8C0AFE0000
010DFB0000
002FF70000
005FF40000
008FF10000
00CFC00000
00FF900000
03FF600000
ENDCHAR
STARTCHAR Idieresis
ENCODING 207
SWIDTH 375 0
DWIDTH 7 0
BBX 9 17 0 0
BITMAP
0006E53E80
0007F64FA0
0000200100
0000000000
0005ADF100
02C8DFC000
2E81FF9000
AF14FF6000
DD07FF2000
8C0AFE0000
010DFB0000
002FF70000
005FF40000
008FF10000
00CFC00000
00FF900000
03FF600000
ENDCHAR
STARTCHAR Eth
ENCODING 208
SWIDTH 663 0
DWIDTH 12 0
BBX 12 13 0 0
BITMAP
0016BEFEB500
05EC6443BF90
5F90EF902FF3
CE04FF500EF8
BC08FF100DF9
157FFFE20EF8
002FF9201FF7
004FF5004FF3
007FF3008FE0
009FF000DF80
00CFC006FE20
00FFC25EF500
03FFACFD5000
ENDCHAR
STARTCHAR Ntilde
ENCODING 209
SWIDTH 686 0
DWIDTH 12 0
BBX 13 16 0 0
BITMAP
0000005DFDA750
00000255ADC700
00000000000000
0039DFD1000EC0
06E6CFF4002F90
4F70EFF8005F50
BF13FFFB009F20
DE06FEFF00CE00
9F0AF7FF30FA00
041DE1FF73F700
002FA0DFA6F300
005F709FEAF000
008F305FFEC000
00CE002FFF8000
00FB000DFF5000
03F70009FF1000
ENDCHAR
STARTCHAR Ograve
ENCODING 210
SWIDTH 665 0
DWIDTH 12 0
BBX 12 18 0 0
BITMAP
000006F60000
000001F90000
000000AB0000
000000000000
000000000000
00017BEFEA20
007EA5547FE1
0AE44EE30CF8
6F62EF6009FB
AF1BFD000AFC
7E3FF7000BFB
028FF2000EF8
00CFD0003FF4
00EFB0009FE1
01FF9002EF70
00EFB00AFC00
009FF8BFD100
0019EFD81000
ENDCHAR
STARTCHAR Oacute
ENCODING 211
SWIDTH 665 0
DWIDTH 12 0
BBX 12 18 0 0
BITMAP
000000007F50
00000000DB00
00000006F200
000000065000
000000000000
00017BEFEA20
007EA5547FE1
0AE44EE30CF8
6F62EF6009FB
AF1BFD000AFC
7E3FF7000BFB
028FF2000EF8
00CFD0003FF4
00EFB0009FE1
01FF9002EF70
00EFB00AFC00
009FF8BFD100
0019EFD81000
ENDCHAR
STARTCHAR Ocircumflex
ENCODING 212
SWIDTH 665 0
DWIDTH 12 0
BBX 12 18 0 0
BITMAP
00000001B400
0000001CF800
000002D94C00
000006200410
000000000000
00017BEFEA20
007EA5547FE1
0AE44EE30CF8
6F62EF6009FB
AF1BFD000AFC
7E3FF7000BFB
028FF2000EF8
00CFD0003FF4
00EFB0009FE1
01FF9002EF70
00EFB00AFC00
009FF8BFD100
0019EFD81000
ENDCHAR
STARTCHAR Otilde
ENCODING 213
SWIDTH 665 0
DWIDTH 12 0
BBX 12 17 0 0
BITMAP
000000377412
0000059DFFF8
000000005730
000000000000
00017BEFEA20
007EA5547FE1
0AE44EE30CF8
6F62EF6009FB
AF1BFD000AFC
7E3FF7000BFB
028FF2000EF8
00CFD0003FF4
00EFB0009FE1
01FF9002EF70
00EFB00AFC00
009FF8BFD100
0019EFD81000
ENDCHAR
STARTCHAR Odieresis
ENCODING 214
SWIDTH 665 0
DWIDTH 12 0
BBX 12 17 0 0
BITMAP
000008E25E50
00000AF36F70
000000100200
000000000000
00017BEFEA20
007EA5547FE1
0AE44EE30CF8
6F62EF6009FB
AF1BFD000AFC
7E3FF7000BFB
028FF2000EF8
00CFD0003FF4
00EFB0009FE1
01FF9002EF70
00EFB00AFC00
009FF8BFD100
0019EFD81000
ENDCHAR
STARTCHAR multiply
ENCODING 215
SWIDTH 414 0
DWIDTH 7 0
BBX 7 6 0 3
BITMAP
0A402B20
1BF6DD20
01BFE200
02DFF500
1DD3BF30
06201700
ENDCHAR
STARTCHAR Oslash
ENCODING 216
SWIDTH 658 0
DWIDTH 12 0
BBX 12 14 0 -1
BITMAP
00000003B000
00049CEFD600
02BEBFDC9F90
1EC3EF3E1FF2
9F2BFA2D0EF5
AE3FF4690FF5
159FE0963FF3
00DFB0C36FE0
00FF80E0CFA0
01FF73B4FF30
00FF868CF800
00BFDBEF9000
001AEFA40000
00002C000000
ENDCHAR
STARTCHAR Ugrave
ENCODING 217
SWIDTH 716 0
DWIDTH 13 0
BBX 15 18 -1 0
BITMAP
000000008F400000
000000003F700000
000000000C900000
0000000000000000
0000000000000000
00006ADF6001FF70
004D98FF3004FF40
04F709FD0008FF10
0DD00DF9000BFD00
1FA02FF5000EF900
0AA06FF1003FF600
0000AFC0007FF200
0000DF8000AFE000
0002FF4001EF9000
0004FF2005FF4000
0004FF401DFB0000
0001EFECEFD20000
00004CFED8200000
ENDCHAR
STARTCHAR Uacute
ENCODING 218
SWIDTH 716 0
DWIDTH 13 0
BBX 15 18 -1 0
BITMAP
00000000008F4000
0000000001E90000
0000000008E10000
0000000006400000
0000000000000000
00006ADF6001FF70
004D98FF3004FF40
04F709FD0008FF10
0DD00DF9000BFD00
1FA02FF5000EF900
0AA06FF1003FF600
0000AFC0007FF200
0000DF8000AFE000
0002FF4001EF9000
0004FF2005FF4000
0004FF401DFB0000
0001EFECEFD20000
00004CFED8200000
ENDCHAR
STARTCHAR Ucircumflex
ENCODING 219
SWIDTH 716 0
DWIDTH 13 0
BBX 15 18 -1 0
BITMAP
00000000005B0000
0000000006FF2000
000000007D596000
0000000250015000
0000000000000000
00006ADF6001FF70
004D98FF3004FF40
04F709FD0008FF10
0DD00DF9000BFD00
1FA02FF5000EF900
0AA06FF1003FF600
0000AFC0007FF200
0000DF8000AFE000
0002FF4001EF9000
0004FF2005FF4000
0004FF401DFB0000
0001EFECEFD20000
00004CFED8200000
ENDCHAR
STARTCHAR Udieresis
ENCODING 220
SWIDTH 716 0
DWIDTH 13 0
BBX 15 17 -1 0
BITMAP
00000001DB0AD100
00000001ED0CE200
0000000011001000
0000000000000000
00006ADF6001FF70
004D98FF3004FF40
04F709FD0008FF10
0DD00DF9000BFD00
1FA02FF5000EF900
0AA06FF1003FF600
0000AFC0007FF200
0000DF8000AFE000
0002FF4001EF9000
0004FF2005FF4000
0004FF401DFB0000
0001EFECEFD20000
00004CFED8200000
ENDCHAR
STARTCHAR Yacute
ENCODING 221
SWIDTH 620 0
DWIDTH 11 0
BBX 13 18 0 0
BITMAP
00000000005820
0000000001EA00
0000000009D100
00000000073000
00000000000000
0005ADF4000D50
02CB9FF8004D00
2EA03FFB00A600
AF100EFF12E100
DD000AFF488000
8C0006FF8D1000
010002FFF90000
000000DFF20000
000000FFD00000
000003FFA00000
000007FF700000
00000AFF300000
00000DFF000000
ENDCHAR
STARTCHAR Thorn
ENCODING 222
SWIDTH 583 0
DWIDTH 11 0
BBX 11 13 0 0
BITMAP
00006BD10000
0000CFD00000
0017FFFD9200
04C7FF85EE10
3F57FF307F70
BE0AFE006F90
DC0EFB009F70
6B2FF702EE20
005FF44DF500
008FFFFB3000
00CFD2000000
00FF90000000
03FF60000000
ENDCHAR
STARTCHAR germandbls
ENCODING 223
SWIDTH 480 0
DWIDTH 9 0
BBX 10 17 -2 -5
BITMAP
000008DEB1
00009FA4F7
0003FF31F6
0009FE05F1
000DFB0B80
002FF73E10
005FF43EB0
008FF108F7
00CFC005FC
00FF9006FC
03FF643DF6
07FF3DFD60
0AFE000000
0DFA000000
2FF7000000
5FD3000000
2200000000
ENDCHAR
STARTCHAR agrave
ENCODING 224
SWIDTH 526 0
DWIDTH 9 0
BBX 12 13 -1 0
BITMAP
00000ED00000
000009F10000
000003F30000
000000000000
0006DFAFF800
008FE48FF500
04FF507FF200
0BFD00AFD000
1FF900DFA000
3FF702FF7021
3FF707FF50B0
1EFEACFFDC50
04DE919EC500
ENDCHAR
STARTCHAR aacute
ENCODING 225
SWIDTH 526 0
DWIDTH 9 0
BBX 12 13 -1 0
BITMAP
0000003F9000
000000BD1000
000004F30000
000001100000
0006DFAFF800
008FE48FF500
04FF507FF200
0BFD00AFD000
1FF900DFA000
3FF702FF7021
3FF707FF50B0
1EFEACFFDC50
04DE919EC500
ENDCHAR
STARTCHAR acircumflex
ENCODING 226
SWIDTH 526 0
DWIDTH 9 0
BBX 12 13 -1 0
BITMAP
0000002D3000
000004EE8000
00007A32B000
000010001000
0006DFAFF800
008FE48FF500
04FF507FF200
0BFD00AFD000
1FF900DFA000
3FF702FF7021
3FF707FF50B0
1EFEACFFDC50
04DE919EC500
ENDCHAR
STARTCHAR atilde
ENCODING 227
SWIDTH 526 0
DWIDTH 9 0
BBX 12 12 -1 0
BITMAP
00019EFC8820
000447BDB300
000000000000
0006DFAFF800
008FE48FF500
04FF507FF200
0BFD00AFD000
1FF900DFA000
3FF702FF7021
3FF707FF50B0
1EFEACFFDC50
04DE919EC500
ENDCHAR
STARTCHAR adieresis
ENCODING 228
SWIDTH 526 0
DWIDTH 9 0
BBX 12 12 -1 0
BITMAP
00008E34E600
00009F45F800
000001002000
0006DFAFF800
008FE48FF500
04FF507FF200
0BFD00AFD000
1FF900DFA000
3FF702FF7021
3FF707FF50B0
1EFEACFFDC50
04DE919EC500
ENDCHAR
STARTCHAR aring
ENCODING 229
SWIDTH 526 0
DWIDTH 9 0
BBX 12 12 -1 0
BITMAP
000006EC0000
00000AFC0000
000000100000
0006DFAFF800
008FE48FF500
04FF507FF200
0BFD00AFD000
1FF900DFA000
3FF702FF7021
3FF707FF50B0
1EFEACFFDC50
04DE919EC500
ENDCHAR
STARTCHAR ae
ENCODING 230
SWIDTH 650 0
DWIDTH 12 0
BBX 14 9 -1 0
BITMAP
0007DFD88DFC10
005823FFFB3F50
000000DFE13F30
000001FF94EA00
018CEEFFFE7000
0CFE58FF400011
2FF70AFF400190
1FF93EFF924A10
06EFB3AEFC7000
ENDCHAR
STARTCHAR ccedilla
ENCODING 231
SWIDTH 384 0
DWIDTH 7 0
BBX 9 13 -1 -4
BITMAP
0006DFC200
008FE3D800
04FF60D600
0BFE001000
0FFA000000
3FF8000000
3FF7000630
1EFA128700
04CFFD4000
0001B00000
0006EE5000
00132F5000
003AA70000
ENDCHAR
STARTCHAR egrave
ENCODING 232
SWIDTH 384 0
DWIDTH 7 0
BBX 9 13 -1 0
BITMAP
0000EC0000
00009F0000
00004F2000
0000000000
0006DFD300
008FD3D800
04FF31E600
0BFC2CD100
0FFFE91000
3FF8000120
3FF7000910
1EFC239300
04CFD81000
ENDCHAR
STARTCHAR eacute
ENCODING 233
SWIDTH 384 0
DWIDTH 7 0
BBX 9 13 -1 0
BITMAP
0000009F30
000002F800
00000AC000
0000021000
0006DFD300
008FD3D800
04FF31E600
0BFC2CD100
0FFFE91000
3FF8000120
3FF7000910
1EFC239300
04CFD81000
ENDCHAR
STARTCHAR ecircumflex
ENCODING 234
SWIDTH 384 0
DWIDTH 7 0
BBX 9 13 -1 0
BITMAP
000002C400
00003EE900
0005B51C00
0002000100
0006DFD300
008FD3D800
04FF31E600
0BFC2CD100
0FFFE91000
3FF8000120
3FF7000910
1EFC239300
04CFD81000
ENDCHAR
STARTCHAR edieresis
ENCODING 235
SWIDTH 384 0
DWIDTH 7 0
BBX 9 12 -1 0
BITMAP
0009E26E50
000BF37F60
0000100200
0006DFD300
008FD3D800
04FF31E600
0BFC2CD100
0FFFE91000
3FF8000120
3FF7000910
1EFC239300
04CFD81000
ENDCHAR
STARTCHAR igrave
ENCODING 236
SWIDTH 267 0
DWIDTH 5 0
BBX 7 13 -1 0
BITMAP
00CF0000
007F2000
002F5000
00000000
00DFB000
02FF7000
05FF4000
08FF1000
0BFD0000
0EF90120
2FF70A40
1FFECA00
07ED7000
ENDCHAR
STARTCHAR iacute
ENCODING 237
SWIDTH 267 0
DWIDTH 5 0
BBX 7 13 -1 0
BITMAP
00009F30
0003F700
000BB000
00000000
00DFB000
02FF7000
05FF4000
08FF1000
0BFD0000
0EF90120
2FF70A40
1FFECA00
07ED7000
ENDCHAR
STARTCHAR icircumflex
ENCODING 238
SWIDTH 267 0
DWIDTH 5 0
BBX 7 13 -1 0
BITMAP
0001B600
003DEB00
05A40B20
00000000
00DFB000
02FF7000
05FF4000
08FF1000
0BFD0000
0EF90120
2FF70A40
1FFECA00
07ED7000
ENDCHAR
STARTCHAR idieresis
ENCODING 239
SWIDTH 267 0
DWIDTH 5 0
BBX 7 12 -1 0
BITMAP
06E46E50
08F57F60
00200200
00DFB000
02FF7000
05FF4000
08FF1000
0BFD0000
0EF90120
2FF70A40
1FFECA00
07ED7000
ENDCHAR
STARTCHAR eth
ENCODING 240
SWIDTH 526 0
DWIDTH 9 0
BBX 12 14 -1 0
BITMAP
000000120000
000000DE3450
000003AFFB60
00005C8FF300
0000000FF600
0006DFAFF600
008FE48FF500
04FF607FF300
0BFE00AFF000
1FFA00DFC000
3FF801FF9000
3FF704FF6071
1EFA2CFF7470
04DFB4BFD700
ENDCHAR
STARTCHAR ntilde
ENCODING 241
SWIDTH 505 0
DWIDTH 9 0
BBX 11 12 -1 0
BITMAP
0005CFDA8500
002559CB6000
000000000000
00DFDBED3000
01FFC3EFA000
05FF40DFA000
08FF01FF8000
0BFC04FF4000
0EF907FF1040
2FF609FE0480
6FF308FFAD10
9FF001BEB300
ENDCHAR
STARTCHAR ograve
ENCODING 242
SWIDTH 433 0
DWIDTH 8 0
BBX 11 13 -1 0
BITMAP
00009F300000
00004F600000
00000D800000
000000000000
0007DFC20000
009FD3CA0000
05FF40DC1690
0CFD01EE9400
2FF900CA0000
4FF601F70000
5FF506E10000
2FF83E600000
05DFC5000000
ENDCHAR
STARTCHAR oacute
ENCODING 243
SWIDTH 439 0
DWIDTH 8 0
BBX 11 13 -1 0
BITMAP
0000009F4000
000002F80000
000009C00000
000002100000
0006CFC30000
008FE4AB0000
03FF60CE15A0
0AFE10EF9500
0FFA00AC0000
3FF800E90000
3FF704F30000
1EFA2D800000
04CED6000000
ENDCHAR
STARTCHAR ocircumflex
ENCODING 244
SWIDTH 433 0
DWIDTH 8 0
BBX 11 13 -1 0
BITMAP
000003D10000
00005EE60000
0008A33B0000
000100010000
0007DFC20000
009FD3CA0000
05FF40DC1690
0CFD01EE9400
2FF900CA0000
4FF601F70000
5FF506E10000
2FF83E600000
05DFC5000000
ENDCHAR
STARTCHAR otilde
ENCODING 245
SWIDTH 433 0
DWIDTH 8 0
BBX 11 12 -1 0
BITMAP
004CFEA76000
01659DD81000
000000000000
0007DFC20000
009FD3CA0000
05FF40DC1690
0CFD01EE9400
2FF900CA0000
4FF601F70000
5FF506E10000
2FF83E600000
05DFC5000000
ENDCHAR
STARTCHAR odieresis
ENCODING 246
SWIDTH 433 0
DWIDTH 8 0
BBX 11 12 -1 0
BITMAP
000CC09E2000
001EE0BF3000
000110010000
0007DFC20000
009FD3CA0000
05FF40DC1690
0CFD01EE9400
2FF900CA0000
4FF601F70000
5FF506E10000
2FF83E600000
05DFC5000000
ENDCHAR
STARTCHAR divide
ENCODING 247
SWIDTH 415 0
DWIDTH 7 0
BBX 8 9 0 2
BITMAP
0006E900
000BFF00
0004C700
00000000
2EEEEEE3
02222220
005C6000
00DFE000
007E8000
ENDCHAR
STARTCHAR oslash
ENCODING 248
SWIDTH 428 0
DWIDTH 8 0
BBX 11 10 -2 -1
BITMAP
00004CED4C30
0007FE4AF400
003FF609F000
00BFE15FE000
01FFA3DCC000
03FF9D3E8000
03FFF55F2000
01FFB3E60000
00CDEC500000
1B5000000000
ENDCHAR
STARTCHAR ugrave
ENCODING 249
SWIDTH 505 0
DWIDTH 9 0
BBX 11 13 -1 0
BITMAP
00007F500000
00002F700000
00000CA00000
000000000000
00DFB07FF200
02FF70AFE000
05FF40DFB000
08FF11FF8000
0BFD04FF4000
0EF908FF1030
2FF81DFE0480
1FFEDCFFCD10
07ED62CEA200
ENDCHAR
STARTCHAR uacute
ENCODING 250
SWIDTH 505 0
DWIDTH 9 0
BBX 11 13 -1 0
BITMAP
0000005F7000
000000DB0000
000006E20000
000000000000
00DFB07FF200
02FF70AFE000
05FF40DFB000
08FF11FF8000
0BFD04FF4000
0EF908FF1030
2FF81DFE0480
1FFEDCFFCD10
07ED62CEA200
ENDCHAR
STARTCHAR ucircumflex
ENCODING 251
SWIDTH 505 0
DWIDTH 9 0
BBX 11 13 -1 0
BITMAP
0000008A0000
00001BEE1000
0003B6075000
000000000000
00DFB07FF200
02FF70AFE000
05FF40DFB000
08FF11FF8000
0BFD04FF4000
0EF908FF1030
2FF81DFE0480
1FFEDCFFCD10
07ED62CEA200
ENDCHAR
STARTCHAR udieresis
ENCODING 252
SWIDTH 505 0
DWIDTH 9 0
BBX 11 12 -1 0
BITMAP
0005E62E9000
0006F73FB000
000020010000
00DFB07FF200
02FF70AFE000
05FF40DFB000
08FF11FF8000
0BFD04FF4000
0EF908FF1030
2FF81DFE0480
1FFEDCFFCD10
07ED62CEA200
ENDCHAR
STARTCHAR yacute
ENCODING 253
SWIDTH 505 0
DWIDTH 9 0
BBX 11 17 -1 -4
BITMAP
0000005F7000
000000DB0000
000007E10000
000000000000
00DFB07FF200
02FF70AFE000
05FF40DFB000
08FF11FF8000
0BFD05FF4000
0EF908FF1120
2FF81EFD0920
1FFEDFFA5800
07ED9FFC6000
0029EFF30000
00C4AFE00000
02E7FF800000
009EE8000000
ENDCHAR
STARTCHAR thorn
ENCODING 254
SWIDTH 473 0
DWIDTH 9 0
BBX 10 19 -2 -5
BITMAP
0000133000
0000EF9000
0003FF5000
0006FF2000
000AFD0000
000DFCBED3
001FFB2CFB
004FF408FE
008FF108FE
00BFD00AFC
00EF901EF8
02FF606FF2
06FF65EF70
09FFBEC500
0CFC000000
1FF8000000
4FF5000000
7FD2000000
2100000000
ENDCHAR
STARTCHAR ydieresis
ENCODING 255
SWIDTH 505 0
DWIDTH 9 0
BBX 11 16 -1 -4
BITMAP
0008E35E6000
0009F46F7000
000010020000
00DFB07FF200
02FF70AFE000
05FF40DFB000
08FF11FF8000
0BFD05FF4000
0EF908FF1120
2FF81EFD0920
1FFEDFFA5800
07ED9FFC6000
0029EFF30000
00C4AFE00000
02E7FF800000
009EE8000000
ENDCHAR
STARTCHAR Amacron
ENCODING 256
SWIDTH 668 0
DWIDTH 12 0
BBX 14 18 0 -2
BITMAP
00000000CEEEEE
00000000222222
00000000000000
0000000029EE40
00000003CAFF30
0000003D3AFE00
000002E60DFB00
00000CC01FF800
07CEEFC66FF400
9F84FD36DFF100
BF39F600BFD000
022FE100EF9000
008FA003FF6000
00EF5006FF3000
03FF100AFE0000
06FD000DFB0000
07FB0000000000
01CB0000000000
ENDCHAR
STARTCHAR amacron
ENCODING 257
SWIDTH 526 0
DWIDTH 9 0
BBX 12 12 -1 0
BITMAP
0000EFFFFD00
000011111100
000000000000
0006DFAFF800
008FE48FF500
04FF507FF200
0BFD00AFD000
1FF900DFA000
3FF702FF7021
3FF707FF50B0
1EFEACFFDC50
04DE919EC500
ENDCHAR
STARTCHAR Abreve
ENCODING 258
SWIDTH 668 0
DWIDTH 12 0
BBX 15 19 0 -2
BITMAP
00000000AF000DB0
000000006F618F30
0000000008EEB300
0000000000000000
0000000029EE4000
00000003CAFF3000
0000003D3AFE0000
000002E60DFB0000
00000CC01FF80000
07CEEFC66FF40000
9F84FD36DFF10000
BF39F600BFD00000
022FE100EF900000
008FA003FF600000
00EF5006FF300000
03FF100AFE000000
06FD000DFB000000
07FB000000000000
01CB000000000000
ENDCHAR
STARTCHAR abreve
ENCODING 259
SWIDTH 526 0
DWIDTH 9 0
BBX 12 13 -1 0
BITMAP
0003F802AE10
00007DED9200
000000000000
000000000000
0006DFAFF800
008FE48FF500
04FF507FF200
0BFD00AFD000
1FF900DFA000
3FF702FF7021
3FF707FF50B0
1EFEACFFDC50
04DE919EC500
ENDCHAR
STARTCHAR Aogonek
ENCODING 260
SWIDTH 668 0
DWIDTH 12 0
BBX 13 17 0 -4
BITMAP
0000000029EE40
00000003CAFF30
0000003D3AFE00
000002E60DFB00
00000CC01FF800
07CEEFC66FF400
9F84FC36DFF100
BF39F600BFD000
022FE000EF9000
009F9003FF6000
00EF4006FF3000
04FF100AFE0000
06FC000DFB0000
06FB000B600000
0088006F230000
0000004FE60000
00000001100000
ENDCHAR
STARTCHAR aogonek
ENCODING 261
SWIDTH 526 0
DWIDTH 9 0
BBX 12 13 -1 -4
BITMAP
0006DFAFF800
008FE48FF500
04FF607FF200
0BFE00AFE000
1FFA00DFB000
3FF801FF8000
3FF704FF5081
1EFA2CFF7460
04DFB3BFE600
0000003D2000
000000BC0300
0000008FD300
000000010000
ENDCHAR
STARTCHAR Cacute
ENCODING 262
SWIDTH 497 0
DWIDTH 9 0
BBX 10 18 0 0
BITMAP
00000008F4
0000001EA0
0000007E10
0000006400
0000000000
00018DFD80
001DFD43E6
00BFF300E9
05FF9005F6
0CFF300020
2FFD000000
6FFA000000
8FF7000000
9FF6000000
9FF5000000
7FF8000042
2EFE523970
03BEFD9300
ENDCHAR
STARTCHAR cacute
ENCODING 263
SWIDTH 384 0
DWIDTH 7 0
BBX 9 13 -1 0
BITMAP
0000003F90
000000BD10
000004F300
0000012000
0006DFC200
008FE3D800
04FF60D600
0BFE001000
0FFA000000
3FF8000000
3FF7000730
1EFB239500
04CFD92000
ENDCHAR
STARTCHAR Ccircumflex
ENCODING 264
SWIDTH 497 0
DWIDTH 9 0
BBX 10 18 0 0
BITMAP
0000003D00
000004EF40
00005D7790
0001610050
0000000000
00018DFD80
001DFD43E6
00BFF300E9
05FF9005F6
0CFF300020
2FFD000000
6FFA000000
8FF7000000
9FF6000000
9FF5000000
7FF8000042
2EFE523970
03BEFD9300
ENDCHAR
STARTCHAR ccircumflex
ENCODING 265
SWIDTH 384 0
DWIDTH 7 0
BBX 9 13 -1 0
BITMAP
000001C400
00003DEA00
0005B51C00
0002000100
0006DFC200
008FE3D800
04FF60D600
0BFE001000
0FFA000000
3FF8000000
3FF7000730
1EFB239500
04CFD92000
ENDCHAR
STARTCHAR Cdotaccent
ENCODING 266
SWIDTH 497 0
DWIDTH 9 0
BBX 10 18 0 0
BITMAP
0000001AB1
0000005FF6
0000002DD2
0000000000
0000000000
00018DFD80
001DFD43E6
00BFF300E9
05FF9005F6
0CFF300020
2FFD000000
6FFA000000
8FF7000000
9FF6000000
9FF5000000
7FF8000042
2EFE523970
03BEFD9300
ENDCHAR
STARTCHAR cdotaccent
ENCODING 267
SWIDTH 384 0
DWIDTH 7 0
BBX 9 13 -1 0
BITMAP
00000AE500
00001FFB00
000008C400
0000000000
0006DFC200
008FE3D800
04FF60D600
0BFE001000
0FFA000000
3FF8000000
3FF7000730
1EFB239500
04CFD92000
ENDCHAR
STARTCHAR Ccaron
ENCODING 268
SWIDTH 497 0
DWIDTH 9 0
BBX 11 18 0 0
BITMAP
000009305B20
000004DCC100
000000EB1000
000000500000
000000000000
00018DFD8000
001DFD43E600
00BFF300E900
05FF9005F600
0CFF30002000
2FFD00000000
6FFA00000000
8FF700000000
9FF600000000
9FF500000000
7FF800004200
2EFE52397000
03BEFD930000
ENDCHAR
STARTCHAR ccaron
ENCODING 269
SWIDTH 384 0
DWIDTH 7 0
BBX 10 13 -1 0
BITMAP
00004804A4
00000ECD20
000009B100
0000010000
0006DFD300
008FD3D800
04FF50C500
0BFE000000
0FFA000000
3FF7000110
3FF7001A10
1EFE89C300
04CFD91000
ENDCHAR
STARTCHAR Dcaron
ENCODING 270
SWIDTH 663 0
DWIDTH 12 0
BBX 12 18 0 0
BITMAP
000007504B30
000002EBD200
000000DC2000
000000410000
000000000000
0005ADFEB500
02CD7324DF70
1DC1BEA04FF2
9F32FF700FF7
DD06FF300DF9
BC09FF000EF8
150DFC001FF7
001FF8004FF4
004FF5008FE0
008FF200DF80
00BFD006FE10
00EFC25EF500
03FFACFC4000
ENDCHAR
STARTCHAR dcaron
ENCODING 271
SWIDTH 525 0
DWIDTH 9 0
BBX 14 13 -1 0
BITMAP
00000000000AE2
00000004CE49F2
00000008FF1780
0000000CFD0300
0006DFAFFA0000
008FE48FF60000
04FF607FF30000
0BFE00AFF00000
1FFA00DFC00000
3FF801FF900000
3FF704FF607100
1EFA2CFF647000
04DFB4BFD60000
ENDCHAR
STARTCHAR Dcroat
ENCODING 272
SWIDTH 663 0
DWIDTH 12 0
BBX 12 13 0 0
BITMAP
0016BEFEB500
05EC6443BF90
5F90EF902FF3
CE04FF500EF8
BC08FF100DF9
157FFFE20EF8
002FF9201FF7
004FF5004FF3
007FF3008FE0
009FF000DF80
00CFC006FE20
00FFC25EF500
03FFACFD5000
ENDCHAR
STARTCHAR dcroat
ENCODING 273
SWIDTH 525 0
DWIDTH 9 0
BBX 12 13 -1 0
BITMAP
000000014630
00000006FF20
000003EFFFE5
0000012DFC20
0006DFAFF900
008FE48FF600
04FF607FF300
0BFE00AFE000
1FFA00DFB000
3FF801FF8000
3FF704FF5071
1EFA2CFF6470
04DFB4BFD600
ENDCHAR
STARTCHAR Emacron
ENCODING 274
SWIDTH 459 0
DWIDTH 8 0
BBX 10 17 0 0
BITMAP
0000CEEEEE
0000222222
0000000000
0000000000
00018DEB20
000CF82BB0
006FD00AC0
009FB01C40
007FE10000
001DFB1000
04EFB10000
2EFD100000
9FF7000000
CFF4000040
CFF9002A30
7FFFEEE500
07DED92000
ENDCHAR
STARTCHAR emacron
ENCODING 275
SWIDTH 384 0
DWIDTH 7 0
BBX 9 12 -1 0
BITMAP
006FFFFF50
0011111100
0000000000
0006DFD300
008FD3D800
04FF31E600
0BFC2CD100
0FFFE91000
3FF8000120
3FF7000910
1EFC239300
04CFD81000
ENDCHAR
STARTCHAR Ebreve
ENCODING 276
SWIDTH 459 0
DWIDTH 8 0
BBX 11 17 0 0
BITMAP
0000DC117F40
00004CEEB400
000000000000
000000000000
00018DEB2000
000CF82BB000
006FD00AC000
009FB01C4000
007FE1000000
001DFB100000
04EFB1000000
2EFD10000000
9FF700000000
CFF400004000
CFF9002A3000
7FFFEEE50000
07DED9200000
ENDCHAR
STARTCHAR ebreve
ENCODING 277
SWIDTH 384 0
DWIDTH 7 0
BBX 9 13 -1 0
BITMAP
009F304E90
001AEEC600
0000000000
0000000000
0006DFD300
008FD3D800
04FF31E600
0BFC2CD100
0FFFE91000
3FF8000120
3FF7000910
1EFC239300
04CFD81000
ENDCHAR
STARTCHAR Edotaccent
ENCODING 278
SWIDTH 459 0
DWIDTH 8 0
BBX 9 18 0 0
BITMAP
0000009C30
000002FF90
000000BE40
0000000000
0000000000
00018DEB20
000CF82BB0
006FD00AC0
009FB01C40
007FE10000
001DFB1000
04EFB10000
2EFD100000
9FF7000000
CFF4000040
CFF9002A30
7FFFEEE500
07DED92000
ENDCHAR
STARTCHAR edotaccent
ENCODING 279
SWIDTH 384 0
DWIDTH 7 0
BBX 9 13 -1 0
BITMAP
00000BE400
00002FFA00
000009C300
0000000000
0006DFD300
008FD3D800
04FF31E600
0BFC2CD100
0FFFE91000
3FF8000120
3FF7000910
1EFC239300
04CFD81000
ENDCHAR
STARTCHAR Eogonek
ENCODING 280
SWIDTH 459 0
DWIDTH 8 0
BBX 9 17 0 -4
BITMAP
0007DFE910
00AFD42CB0
03FF4009E0
04FF301EB0
01EF900100
004EF91000
02BFE61000
2EFE300000
9FF8000000
BFF6000000
AFFB000370
3FFFC8AA00
04BEEF7000
0000690000
0000E91200
0000BFB100
0000010000
ENDCHAR
STARTCHAR eogonek
ENCODING 281
SWIDTH 384 0
DWIDTH 7 0
BBX 9 13 -1 -4
BITMAP
0006DFD300
008FD3D800
04FF31E600
0BFC2CD100
0FFFE91000
3FF8000220
3FF8002A10
1EFE9AB200
04CFF90000
0004B00000
000CB02000
0009FC2000
0000100000
ENDCHAR
STARTCHAR Ecaron
ENCODING 282
SWIDTH 459 0
DWIDTH 8 0
BBX 11 18 0 0
BITMAP
000007504B30
000002EBD200
000000DC2000
000000410000
000000000000
00018DEB2000
000CF82BB000
006FD00AC000
009FB01C4000
007FE1000000
001DFB100000
04EFB1000000
2EFD10000000
9FF700000000
CFF400004000
CFF9002A3000
7FFFEEE50000
07DED9200000
ENDCHAR
STARTCHAR ecaron
ENCODING 283
SWIDTH 384 0
DWIDTH 7 0
BBX 10 13 -1 0
BITMAP
00005704A3
00001ECC20
00000AA100
0000010000
0006DFD300
008FD3D800
04FF31E600
0BFC2CB000
0FFEB60000
3FF7000230
3FF7001900
1EFC239200
04CED81000
ENDCHAR
STARTCHAR Gcircumflex
ENCODING 284
SWIDTH 578 0
DWIDTH 10 0
BBX 11 22 0 -4
BITMAP
00000003B000
0000003EF100
000003EAB500
00002A302800
000000000000
00028CEEC500
006EFB42AF20
05FFA001CC10
1EFE10000000
6FF800000000
9FF40007FB00
9FF2000BF700
7FF3003FF400
2EFA12DFF100
04DFFBAFD000
000100BF9000
000100EF6000
01CFD4FF1000
0AE228FA0000
0AD12EF30000
02CFFD400000
000110000000
ENDCHAR
STARTCHAR gcircumflex
ENCODING 285
SWIDTH 507 0
DWIDTH 9 0
BBX 11 17 -1 -4
BITMAP
0000002D3000
000004EE8000
00007A32B000
000010001000
0006DFAFF800
008FE48FF500
04FF507FF100
0BFD00BFD000
1FF900EFA000
3FF702FF7040
3FF809FF3480
1EFFEFFF2A10
04DE9DFE8100
0007DFF80000
008A5FF50000
00C5AFD00000
004DEB200000
ENDCHAR
STARTCHAR Gbreve
ENCODING 286
SWIDTH 578 0
DWIDTH 10 0
BBX 12 21 0 -4
BITMAP
00000DD116F5
000004CEDB50
000000000000
000000000000
00028CEEB300
006EFB42BE10
05FFA0009F30
1EFE1001DB00
6FF800000000
9FF400026500
9FF20009F900
7FF3002EF600
2EFA12CFF200
04DFFBAFE000
000100BFA000
000100EF7000
01CFD4FF2000
0AE228FC0000
0AD12EF30000
02CFFD400000
000110000000
ENDCHAR
STARTCHAR gbreve
ENCODING 287
SWIDTH 507 0
DWIDTH 9 0
BBX 11 17 -1 -4
BITMAP
0003F802AE10
00007DED9200
000000000000
000000000000
0006DFAFF800
008FE48FF500
04FF507FF100
0BFD00BFD000
1FF900EFA000
3FF702FF7040
3FF809FF3480
1EFFEFFF2A10
04DE9DFE8100
0007DFF80000
008A5FF50000
00C5AFD00000
004DEB200000
ENDCHAR
STARTCHAR Gdotaccent
ENCODING 288
SWIDTH 578 0
DWIDTH 10 0
BBX 11 22 0 -4
BITMAP
0000006C5000
000000DFD000
0000008E7000
000000000000
000000000000
00028CEEB300
006EFB42BE10
05FFA0009F30
1EFE1001DB00
6FF800000000
9FF400026500
9FF20009F900
7FF3002EF600
2EFA12CFF200
04DFFBAFE000
000100BFA000
000100EF7000
01CFD4FF2000
0AE228FC0000
0AD12EF30000
02CFFD400000
000110000000
ENDCHAR
STARTCHAR gdotaccent
ENCODING 289
SWIDTH 507 0
DWIDTH 9 0
BBX 11 17 -1 -4
BITMAP
000001CE3000
000004FF8000
000000AB2000
000000000000
0006DFAFF800
008FE48FF500
04FF507FF100
0BFD00BFD000
1FF900EFA000
3FF702FF7040
3FF809FF3480
1EFFEFFF2A10
04DE9DFE8100
0007DFF80000
008A5FF50000
00C5AFD00000
004DEB200000
ENDCHAR
STARTCHAR Gcommaaccent
ENCODING 290
SWIDTH 578 0
DWIDTH 10 0
BBX 10 18 0 -5
BITMAP
00017DFD70
001CFC38F4
01CFE106F6
08FF600891
1FFE000000
6FF9000000
AFF50009F8
CFF3000CF5
DFF2001FF2
CFF2006FE0
9FF501DFA0
2FFB2AFF70
04CFD7FF40
0000000000
0003E60000
0002E70000
0001A10000
0001100000
ENDCHAR
STARTCHAR gcommaaccent
ENCODING 291
SWIDTH 507 0
DWIDTH 9 0
BBX 11 18 -1 -4
BITMAP
000000250000
000000D30000
000003F90000
000000630000
000000000000
0006DFAFF800
008FE48FF500
04FF507FF100
0BFD00BFD000
1FF900EFA000
3FF702FF7040
3FF809FF3480
1EFFEFFF2A10
04DE9DFE8100
0007DFF80000
008A5FF50000
00C5AFD00000
004DEB200000
ENDCHAR
STARTCHAR Hcircumflex
ENCODING 292
SWIDTH 665 0
DWIDTH 12 0
BBX 13 18 0 0
BITMAP
00000000033000
000000006F9000
00000019C6D100
00000053003200
00000000000000
0005ADF203FF60
02C5BFE007FF20
1E70EFA00AFE00
9F13FF700EFB00
BE06FF413FF700
4C09FFFFFFF400
000CFC44AFF100
001FF800CFD000
004FF500FF9000
007FF203FF6000
00AFE006FF3000
00DFB00AFE0000
01FF700DFB0000
ENDCHAR
STARTCHAR hcircumflex
ENCODING 293
SWIDTH 505 0
DWIDTH 9 0
BBX 11 16 -1 0
BITMAP
00001B600000
0003DDC00000
005A40A20000
000353000000
003FF6000000
006FF2000000
00AFD0000000
00DFDBEC2000
01FFC3EF9000
04FF40DFA000
08FF01FF8000
0BFC04FF5000
0EF907FF2000
2FF609FE0190
5FF308FE2920
9FF001BEC400
ENDCHAR
STARTCHAR Hbar
ENCODING 294
SWIDTH 665 0
DWIDTH 12 0
BBX 14 13 0 0
BITMAP
0005ADF203FF60
02CACFE007FF20
2EA0DFA00AFE00
9F2DFFEDDFFFD3
BE05FF302FF700
4B08FFEEEFF400
000CFC22AFF100
000FF800CFC000
003FF501FF9000
007FF203FF6000
00AFE007FF3000
00DFB00AFE0000
01FF700DFB0000
ENDCHAR
STARTCHAR hbar
ENCODING 295
SWIDTH 505 0
DWIDTH 9 0
BBX 11 13 -1 0
BITMAP
000464000000
003FF5000000
0AFFFFD00000
01AFE2100000
00DFDBED3000
01FFC3EFA000
04FF40DFA000
07FF01FF7000
0BFC04FF4000
0EF907FF0050
2FF609FE0670
5FF308FFED10
9FF001BEB200
ENDCHAR
STARTCHAR Itilde
ENCODING 296
SWIDTH 375 0
DWIDTH 7 0
BBX 10 17 0 0
BITMAP
0001575212
002DFFFFD2
0021257610
0000000000
0005ADF100
02C8DFC000
2E81FF9000
AF14FF6000
DD07FF2000
8C0AFE0000
010DFB0000
002FF70000
005FF40000
008FF10000
00CFC00000
00FF900000
03FF600000
ENDCHAR
STARTCHAR itilde
ENCODING 297
SWIDTH 267 0
DWIDTH 5 0
BBX 7 12 -1 0
BITMAP
02CEB820
035AC600
00000000
00DFB000
02FF7000
05FF4000
08FF1000
0BFD0000
0EF90120
2FF70A40
1FFECA00
07ED7000
ENDCHAR
STARTCHAR Imacron
ENCODING 298
SWIDTH 375 0
DWIDTH 7 0
BBX 9 16 0 0
BITMAP
001EEEEEA0
0002222210
0000000000
0005ADF100
02C8DFC000
2E81FF9000
AF14FF6000
DD07FF2000
8C0AFE0000
010DFB0000
002FF70000
005FF40000
008FF10000
00CFC00000
00FF900000
03FF600000
ENDCHAR
STARTCHAR imacron
ENCODING 299
SWIDTH 267 0
DWIDTH 5 0
BBX 7 12 -1 0
BITMAP
07FFFF40
01111100
00000000
00DFB000
02FF7000
05FF4000
08FF1000
0BFD0000
0EF90120
2FF70A40
1FFECA00
07ED7000
ENDCHAR
STARTCHAR Ibreve
ENCODING 300
SWIDTH 375 0
DWIDTH 7 0
BBX 10 17 0 0
BITMAP
000CC001F8
0009F41AE1
0001AEEA20
0000000000
0005ADF100
02C8DFC000
2E81FF9000
AF14FF6000
DD07FF2000
8C0AFE0000
010DFB0000
002FF70000
005FF40000
008FF10000
00CFC00000
00FF900000
03FF600000
ENDCHAR
STARTCHAR ibreve
ENCODING 301
SWIDTH 267 0
DWIDTH 5 0
BBX 7 13 -1 0
BITMAP
05F31AB0
00AEE910
00000000
00000000
00DFB000
02FF7000
05FF4000
08FF1000
0BFD0000
0EF90120
2FF70A40
1FFECA00
07ED7000
ENDCHAR
STARTCHAR Iogonek
ENCODING 302
SWIDTH 375 0
DWIDTH 7 0
BBX 8 23 0 -5
BITMAP
000BF100
0006F300
0001F600
00000000
00000000
0005ADF1
02CBDFC0
2EA0EF90
AF13FF60
DD06FF20
8C0AFE00
010DFB00
001FF700
005FF400
008FF100
00BFC000
00EF9000
03FF6000
03C10000
0B900000
0DB06000
07FE7000
00100000
ENDCHAR
STARTCHAR iogonek
ENCODING 303
SWIDTH 267 0
DWIDTH 5 0
BBX 7 17 -1 -5
BITMAP
002DD200
006FF600
001BB100
00DFB000
02FF7000
05FF4000
08FF1000
0BFD0000
0EF90120
2FF70A40
1FFECA00
08FD7000
2D200000
9C000000
BD152000
5FF90000
01100000
ENDCHAR
STARTCHAR Idotaccent
ENCODING 304
SWIDTH 375 0
DWIDTH 7 0
BBX 8 17 0 0
BITMAP
000009E6
00000EFC
000007C5
00000000
0005ADF1
02C8DFC0
2E81FF90
AF14FF60
DD07FF20
8C0AFE00
010DFB00
002FF700
005FF400
008FF100
00CFC000
00FF9000
03FF6000
ENDCHAR
STARTCHAR dotlessi
ENCODING 305
SWIDTH 267 0
DWIDTH 5 0
BBX 7 9 -1 0
BITMAP
00DFB000
02FF7000
05FF4000
08FF1000
0BFD0000
0EF90120
2FF70A40
1FFECA00
07ED7000
ENDCHAR
STARTCHAR IJ
ENCODING 306
SWIDTH 663 0
DWIDTH 12 0
BBX 12 17 0 -4
BITMAP
0005ADE105AD
02CBDFC00CFC
2EA0EF901FF8
AF13FF604FF5
DD06FF208FF1
8C0AFE00BFD0
010DFB00FFA0
001FF704FF60
005FF407FF30
008FF10BFE00
00BFC00EFB00
00EF903FF800
03FFE76FF300
00DB12AFD000
00DB04FF4000
004DFFD50000
000011000000
ENDCHAR
STARTCHAR ij
ENCODING 307
SWIDTH 507 0
DWIDTH 9 0
BBX 11 16 -1 -4
BITMAP
002DD205EA00
006FF60BFF10
001BB104C800
00DFB01FF800
02FF704FF500
05FF408FF100
08FF10BFD000
0BFD00EFA000
0EF902FF7030
2FF706FF4380
1FFE79FF2A10
07ED4DFE8100
0008EFF80000
00885FF50000
00C9CFD00000
004DEB200000
ENDCHAR
STARTCHAR Jcircumflex
ENCODING 308
SWIDTH 536 0
DWIDTH 10 0
BBX 12 22 0 -4
BITMAP
000000000790
000000008FD0
0000000AB4C3
000000440023
000000000000
00000039DF40
00001ADBFF10
0000BD1BFD00
0006F50EF900
0009F23FF600
0005F17FF200
000011AFE000
000000EFB000
000003FF7000
000006FF4000
00000AFF1000
00100DFC0000
2CFE4FF80000
9E227FF30000
9E21CF900000
2CFFE8000000
001100000000
ENDCHAR
STARTCHAR jcircumflex
ENCODING 309
SWIDTH 240 0
DWIDTH 4 0
BBX 9 17 -4 -4
BITMAP
0000002D30
000005EE80
00007931B0
0000000000
00000DFB00
00001FF800
00005FF400
00008FF100
0000BFD000
0000EFA030
0003FF61A0
0006FF4920
000AFF9200
06EFFB0000
6C3FF80000
988FF20000
3CEC400000
ENDCHAR
STARTCHAR Kcommaaccent
ENCODING 310
SWIDTH 601 0
DWIDTH 11 0
BBX 12 18 0 -5
BITMAP
0006BEE106F7
03D9DFC04F70
3F80FF82E800
BE03FF5D8000
CC07FFC80000
380AFFEDB300
000DF90BFB00
001FF60AFC00
005FF30CF900
008FF01FF600
00BFC05FF200
00EF908FF000
03FF605EF300
000000000000
00005E400000
00003F500000
00003B000000
000010000000
ENDCHAR
STARTCHAR kcommaaccent
ENCODING 311
SWIDTH 518 0
DWIDTH 9 0
BBX 11 18 -1 -5
BITMAP
000464000000
003FF6000000
007FF2000000
00AFE0000000
00DFB02CB100
01FF84D60000
04FFBFA40000
08FFFFFF3000
0BFE34FF6000
0EFA04FF5020
2FF707FF21B0
6FF306FFCD40
9FF001BED500
000000000000
0005E4000000
0003F4000000
0003A0000000
000100000000
ENDCHAR
STARTCHAR kgreenlandic
ENCODING 312
SWIDTH 518 0
DWIDTH 9 0
BBX 11 9 -1 0
BITMAP
00DFB02CB100
01FF84D60000
05FFBFA40000
08FFFFFF3000
0BFE34FF6000
0EFA04FF5020
2FF707FF21B0
6FF306FFCD40
9FF001BED500
ENDCHAR
STARTCHAR Lacute
ENCODING 313
SWIDTH 379 0
DWIDTH 7 0
BBX 12 22 0 -4
BITMAP
0000002FA000
000000AD1000
000004F30000
000000000000
000000000000
0005AEF10000
02CADFC00000
2E90FF900000
AF13FF500000
DD07FF200000
7C0AFE000000
000DFA000000
002FF7000000
005FF3000000
009FF0000000
00CFC0000000
01FF80000000
04FFC5100000
0015CFE83000
000007FFFEDC
0000003DFFF9
000000018ED2
ENDCHAR
STARTCHAR lacute
ENCODING 314
SWIDTH 267 0
DWIDTH 5 0
BBX 8 17 -1 0
BITMAP
00000582
00001EA0
00009D10
00007300
00046400
004FF500
007FF200
00AFE000
00DFB000
01FF8000
05FF5000
08FF1000
0BFD0000
0EFA0230
2FF70920
1FFC9900
07ED7000
ENDCHAR
STARTCHAR Lcommaaccent
ENCODING 315
SWIDTH 379 0
DWIDTH 7 0
BBX 12 17 0 -4
BITMAP
0005AEF10000
02CADFC00000
2E90FF900000
AF13FF500000
DD07FF200000
7C0AFE000000
000DFA000000
002FF7000000
005FF3000000
009FF0000000
00CFC0000000
01FF80000000
04FFC5100000
0165CFE83000
07F507FFFEDC
01F2003DFFF9
055000018ED2
ENDCHAR
STARTCHAR lcommaaccent
ENCODING 316
SWIDTH 267 0
DWIDTH 5 0
BBX 7 18 -1 -5
BITMAP
00179500
004FF500
007FF200
00AFE000
00EFB000
02FF8000
05FF4000
08FF1000
0BFD0000
0EFA0230
2FF70920
1FFC9900
07ED7000
00000000
0CC00000
0AD00000
09400000
01000000
ENDCHAR
STARTCHAR Lcaron
ENCODING 317
SWIDTH 379 0
DWIDTH 7 0
BBX 12 22 0 -4
BITMAP
00000A217910
000005EE8000
000000D40000
000000000000
000000000000
0005AEF10000
02CADFC00000
2E90FF900000
AF13FF500000
DD07FF200000
7C0AFE000000
000DFA000000
002FF7000000
005FF3000000
009FF0000000
00CFC0000000
01FF80000000
04FFC5100000
0015CFE83000
000007FFFEDC
0000003DFFF9
000000018ED2
ENDCHAR
STARTCHAR lcaron
ENCODING 318
SWIDTH 267 0
DWIDTH 5 0
BBX 9 13 -1 0
BITMAP
000000BE10
001AC6AF20
005FF45B00
008FF16100
00CFC00000
00FF900000
04FF500000
07FF200000
0AFE000000
0EFA001000
1FF7094000
1FFEBA0000
07ED800000
ENDCHAR
STARTCHAR Ldot
ENCODING 319
SWIDTH 605 0
DWIDTH 11 0
BBX 12 17 0 -4
BITMAP
0005AEF10000
02CBDFC00000
2E90EF900000
AF13FF500000
DD07FF200000
7C0AFE000000
000DFA000000
002FF705E900
005FF30BFF10
009FF004C700
00CFC0000000
01FF80000000
04FFB5000000
0015CFE83000
000007FFFEDC
0000003DFFF9
000000018ED2
ENDCHAR
STARTCHAR ldot
ENCODING 320
SWIDTH 353 0
DWIDTH 6 0
BBX 8 13 -1 0
BITMAP
00035300
003FF600
006FF200
00AFE000
00DFB000
01FF7110
05FF4DE1
08FF1CD1
0BFD0000
0EF90000
2FF80000
1FFF9000
07EC2000
ENDCHAR
STARTCHAR Lslash
ENCODING 321
SWIDTH 392 0
DWIDTH 7 0
BBX 12 17 0 -4
BITMAP
0005AEE10000
02CADFC00000
2E90EF900000
AF13FF632000
DD06FFCC1000
7C0AFE500000
001DFB000000
03DFF7000000
015FF4000000
008FF1000000
00CFC0000000
01FF80000000
04FFC5100000
0015CFE83000
000007FFFFDC
0000003DFFF9
000000018ED2
ENDCHAR
STARTCHAR lslash
ENCODING 322
SWIDTH 286 0
DWIDTH 5 0
BBX 7 13 -1 0
BITMAP
00179500
004FF500
007FF200
00AFD160
00EFED60
02FFB200
08FF4000
8EFF1000
1CFD0000
0FFA0230
2FF70920
1FFD9900
07ED7000
ENDCHAR
STARTCHAR Nacute
ENCODING 323
SWIDTH 702 0
DWIDTH 13 0
BBX 13 18 0 0
BITMAP
00000000004820
0000000001EB00
0000000008E100
00000000073000
00000000000000
0039DFD1000EC0
06E6CFF4002F90
4F70EFF8005F50
BF13FFFB009F20
DE06FEFF00CE00
9F0AF7FF30FA00
041DE1FF73F700
002FA0DFA6F300
005F709FEAF000
008F305FFEC000
00CE002FFF8000
00FB000DFF5000
03F70009FF1000
ENDCHAR
STARTCHAR nacute
ENCODING 324
SWIDTH 505 0
DWIDTH 9 0
BBX 11 13 -1 0
BITMAP
0000000DD100
0000006F3000
000001E70000
000000000000
00DFDBED3000
01FFC3EFA000
05FF40DFA000
08FF01FF8000
0BFC04FF4000
0EF907FF1040
2FF609FE0480
6FF308FFAD10
9FF001BEB300
ENDCHAR
STARTCHAR Ncommaaccent
ENCODING 325
SWIDTH 668 0
DWIDTH 12 0
BBX 13 18 0 -5
BITMAP
0039DFD1000EC0
06E6CFF4002F90
4F70EFF8005F50
BF13FFFB009F20
DE06FEFF00CE00
9F0AF7FF30FA00
041DE1FF73F700
002FA0DFA6F300
005F709FEAF000
008F305FFEC000
00CE002FFF8000
00FB000DFF5000
03F70009FF1000
00000000000000
00006E30000000
00004F40000000
00003900000000
00001000000000
ENDCHAR
STARTCHAR ncommaaccent
ENCODING 326
SWIDTH 505 0
DWIDTH 9 0
BBX 11 14 -1 -5
BITMAP
00DFDBEC2000
01FFC3EF9000
05FF40DFA000
08FF01FF8000
0BFC04FF5000
0EF907FF2000
2FF609FE0190
6FF308FE2920
9FF001BEC400
000000000000
000DB0000000
000BC0000000
000930000000
000100000000
ENDCHAR
STARTCHAR Ncaron
ENCODING 327
SWIDTH 668 0
DWIDTH 12 0
BBX 13 18 0 0
BITMAP
00000000500260
00000000B79C20
000000005F9100
00000000150000
00000000000000
0039DFD1000EC0
06E6CFF4002F90
4F70EFF8005F50
BF13FFFB009F20
DE06FEFF00CE00
9F0AF7FF30FA00
041DE1FF73F700
002FA0DFA6F300
005F709FEAF000
008F305FFEC000
00CE002FFF8000
00FB000DFF5000
03F70009FF1000
ENDCHAR
STARTCHAR ncaron
ENCODING 328
SWIDTH 505 0
DWIDTH 9 0
BBX 11 13 -1 0
BITMAP
00009317A100
00004EE90000
00000D500000
000000000000
00DFDBEC2000
01FFC3EF9000
05FF40DFA000
08FF01FF8000
0BFC04FF5000
0EF907FF2000
2FF609FE0190
6FF308FE2920
9FF001BEC400
ENDCHAR
STARTCHAR napostrophe
ENCODING 329
SWIDTH 505 0
DWIDTH 9 0
BBX 11 13 -1 0
BITMAP
03EA00000000
01DB00000000
01C300000000
001000000000
00DFDBEC2000
01FFC3EF9000
05FF40DFA000
08FF01FF8000
0BFC04FF5000
0EF907FF2000
2FF609FE0190
6FF308FE2920
9FF001BEC400
ENDCHAR
STARTCHAR Eng
ENCODING 330
SWIDTH 723 0
DWIDTH 13 0
BBX 14 17 0 -4
BITMAP
0004ADFC0000FB
008F9DFF3003F8
06F61FFF6007F5
0DD04FFF900AF1
1FB08FEFD00ED0
0CC0BE7FF12F90
0151FB3FF45F60
0004F70EF89F20
0007F40AFBCE00
000BF105FEFB00
000EC001FFF700
003F8000CFF400
006F40008FE000
00004B207FA000
0000AE10CF4000
00008E15F90000
000019DD700000
ENDCHAR
STARTCHAR eng
ENCODING 331
SWIDTH 505 0
DWIDTH 9 0
BBX 9 13 -1 -4
BITMAP
00EFBAED20
02FFEAFF80
05FF60EF80
08FF11FF60
0BFD03FF40
0EF907FF10
3FF60AFC00
6FF30EF900
9FF04FF600
002BDFF200
00B29FD000
0193EF6000
008EE70000
ENDCHAR
STARTCHAR Omacron
ENCODING 332
SWIDTH 665 0
DWIDTH 12 0
BBX 12 16 0 0
BITMAP
00000EEEEEB0
000002222210
000000000000
00017BEFEA20
007EA5547FE1
0AE44EE30CF8
6F62EF6009FB
AF1BFD000AFC
7E3FF7000BFB
028FF2000EF8
00CFD0003FF4
00EFB0009FE1
01FF9002EF70
00EFB00AFC00
009FF8BFD100
0019EFD81000
ENDCHAR
STARTCHAR omacron
ENCODING 333
SWIDTH 433 0
DWIDTH 8 0
BBX 11 12 -1 0
BITMAP
002FFFFFA000
000111111000
000000000000
0007DFC20000
009FD3CA0000
05FF40DC1690
0CFD01EE9400
2FF900CA0000
4FF601F70000
5FF506E10000
2FF83E600000
05DFC5000000
ENDCHAR
STARTCHAR Obreve
ENCODING 334
SWIDTH 665 0
DWIDTH 12 0
BBX 12 17 0 0
BITMAP
000006F503CC
0000009EED81
000000000000
000000000000
00017BEFEA20
007EA5547FE1
0AE44EE30CF8
6F62EF6009FB
AF1BFD000AFC
7E3FF7000BFB
028FF2000EF8
00CFD0003FF4
00EFB0009FE1
01FF9002EF70
00EFB00AFC00
009FF8BFD100
0019EFD81000
ENDCHAR
STARTCHAR obreve
ENCODING 335
SWIDTH 433 0
DWIDTH 8 0
BBX 11 13 -1 0
BITMAP
000F9004F500
000CD22CB000
0002BED81000
000000000000
0007DFC20000
009FD3CA0000
05FF40DC1690
0CFD01EE9400
2FF900CA0000
4FF601F70000
5FF506E10000
2FF83E600000
05DFC5000000
ENDCHAR
STARTCHAR Ohungarumlaut
ENCODING 336
SWIDTH 665 0
DWIDTH 12 0
BBX 13 18 0 0
BITMAP
00000001EB2EA0
00000008D19C10
0000001D22D200
00000000000000
00000000000000
00017BEFEA2000
007EA5547FE100
0AE44EE30CF800
6F62EF6009FB00
AF1BFD000AFC00
7E3FF7000BFB00
028FF2000EF800
00CFD0003FF400
00EFB0009FE100
01FF9002EF7000
00EFB00AFC0000
009FF8BFD10000
0019EFD8100000
ENDCHAR
STARTCHAR ohungarumlaut
ENCODING 337
SWIDTH 433 0
DWIDTH 8 0
BBX 11 13 -1 0
BITMAP
00002FA3F900
00009C0BB000
0003D14D1000
000000000000
0007DFC20000
009FD3CA0000
05FF40DC1690
0CFD01EE9400
2FF900CA0000
4FF601F70000
5FF506E10000
2FF83E600000
05DFC5000000
ENDCHAR
STARTCHAR OE
ENCODING 338
SWIDTH 846 0
DWIDTH 15 0
BBX 17 13 0 0
BITMAP
00017BDFECEFFFFF40
007EA7957FF9ACD800
0AF46FD10CF7000000
5F73FF4009FA000000
AF1CFC0009FC000000
8E3FF7000BFC110000
049FF2000DFFFE0000
00CFE0002FF7430000
00FFB0007FE1000000
01FFA000DF80000000
00EFA007FC00000000
009FE26FFEDDD90000
0019EFFFFFFFF80000
ENDCHAR
STARTCHAR oe
ENCODING 339
SWIDTH 663 0
DWIDTH 12 0
BBX 14 9 -1 0
BITMAP
0007CEC14CFD40
00AFC3BBFF67B0
05FF21DFFB05A0
0BFB04FFF50B40
0FF800BFF38400
1FF500CFD40002
1FF402FFB00077
0DF92AFFF75B80
04CFD82BEEB400
ENDCHAR
STARTCHAR Racute
ENCODING 340
SWIDTH 601 0
DWIDTH 11 0
BBX 11 18 0 0
BITMAP
00000001ED00
00000006F400
0000000D9000
000000271000
000000000000
0006BEFEA300
03DD6333DF30
3EA0DF906F70
BF13FF50AF40
DC06FF27F700
5A09FFFFD300
000DFB3DFB00
001FF70AFB00
005FF30CF900
008FF11FF600
00BFC05FF200
00EF908FF000
03FF605EF300
ENDCHAR
STARTCHAR racute
ENCODING 341
SWIDTH 376 0
DWIDTH 7 0
BBX 8 13 -1 0
BITMAP
000001EC
000007E2
00001E60
00000000
00DFB8EA
01FFEBFE
05FF50B7
08FF1000
0BFD0000
0EFA0000
2FF70000
6FF30000
9FF00000
ENDCHAR
STARTCHAR Rcommaaccent
ENCODING 342
SWIDTH 601 0
DWIDTH 11 0
BBX 11 18 0 -5
BITMAP
0006BEFEA300
03DD6333DF30
3EA0DF906F70
BF13FF50AF40
DC06FF27F700
5A09FFFFD300
000DFB3DFB00
001FF70AFB00
005FF30CF900
008FF11FF600
00BFC05FF200
00EF908FF000
03FF605EF300
000000000000
0000AD100000
00008E000000
000075000000
000010000000
ENDCHAR
STARTCHAR rcommaaccent
ENCODING 343
SWIDTH 376 0
DWIDTH 7 0
BBX 8 14 -1 -5
BITMAP
00DFB8EA
01FFEBFE
05FF50B7
08FF1000
0BFD0000
0EFA0000
2FF70000
6FF30000
9FF00000
00000000
01D90000
00C90000
00B20000
00100000
ENDCHAR
STARTCHAR Rcaron
ENCODING 344
SWIDTH 601 0
DWIDTH 11 0
BBX 12 18 0 0
BITMAP
0000009206A1
0000006CCB10
0000001FA000
000000050000
000000000000
0006BEFEA300
03DD6333DF30
3EA0DF906F70
BF13FF50AF40
DC06FF27F700
5A09FFFFD300
000DFB3DFB00
001FF70AFB00
005FF30CF900
008FF11FF600
00BFC05FF200
00EF908FF000
03FF605EF300
ENDCHAR
STARTCHAR rcaron
ENCODING 345
SWIDTH 376 0
DWIDTH 7 0
BBX 9 13 -1 0
BITMAP
0008416A10
0003EE9000
0000D60000
0000000000
00DFB8EA00
01FFEBFE00
05FF50B700
08FF100000
0BFD000000
0EFA000000
2FF7000000
6FF3000000
9FF0000000
ENDCHAR
STARTCHAR Sacute
ENCODING 346
SWIDTH 570 0
DWIDTH 10 0
BBX 10 18 0 0
BITMAP
00000002FA
00000009E1
0000002F60
0000003700
0000000000
00007DFE91
000BFC33EA
003FF500DE
003FF804F9
000DFE3010
0003EFE300
00005FFE20
017717FFB0
0CFC50CFF2
5FD0007FF3
5FB000AFE0
1DF749FF40
02AEFD9200
ENDCHAR
STARTCHAR sacute
ENCODING 347
SWIDTH 382 0
DWIDTH 7 0
BBX 9 13 -1 0
BITMAP
000000CE10
000004F600
00000BB000
0000052000
0006DF4000
000DFF5000
004CFF6000
00B5FF7000
04A1FF8000
1C60FF9000
8E60FFB930
6A27FFA200
09EEB40000
ENDCHAR
STARTCHAR Scircumflex
ENCODING 348
SWIDTH 570 0
DWIDTH 10 0
BBX 10 18 0 0
BITMAP
00000004C0
0000005FF2
000006D687
0000260005
0000000000
00007DFE91
000BFC33EA
003FF500DE
003FF804F9
000DFE3010
0003EFE300
00005FFE20
017717FFB0
0CFC50CFF2
5FD0007FF3
5FB000AFE0
1DF749FF40
02AEFD9200
ENDCHAR
STARTCHAR scircumflex
ENCODING 349
SWIDTH 382 0
DWIDTH 7 0
BBX 9 13 -1 0
BITMAP
0000089000
0000AFD000
001B92B300
0032001200
0006DF4000
000DFF5000
004CFF6000
00B5FF7000
04A1FF8000
1C60FF9000
8E60FFB930
6A27FFA200
09EEB40000
ENDCHAR
STARTCHAR Scedilla
ENCODING 350
SWIDTH 570 0
DWIDTH 10 0
BBX 10 17 0 -4
BITMAP
00007DFE91
000AFC33EA
003FF500DE
003FF704FA
000DFE3010
0004FFE200
00006FFD20
005618FFB0
0BFE60CFF2
4FD1008FF3
5FA0009FE1
1EE526FF50
03BEFEA300
0002B40000
0006AF9000
00343F9000
001BFA1000
ENDCHAR
STARTCHAR scedilla
ENCODING 351
SWIDTH 382 0
DWIDTH 7 0
BBX 9 14 -1 -4
BITMAP
0000021000
0008FF4000
000EFF5000
005CFF6000
00B5FF7000
04A1FF9000
1D70FFA000
8A30FFCB30
6A16FFA100
09FEC40000
00B1000000
02EEA00000
053DE00000
09EC400000
ENDCHAR
STARTCHAR Scaron
ENCODING 352
SWIDTH 570 0
DWIDTH 10 0
BBX 12 18 0 0
BITMAP
0000009305B2
0000004DCC10
0000000EB100
000000050000
000000000000
00007DFE9100
000BFC33EA00
003FF500DE00
003FF804F900
000DFE301000
0003EFE30000
00005FFE2000
017717FFB000
0CFC50CFF200
5FD0007FF300
5FB000AFE000
1DF749FF4000
02AEFD920000
ENDCHAR
STARTCHAR scaron
ENCODING 353
SWIDTH 369 0
DWIDTH 7 0
BBX 9 13 -1 0
BITMAP
0005704A40
0001ECD200
0000AB1000
0000211000
0007EF4000
000DFF5000
004BFF6000
00B4FF7000
0491FF8000
1D70FF9120
8B31FFCA10
6C6BFF8000
09EEB40000
ENDCHAR
STARTCHAR uni0162
ENCODING 354
SWIDTH 481 0
DWIDTH 9 0
BBX 13 17 0 -4
BITMAP
0039DEFD941280
07E73BFFFFFFA0
4F500EFE9BDB20
AE002FFA000000
DC005FF6000000
BC009FF3000000
2700CFE0000000
0000FFB0000000
0003FF70000000
0006FF40000000
000AFF00000000
000DFC00000000
001FF800000000
00058100000000
0009DF40000000
00427F60000000
003DE800000000
ENDCHAR
STARTCHAR uni0163
ENCODING 355
SWIDTH 267 0
DWIDTH 5 0
BBX 7 16 -1 -4
BITMAP
0028A400
007FF200
00AFE000
07FFFC00
01FF9100
04FF5000
07FF2000
0AFD0000
0EFA0110
1FF70940
1FFEBA00
08FD8000
05820000
09CF4000
427F5000
3DE80000
ENDCHAR
STARTCHAR Tcaron
ENCODING 356
SWIDTH 481 0
DWIDTH 9 0
BBX 13 18 0 0
BITMAP
00000140035000
000000D6BA1000
0000008F700000
00000024000000
00000000000000
0039DEFD941280
07E73BFFFFFFA0
4F500EFE9BDB20
AE002FFA000000
DC005FF6000000
BC009FF3000000
2700CFE0000000
0000FFB0000000
0003FF70000000
0006FF40000000
000AFF00000000
000DFC00000000
001FF800000000
ENDCHAR
STARTCHAR tcaron
ENCODING 357
SWIDTH 267 0
DWIDTH 5 0
BBX 9 13 -1 0
BITMAP
0000008E40
0002426F50
006FF35A00
00AFE02000
07FFFC0000
01FF910000
04FF500000
07FF200000
0AFD000000
0EFA011000
1FF7094000
1FFEBA0000
07ED800000
ENDCHAR
STARTCHAR Tbar
ENCODING 358
SWIDTH 481 0
DWIDTH 9 0
BBX 13 13 0 0
BITMAP
0049DEFD941280
09E73BFFFFFFA0
6F400EFB39CB20
BE002FF8000000
DC006FF4000000
7C009FF1000000
0000CFC0000000
06EEFFFEE70000
0125FF72210000
0006FF30000000
000AFE00000000
000DFB00000000
001FF800000000
ENDCHAR
STARTCHAR tbar
ENCODING 359
SWIDTH 267 0
DWIDTH 5 0
BBX 7 12 -1 0
BITMAP
0028A400
007FF200
00AFE000
07FFFC00
01FF9100
3EFFF900
18FF4100
0AFE0000
0EFA0000
1FF80850
1FFDBB00
08ED8100
ENDCHAR
STARTCHAR Utilde
ENCODING 360
SWIDTH 716 0
DWIDTH 13 0
BBX 15 17 -1 0
BITMAP
0000000026741110
000000048DFFFA00
0000000000574000
0000000000000000
00006ADF6001FF70
004D98FF3004FF40
04F709FD0008FF10
0DD00DF9000BFD00
1FA02FF5000EF900
0AA06FF1003FF600
0000AFC0007FF200
0000DF8000AFE000
0002FF4001EF9000
0004FF2005FF4000
0004FF401DFB0000
0001EFECEFD20000
00004CFED8200000
ENDCHAR
STARTCHAR utilde
ENCODING 361
SWIDTH 505 0
DWIDTH 9 0
BBX 11 12 -1 0
BITMAP
0005CFDA8500
002559CB6000
000000000000
00DFB07FF200
02FF70AFE000
05FF40DFB000
08FF11FF8000
0BFD04FF4000
0EF908FF1030
2FF81DFE0480
1FFEDCFFCD10
07ED62CEA200
ENDCHAR
STARTCHAR Umacron
ENCODING 362
SWIDTH 716 0
DWIDTH 13 0
BBX 15 16 -1 0
BITMAP
00000003EEEEE800
0000000122222100
0000000000000000
00006ADF6001FF70
004D98FF3004FF40
04F709FD0008FF10
0DD00DF9000BFD00
1FA02FF5000EF900
0AA06FF1003FF600
0000AFC0007FF200
0000DF8000AFE000
0002FF4001EF9000
0004FF2005FF4000
0004FF401DFB0000
0001EFECEFD20000
00004CFED8200000
ENDCHAR
STARTCHAR umacron
ENCODING 363
SWIDTH 505 0
DWIDTH 9 0
BBX 11 12 -1 0
BITMAP
000CFFFFE000
000111111000
000000000000
00DFB07FF200
02FF70AFE000
05FF40DFB000
08FF11FF8000
0BFD04FF4000
0EF908FF1030
2FF81DFE0480
1FFEDCFFCD10
07ED62CEA200
ENDCHAR
STARTCHAR Ubreve
ENCODING 364
SWIDTH 716 0
DWIDTH 13 0
BBX 15 17 -1 0
BITMAP
00000002F912AE10
000000007DED9200
0000000000000000
0000000000000000
00006ADF6001FF70
004D98FF3004FF40
04F709FD0008FF10
0DD00DF9000BFD00
1FA02FF5000EF900
0AA06FF1003FF600
0000AFC0007FF200
0000DF8000AFE000
0002FF4001EF9000
0004FF2005FF4000
0004FF401DFB0000
0001EFECEFD20000
00004CFED8200000
ENDCHAR
STARTCHAR ubreve
ENCODING 365
SWIDTH 505 0
DWIDTH 9 0
BBX 11 13 -1 0
BITMAP
000CD216F600
0003CEEB5000
000000000000
000000000000
00DFB07FF200
02FF70AFE000
05FF40DFB000
08FF11FF8000
0BFD04FF4000
0EF908FF1030
2FF81DFE0480
1FFEDCFFCD10
07ED62CEA200
ENDCHAR
STARTCHAR Uring
ENCODING 366
SWIDTH 716 0
DWIDTH 13 0
BBX 15 18 -1 0
BITMAP
0000000004D70000
000000000B3B0000
000000000B1B0000
0000000008F70000
0000000000100000
00006ADF6001FF70
004D98FF3004FF40
04F709FD0008FF10
0DD00DF9000BFD00
1FA02FF5000EF900
0AA06FF1003FF600
0000AFC0007FF200
0000DF8000AFE000
0002FF4001EF9000
0004FF2005FF4000
0004FF401DFB0000
0001EFECEFD20000
00004CFED8200000
ENDCHAR
STARTCHAR uring
ENCODING 367
SWIDTH 505 0
DWIDTH 9 0
BBX 11 12 -1 0
BITMAP
00002DE30000
00004FF30000
000001100000
00DFB07FF200
02FF70AFE000
05FF40DFB000
08FF11FF8000
0BFD04FF4000
0EF908FF1030
2FF81DFE0480
1FFEDCFFCD10
07ED62CEA200
ENDCHAR
STARTCHAR Uhungarumlaut
ENCODING 368
SWIDTH 716 0
DWIDTH 13 0
BBX 15 18 -1 0
BITMAP
0000000002EA3F90
0000000009C0BB00
000000003D14D100
0000000000000000
0000000000000000
00006ADF6001FF70
004D98FF3004FF40
04F709FD0008FF10
0DD00DF9000BFD00
1FA02FF5000EF900
0AA06FF1003FF600
0000AFC0007FF200
0000DF8000AFE000
0002FF4001EF9000
0004FF2005FF4000
0004FF401DFB0000
0001EFECEFD20000
00004CFED8200000
ENDCHAR
STARTCHAR uhungarumlaut
ENCODING 369
SWIDTH 505 0
DWIDTH 9 0
BBX 11 13 -1 0
BITMAP
00001EB2FA00
00008D19C000
0002D23D1000
000000000000
00DFB07FF200
02FF70AFE000
05FF40DFB000
08FF11FF8000
0BFD04FF4000
0EF908FF1030
2FF81DFE0480
1FFEDCFFCD10
07ED62CEA200
ENDCHAR
STARTCHAR Uogonek
ENCODING 370
SWIDTH 716 0
DWIDTH 13 0
BBX 15 23 -1 -5
BITMAP
000000008F400000
000000003F700000
000000000C900000
0000000000000000
0000000000000000
00006ADF6001FF70
004D87FF3004FF40
04F609FD0008FF10
0DD00DF9000BFD00
1FA02FF4000EF900
0A906FF1003FF600
0000AFB0007FF200
0000DF7000BFE000
0001FF4001FF9000
0004FF2006FF4000
0004FF502DFC0000
0001FFFDFFE30000
00005DFFDA200000
000001C400000000
000007E000000000
000008F234000000
000003EFA1000000
0000000100000000
ENDCHAR
STARTCHAR uogonek
ENCODING 371
SWIDTH 505 0
DWIDTH 9 0
BBX 11 14 -1 -5
BITMAP
00DFB07FF200
02FF70AFE000
05FF40DFB000
08FF11FF8000
0BFD04FF4000
0EF908FF1030
2FF81DFE0480
1FFEDCFFCE20
07ED62DFE400
000001C70000
000007E00000
000008F23400
000003EFB100
000000110000
ENDCHAR
STARTCHAR Wcircumflex
ENCODING 372
SWIDTH 962 0
DWIDTH 17 0
BBX 19 18 0 0
BITMAP
00000000000006000000
000000000001BF300000
00000000003D99800000
00000000016100500000
00000000000000000000
0005ADF2001FF6000D60
02CBAFF2007FF6003E10
2EA08FF300CFF6009900
AF107FF302FFF600E300
DD007FF307DFF704D000
8C006FF30D7FF7097000
01006FF43D3FF71E1000
00006FF4872FF75A0000
00005FF4D22FF7A50000
00005FF8B02FF9D00000
00005FFE501FFE800000
00004FFE001FFF200000
00004FF8000FFC000000
ENDCHAR
STARTCHAR wcircumflex
ENCODING 373
SWIDTH 661 0
DWIDTH 12 0
BBX 13 13 -1 0
BITMAP
00000002C30000
0000003DF80000
000004C62C0000
00000400020000
00DFB07FF26E50
02FF70AFE06D90
05FF40DFB00780
08FF11FF800B60
0BFD04FF401F20
0EF908FF108B00
2FF81DFE04F400
1FFEDDFFCF8000
07ED62CFD70000
ENDCHAR
STARTCHAR Ycircumflex
ENCODING 374
SWIDTH 620 0
DWIDTH 11 0
BBX 13 18 0 0
BITMAP
00000000024000
000000005EB000
00000008C6D200
00000044003300
00000000000000
0005ADF4000D50
02CB9FF8004D00
2EA03FFB00A600
AF100EFF12E100
DD000AFF488000
8C0006FF8D1000
010002FFF90000
000000DFF20000
000000FFD00000
000003FFA00000
000007FF700000
00000AFF300000
00000DFF000000
ENDCHAR
STARTCHAR ycircumflex
ENCODING 375
SWIDTH 505 0
DWIDTH 9 0
BBX 11 17 -1 -4
BITMAP
000000980000
00002CEE0000
0003B5084000
000000000000
00DFB07FF200
02FF70AFE000
05FF40DFB000
08FF11FF8000
0BFD05FF4000
0EF908FF1120
2FF81EFD0920
1FFEDFFA5800
07ED9FFC6000
0029EFF30000
00C4AFE00000
02E7FF800000
009EE8000000
ENDCHAR
STARTCHAR Ydieresis
ENCODING 376
SWIDTH 620 0
DWIDTH 11 0
BBX 13 17 0 0
BITMAP
0000001DB0AD10
0000001ED0CF20
00000001100100
00000000000000
0005ADF4000D50
02CB9FF8004D00
2EA03FFB00A600
AF100EFF12E100
DD000AFF488000
8C0006FF8D1000
010002FFF90000
000000DFF20000
000000FFD00000
000003FFA00000
000007FF700000
00000AFF300000
00000DFF000000
ENDCHAR
STARTCHAR Zacute
ENCODING 377
SWIDTH 542 0
DWIDTH 10 0
BBX 10 18 0 0
BITMAP
0000000077
00000006F5
0000000D90
0000002710
0000000000
009EFFFFFA
05F811BFF2
03D504FF90
00000CFF20
00005FF900
0000CFE200
0005FF8000
000DFE1000
006FF80000
01EFE10000
07FF700BB0
1EFE212ED0
8FFFFFFD30
ENDCHAR
STARTCHAR zacute
ENCODING 378
SWIDTH 428 0
DWIDTH 8 0
BBX 8 13 0 0
BITMAP
000007F5
00001EA0
00008D10
00000000
04DFFFF6
0EC1BFD0
0964FF40
000CFB00
006FF300
01EF9000
08FE1460
2FF92BD0
BFFFFD40
ENDCHAR
STARTCHAR Zdotaccent
ENCODING 379
SWIDTH 530 0
DWIDTH 10 0
BBX 10 17 0 0
BITMAP
000006E500
000007F600
0000002000
0000000000
009EFFFFFA
05F811BFF2
03D504FF90
00000CFF20
00005FF900
0000CFE200
0005FF8000
000DFE1000
006FF80000
01EFE10000
07FF700BB0
1EFE212ED0
8FFFFFFD30
ENDCHAR
STARTCHAR zdotaccent
ENCODING 380
SWIDTH 428 0
DWIDTH 8 0
BBX 8 12 0 0
BITMAP
0000CC00
0000DE10
00001100
04DFFFF6
0EC1BFD0
0964FF40
000CFB00
006FF300
01EF9000
08FE1460
2FF92BD0
BFFFFD40
ENDCHAR
STARTCHAR Zcaron
ENCODING 381
SWIDTH 542 0
DWIDTH 10 0
BBX 11 18 0 0
BITMAP
000003200430
000003C6C700
000000CE4000
000000420000
000000000000
009EFFFFFA00
05F811BFF200
03D504FF9000
00000CFF2000
00005FF90000
0000CFE20000
0005FF800000
000DFE100000
006FF8000000
01EFE1000000
07FF700BB000
1EFE212ED000
8FFFFFFD3000
ENDCHAR
STARTCHAR zcaron
ENCODING 382
SWIDTH 428 0
DWIDTH 8 0
BBX 9 13 0 0
BITMAP
0007506A20
0002EDA100
0000B70000
0000000000
04DFFFF600
0EC1BFD000
0964FF4000
000CFB0000
006FF30000
01EF900000
08FE146000
2FF92BD000
BFFFFD4000
ENDCHAR
STARTCHAR longs
ENCODING 383
SWIDTH 267 0
DWIDTH 5 0
BBX 11 17 -4 -4
BITMAP
0000003BED50
000001EF93D0
000006FF2020
00000AFE0000
0000CFFA0000
00002FF70000
00004FF40000
00007FF10000
0000BFC00000
0000EF900000
0002FF600000
0006FF200000
001AFE000000
19CEFB000000
991FF7000000
A77FE2000000
2CEC30000000
ENDCHAR
STARTCHAR uni018F
ENCODING 399
SWIDTH 544 0
DWIDTH 10 0
BBX 10 13 0 0
BITMAP
003AEFD810
02EFFFFFC0
03D523CFF5
0010005FF9
0000004FFA
00028CEFF9
006ED5AFF7
07FC10DFF2
2FF302FFC0
7FC008FF30
9F901EF800
5FC2CF9000
07DFC50000
ENDCHAR
STARTCHAR florin
ENCODING 402
SWIDTH 267 0
DWIDTH 5 0
BBX 13 17 -5 -4
BITMAP
000000002AEE60
00000001DF6CD0
0000000AFC0C60
0000002FF60000
00000BFFFFF300
000001BFE11000
000000EF900000
000004FF500000
000009FE100000
00000DFB000000
00003FF6000000
00007FF2000000
0000CFB0000000
0002FF50000000
3E57FD00000000
7F3EF400000000
2CFC4000000000
ENDCHAR
STARTCHAR Ohorn
ENCODING 416
SWIDTH 665 0
DWIDTH 12 0
BBX 13 16 0 0
BITMAP
00000000000350
00000000000AF0
00000000000BC0
00017BEFD82E50
007EA5547FF800
0AE44EE30CF600
6F62EF6009FA00
AF1BFD000AFC00
7E3FF7000BFB00
028FF2000EF900
00CFD0003FF500
00EFB0009FE100
01FF9002EF8000
00EFB00AFC1000
009FF8BFD20000
0019EFD8100000
ENDCHAR
STARTCHAR ohorn
ENCODING 417
SWIDTH 439 0
DWIDTH 8 0
BBX 10 12 -1 0
BITMAP
0000000044
00000000CB
00000000D8
0005CEC8E1
008FE4AE30
04FF607E00
0CFE108E00
1FFB00AD00
3FF800E900
2FF705F300
0DFA3E7000
04CEC50000
ENDCHAR
STARTCHAR Uhorn
ENCODING 431
SWIDTH 716 0
DWIDTH 13 0
BBX 17 17 -1 0
BITMAP
000000000000000630
000000000000001F90
000000000000001F60
000000000000007C00
00006ADF6001FFB100
004D98FF3004FF3000
04F709FD0008FF0000
0DD00DF9000BFC0000
1FA02FF5000EF90000
0AA06FF1003FF50000
0000AFC0007FF20000
0000DF8000AFD00000
0002FF4001EF900000
0004FF2005FF300000
0004FF401DFB000000
0001EFECEFD2000000
00004CFED810000000
ENDCHAR
STARTCHAR uhorn
ENCODING 432
SWIDTH 505 0
DWIDTH 9 0
BBX 11 12 -1 0
BITMAP
000000000AB0
000000000BB0
000000001E40
00DFB07FF700
02FF70AFE000
05FF40DFB000
08FF11FF8000
0BFD04FF4000
0EF908FF1030
2FF81DFE0480
1FFEDCFFCD10
07ED62CEA200
ENDCHAR
STARTCHAR uni01B7
ENCODING 439
SWIDTH 555 0
DWIDTH 10 0
BBX 11 13 0 0
BITMAP
007EFFFFFD10
02FB217FF300
01D703FF6000
00002EF90000
0000CFC00000
0005FFC40000
00025CFF6000
000002FFD000
000000DFF100
2B7000EFE000
9F4005FF8000
7F714EFB0000
08DFEB600000
ENDCHAR
STARTCHAR uni01CD
ENCODING 461
SWIDTH 668 0
DWIDTH 12 0
BBX 16 20 0 -2
BITMAP
0000000000500161
0000000000898D40
00000000002FC100
0000000000060000
0000000000000000
0000000029EE4000
00000003CAFF3000
0000003D3AFE0000
000002E60DFB0000
00000CC01FF80000
07CEEFC66FF40000
9F84FD36DFF10000
BF39F600BFD00000
022FE100EF900000
008FA003FF600000
00EF5006FF300000
03FF100AFE000000
06FD000DFB000000
07FB000000000000
01CB000000000000
ENDCHAR
STARTCHAR uni01CE
ENCODING 462
SWIDTH 526 0
DWIDTH 9 0
BBX 12 13 -1 0
BITMAP
000009416A20
000004EE9000
000000D70000
000000100000
0006DFAFF800
008FE48FF500
04FF507FF200
0BFD00AFD000
1FF900DFA000
3FF702FF7021
3FF707FF50B0
1EFEACFFDC50
04DE919EC500
ENDCHAR
STARTCHAR uni01CF
ENCODING 463
SWIDTH 375 0
DWIDTH 7 0
BBX 10 18 0 0
BITMAP
0000140025
00000D6BB1
000008F800
0000024000
0000000000
0005ADF100
02C8DFC000
2E81FF9000
AF14FF6000
DD07FF2000
8C0AFE0000
010DFB0000
002FF70000
005FF40000
008FF10000
00CFC00000
00FF900000
03FF600000
ENDCHAR
STARTCHAR uni01D0
ENCODING 464
SWIDTH 267 0
DWIDTH 5 0
BBX 8 13 -1 0
BITMAP
007506A2
002EDA10
000B7000
00000000
00DFB000
02FF7000
05FF4000
08FF1000
0BFD0000
0EF90120
2FF70A40
1FFECA00
07ED7000
ENDCHAR
STARTCHAR uni01D1
ENCODING 465
SWIDTH 665 0
DWIDTH 12 0
BBX 13 18 0 0
BITMAP
00000008404B20
00000003DBD200
00000000EC1000
00000000510000
00000000000000
00017BEFEA2000
007EA5547FE100
0AE44EE30CF800
6F62EF6009FB00
AF1BFD000AFC00
7E3FF7000BFB00
028FF2000EF800
00CFD0003FF400
00EFB0009FE100
01FF9002EF7000
00EFB00AFC0000
009FF8BFD10000
0019EFD8100000
ENDCHAR
STARTCHAR uni01D2
ENCODING 466
SWIDTH 433 0
DWIDTH 8 0
BBX 11 13 -1 0
BITMAP
00009306A200
00004EEA0000
00000E700000
000001000000
0007DFC20000
009FD3BA0010
05FF41DD3890
0CFC01EE8300
2FF800DA0000
4FF602F70000
5FF609E10000
2FFDBF600000
05DFC5000000
ENDCHAR
STARTCHAR uni01D3
ENCODING 467
SWIDTH 716 0
DWIDTH 13 0
BBX 15 18 -1 0
BITMAP
0000000008305B20
0000000004DCC100
0000000000EC1000
0000000000510000
0000000000000000
00006ADF6001FF70
004D98FF3004FF40
04F709FD0008FF10
0DD00DF9000BFD00
1FA02FF5000EF900
0AA06FF1003FF600
0000AFC0007FF200
0000DF8000AFE000
0002FF4001EF9000
0004FF2005FF4000
0004FF401DFB0000
0001EFECEFD20000
00004CFED8200000
ENDCHAR
STARTCHAR uni01D4
ENCODING 468
SWIDTH 505 0
DWIDTH 9 0
BBX 11 13 -1 0
BITMAP
00004804A400
00000DDC2000
000008A10000
000000000000
00DFB07FF200
02FF70AFE000
05FF40DFB000
08FF11FF8000
0BFD04FF4000
0EF908FF1030
2FF81DFE0480
1FFEDCFFCD10
07ED62CEA200
ENDCHAR
STARTCHAR uni01D5
ENCODING 469
SWIDTH 716 0
DWIDTH 13 0
BBX 15 18 -1 0
BITMAP
00000000BEEEEE00
0000000032223200
00000001ED04F900
00000001DB03E700
0000000000000000
00006ADF6001FF70
004D98FF3004FF40
04F709FD0008FF10
0DD00DF9000BFD00
1FA02FF5000EF900
0AA06FF1003FF600
0000AFC0007FF200
0000DF8000AFE000
0002FF4001EF9000
0004FF2005FF4000
0004FF401DFB0000
0001EFECEFD20000
00004CFED8200000
ENDCHAR
STARTCHAR uni01D6
ENCODING 470
SWIDTH 505 0
DWIDTH 9 0
BBX 11 15 -1 0
BITMAP
0003EEEEE800
000122222100
000000000000
0005E62E9000
0006F73FB000
000020010000
00DFB07FF200
02FF70AFE000
05FF40DFB000
08FF11FF8000
0BFD04FF4000
0EF908FF1030
2FF81DFE0480
1FFEDCFFCD10
07ED62CEA200
ENDCHAR
STARTCHAR uni01D7
ENCODING 471
SWIDTH 716 0
DWIDTH 13 0
BBX 15 18 -1 0
BITMAP
00000000005F8000
0000000CC0CD5E60
0000000EE4F46F70
0000000114500200
0000000000000000
00006ADF6001FF70
004D98FF3004FF40
04F709FD0008FF10
0DD00DF9000BFD00
1FA02FF5000EF900
0AA06FF1003FF600
0000AFC0007FF200
0000DF8000AFE000
0002FF4001EF9000
0004FF2005FF4000
0004FF401DFB0000
0001EFECEFD20000
00004CFED8200000
ENDCHAR
STARTCHAR uni01D8
ENCODING 472
SWIDTH 505 0
DWIDTH 9 0
BBX 11 17 -1 0
BITMAP
000000067000
0000004F7000
000000CB0000
000002810000
000000000000
0005E62E9000
0006F73FB000
000020010000
00DFB07FF200
02FF70AFE000
05FF40DFB000
08FF11FF8000
0BFD04FF4000
0EF908FF1030
2FF81DFE0480
1FFEDCFFCD10
07ED62CEA200
ENDCHAR
STARTCHAR uni01D9
ENCODING 473
SWIDTH 716 0
DWIDTH 13 0
BBX 15 18 -1 0
BITMAP
000000000913A300
0000000CC8DD7E60
0000000CD3C15E60
0000000000000000
0000000000000000
00006ADF6001FF70
004D98FF3004FF40
04F709FD0008FF10
0DD00DF9000BFD00
1FA02FF5000EF900
0AA06FF1003FF600
0000AFC0007FF200
0000DF8000AFE000
0002FF4001EF9000
0004FF2005FF4000
0004FF401DFB0000
0001EFECEFD20000
00004CFED8200000
ENDCHAR
STARTCHAR uni01DA
ENCODING 474
SWIDTH 505 0
DWIDTH 9 0
BBX 11 17 -1 0
BITMAP
000005001600
00000A57D400
000006FE3000
000001D20000
000000000000
0005E62E9000
0006F73FB000
000020010000
00DFB07FF200
02FF70AFE000
05FF40DFB000
08FF11FF8000
0BFD04FF4000
0EF908FF1030
2FF81DFE0480
1FFEDCFFCD10
07ED62CEA200
ENDCHAR
STARTCHAR uni01DB
ENCODING 475
SWIDTH 716 0
DWIDTH 13 0
BBX 15 18 -1 0
BITMAP
0000000006F60000
0000000CC2F95E60
0000000CD0AB5E60
0000000000000000
0000000000000000
00006ADF6001FF70
004D98FF3004FF40
04F709FD0008FF10
0DD00DF9000BFD00
1FA02FF5000EF900
0AA06FF1003FF600
0000AFC0007FF200
0000DF8000AFE000
0002FF4001EF9000
0004FF2005FF4000
0004FF401DFB0000
0001EFECEFD20000
00004CFED8200000
ENDCHAR
STARTCHAR uni01DC
ENCODING 476
SWIDTH 505 0
DWIDTH 9 0
BBX 11 17 -1 0
BITMAP
00006F600000
00001F900000
00000AB00000
000000000000
000000000000
0005E62E9000
0006F73FB000
000020010000
00DFB07FF200
02FF70AFE000
05FF40DFB000
08FF11FF8000
0BFD04FF4000
0EF908FF1030
2FF81DFE0480
1FFEDCFFCD10
07ED62CEA200
ENDCHAR
STARTCHAR uni01E4
ENCODING 484
SWIDTH 601 0
DWIDTH 11 0
BBX 11 17 0 -4
BITMAP
00028CEEB400
006EFB42BF10
05FFA000BF20
1EFE10017500
6FF800000000
9FF40006FB00
9FF209DFFE70
7FF3003FF400
2EFA12DFF100
04DFFBAFD000
000100BF9000
000100EF6000
01CFD4FF2000
0AE228FA0000
0AD12EF30000
02CFFD400000
000110000000
ENDCHAR
STARTCHAR uni01E5
ENCODING 485
SWIDTH 507 0
DWIDTH 9 0
BBX 11 13 -1 -4
BITMAP
0006DFAFF800
008FE48FF500
04FF507FF100
0BFD00BFD000
1FF900EFA000
3FF702FF7040
3FF809FF3480
1EFFEFFF2A10
04DEADFE7100
0008CFF80000
07EEEFFE6000
00C6BFD00000
005DEB200000
ENDCHAR
STARTCHAR Gcaron
ENCODING 486
SWIDTH 578 0
DWIDTH 10 0
BBX 12 22 0 -4
BITMAP
0000007404B3
0000003EBD20
0000000DC100
000000051000
000000000000
00028CEEB300
006EFB42BE10
05FFA0009F30
1EFE1001DB00
6FF800000000
9FF400026500
9FF20009F900
7FF3002EF600
2EFA12CFF200
04DFFBAFE000
000100BFA000
000100EF7000
01CFD4FF2000
0AE228FC0000
0AD12EF30000
02CFFD400000
000110000000
ENDCHAR
STARTCHAR gcaron
ENCODING 487
SWIDTH 507 0
DWIDTH 9 0
BBX 11 17 -1 -4
BITMAP
000009416A20
000004EE9000
000000D70000
000000100000
0006DFAFF800
008FE48FF500
04FF507FF100
0BFD00BFD000
1FF900EFA000
3FF702FF7040
3FF809FF3480
1EFFEFFF2A10
04DE9DFE8100
0007DFF80000
008A5FF50000
00C5AFD00000
004DEB200000
ENDCHAR
STARTCHAR uni01E8
ENCODING 488
SWIDTH 601 0
DWIDTH 11 0
BBX 13 19 0 0
BITMAP
00000003200340
00000002C3AA10
00000000DF9000
00000000880000
00000000000000
00000000000000
0006BEE106F700
03D9DFC04F7000
3F80FF82E80000
BE03FF5D800000
CC07FFC8000000
380AFFEDB30000
000DF90BFB0000
001FF60AFC0000
005FF30CF90000
008FF01FF60000
00BFC05FF20000
00EF908FF00000
03FF605EF30000
ENDCHAR
STARTCHAR uni01E9
ENCODING 489
SWIDTH 518 0
DWIDTH 9 0
BBX 11 17 -1 0
BITMAP
000002300250
000000D39C10
000000AFB100
0000006A0000
000464000000
003FF6000000
007FF2000000
00AFE0000000
00DFB02CB100
01FF84D60000
04FFBFA40000
08FFFFFF3000
0BFE34FF6000
0EFA04FF5020
2FF707FF21B0
6FF306FFCD40
9FF001BED500
ENDCHAR
STARTCHAR uni01EA
ENCODING 490
SWIDTH 665 0
DWIDTH 12 0
BBX 12 23 0 -5
BITMAP
000009F30000
000003F60000
000000D90000
000000000000
000000000000
00017BEFEA20
007EA5547FE1
0AE44EE30CF8
6F62EF6009FB
AF1BFD000AFC
7E2FF7000BFB
028FF2000EF8
00CFD0003FF4
00EFB0009FE1
01FF9002EF70
00EFB00AFC10
00AFF8BFD100
0019EFD81000
0003D1000000
000C90000000
000DC0610000
0006FE700000
000011000000
ENDCHAR
STARTCHAR uni01EB
ENCODING 491
SWIDTH 433 0
DWIDTH 8 0
BBX 11 14 -1 -5
BITMAP
0007DFC20000
009FD3CA0000
05FF40DC1690
0CFD01EE9400
2FF900CA0000
4FF601F70000
5FF506E10000
2FF83E600000
06EFC5000000
02D100000000
0AB000000000
0CD152000000
05FF80000000
001100000000
ENDCHAR
STARTCHAR uni01EE
ENCODING 494
SWIDTH 525 0
DWIDTH 9 0
BBX 11 18 0 0
BITMAP
000005000610
00000976D500
000004FE4000
000000D30000
000000000000
007EFFFFFD10
02FB217FF300
01D703FF6000
00002EF90000
0000CFC00000
0005FFC40000
00025CFF6000
000002FFD000
000000DFF100
2B7000EFE000
9F4005FF8000
7F714EFB0000
08DFEB600000
ENDCHAR
STARTCHAR uni01EF
ENCODING 495
SWIDTH 600 0
DWIDTH 11 0
BBX 9 18 0 -4
BITMAP
0004100530
0005A4C800
0001FF7000
0000B50000
0000000000
09FFFFE100
6F53EF6000
291AFC0000
005FF30000
01DF900000
05FF300020
01BFC00560
005FF22B10
003FFCA100
06CFF60000
A87FF30000
E3CFB00000
7EEA100000
ENDCHAR
STARTCHAR uni01F4
ENCODING 500
SWIDTH 578 0
DWIDTH 10 0
BBX 11 22 0 -4
BITMAP
00000000DE10
00000004F600
0000000AD000
0000001D4000
000000000000
00028CEEC500
006EFB42AF20
05FFA001CC10
1EFE10000000
6FF800000000
9FF40007FB00
9FF2000BF700
7FF3003FF400
2EFA12DFF100
04DFFBAFD000
000100BF9000
000100EF6000
01CFD4FF1000
0AE228FA0000
0AD12EF30000
02CFFD400000
000110000000
ENDCHAR
STARTCHAR uni01F5
ENCODING 501
SWIDTH 507 0
DWIDTH 9 0
BBX 11 17 -1 -4
BITMAP
0000003F9000
000000BD1000
000004F30000
000001100000
0006DFAFF800
008FE48FF500
04FF507FF100
0BFD00BFD000
1FF900EFA000
3FF702FF7040
3FF809FF3480
1EFFEFFF2A10
04DE9DFE8100
0007DFF80000
008A5FF50000
00C5AFD00000
004DEB200000
ENDCHAR
STARTCHAR Aringacute
ENCODING 506
SWIDTH 668 0
DWIDTH 12 0
BBX 14 20 0 -2
BITMAP
00000000000067
000000000003F5
00000000007E90
0000000000E5B0
0000000000DD60
000000002BFF50
00000004DAFF20
0000004E3AFE00
000002E60DFB00
00000CC01FF700
07CEEFC66FF400
9F84FD36DFF100
BF39F600BFD000
022FE100EF9000
008FA003FF6000
00EF5006FF3000
03FF100AFE0000
06FD000DFB0000
07FB0000000000
01CB0000000000
ENDCHAR
STARTCHAR aringacute
ENCODING 507
SWIDTH 526 0
DWIDTH 9 0
BBX 12 15 -1 0
BITMAP
000000057000
0000002F6000
000003CC0000
00000A2B0000
000008FB0000
000000100000
0006DFAFF800
008FE48FF500
04FF507FF200
0BFD00AFD000
1FF900DFA000
3FF702FF7021
3FF707FF50B0
1EFEACFFDC50
04DE919EC500
ENDCHAR
STARTCHAR AEacute
ENCODING 508
SWIDTH 764 0
DWIDTH 14 0
BBX 17 20 0 -2
BITMAP
000000000000176000
0000000000007E2000
000000000001E40000
000000000003500000
000000000000000000
0000000029ED821620
00000004DAFFCFFA00
0000004E3AFF101000
000002E70DFC000000
00000CC01FF8000000
07CEEFB45FF6110000
9F94FC37EFFFFD0000
CF39F600BFD4430000
242FE100EFA0000000
008FA003FF60000000
00EF5006FF30000000
03FF1009FFDDDD0000
06FD000DFFFFFC0000
07FB00000000000000
02CB00000000000000
ENDCHAR
STARTCHAR aeacute
ENCODING 509
SWIDTH 650 0
DWIDTH 12 0
BBX 14 13 -1 0
BITMAP
000000000AF300
000000003F6000
00000000BB0000
00000000100000
0007DFD88DFC10
005823FFFB3F50
000000DFE13F30
000001FF94EA00
018CEEFFFE7000
0CFE58FF400011
2FF70AFF400190
1FF93EFF924A10
06EFB3AEFC7000
ENDCHAR
STARTCHAR Oslashacute
ENCODING 510
SWIDTH 658 0
DWIDTH 12 0
BBX 12 19 0 -1
BITMAP
000000000BE2
000000003F70
00000000AC00
000000007300
000000000000
00000003B000
00049CEFD600
02BEBFDC9F90
1EC3EF3E1FF2
9F2BFA2D0EF5
AE3FF4690FF5
159FE0963FF3
00DFB0C36FE0
00FF80E0CFA0
01FF73B4FF30
00FF868CF800
00BFDBEF9000
001AEFA40000
00002C000000
ENDCHAR
STARTCHAR oslashacute
ENCODING 511
SWIDTH 428 0
DWIDTH 8 0
BBX 11 14 -2 -1
BITMAP
00000005F700
0000000DB000
0000006E2000
000000110000
00004CED4C30
0007FE4AF400
003FF609F000
00BFE15FE000
01FFA3DCC000
03FF9D3E8000
03FFF55F2000
01FFB3E60000
00CDEC500000
1B5000000000
ENDCHAR
STARTCHAR uni0200
ENCODING 512
SWIDTH 668 0
DWIDTH 12 0
BBX 13 20 0 -2
BITMAP
0000004F75F600
00000006E18D10
00000000990A70
00000000000000
00000000000000
0000000029EE40
00000003CAFF30
0000003D3AFE00
000002E60DFB00
00000CC01FF800
07CEEFC66FF400
9F84FD36DFF100
BF39F600BFD000
022FE100EF9000
008FA003FF6000
00EF5006FF3000
03FF100AFE0000
06FD000DFB0000
07FB0000000000
01CB0000000000
ENDCHAR
STARTCHAR uni0201
ENCODING 513
SWIDTH 526 0
DWIDTH 9 0
BBX 12 13 -1 0
BITMAP
004F75F60000
0007E18D0000
0000990A7000
000000000000
0006DFAFF800
008FE48FF500
04FF507FF200
0BFD00AFD000
1FF900DFA000
3FF702FF7021
3FF707FF50B0
1EFEACFFDC50
04DE919EC500
ENDCHAR
STARTCHAR uni0202
ENCODING 514
SWIDTH 668 0
DWIDTH 12 0
BBX 15 19 0 -2
BITMAP
0000000005BED700
000000006F738F50
0000000097001A50
0000000000000000
0000000029EE4000
00000003CAFF3000
0000003D3AFE0000
000002E60DFB0000
00000CC01FF80000
07CEEFC66FF40000
9F84FD36DFF10000
BF39F600BFD00000
022FE100EF900000
008FA003FF600000
00EF5006FF300000
03FF100AFE000000
06FD000DFB000000
07FB000000000000
01CB000000000000
ENDCHAR
STARTCHAR uni0203
ENCODING 515
SWIDTH 526 0
DWIDTH 9 0
BBX 12 12 -1 0
BITMAP
00006CEEA100
0007F624F900
000220002200
0006DFAFF800
008FE48FF500
04FF507FF200
0BFD00AFD000
1FF900DFA000
3FF702FF7021
3FF707FF50B0
1EFEACFFDC50
04DE919EC500
ENDCHAR
STARTCHAR uni0204
ENCODING 516
SWIDTH 459 0
DWIDTH 8 0
BBX 9 18 0 0
BITMAP
00AE2BE100
000C91D800
0001D32D20
0000000000
0000000000
00018DEB20
000CF82BB0
006FD00AC0
009FB01C40
007FE10000
001DFB1000
04EFB10000
2EFD100000
9FF7000000
CFF4000040
CFF9002A30
7FFFEEE500
07DED92000
ENDCHAR
STARTCHAR uni0205
ENCODING 517
SWIDTH 384 0
DWIDTH 7 0
BBX 9 13 -1 0
BITMAP
06F58F4000
009D0AC000
000B60C500
0000000000
0006DFD300
008FD3D800
04FF31E600
0BFC2CD100
0FFFE91000
3FF8000220
3FF8002A10
1EFE89C200
04CED81000
ENDCHAR
STARTCHAR uni0206
ENCODING 518
SWIDTH 459 0
DWIDTH 8 0
BBX 11 17 0 0
BITMAP
000018DEB300
0000CD43DD00
0003B3005B10
000000000000
00018DEB2000
000CF82BB000
006FD00AC000
009FB01C4000
007FE1000000
001DFB100000
04EFB1000000
2EFD10000000
9FF700000000
CFF400004000
CFF9002A3000
7FFFEEE50000
07DED9200000
ENDCHAR
STARTCHAR uni0207
ENCODING 519
SWIDTH 384 0
DWIDTH 7 0
BBX 9 12 -1 0
BITMAP
0018DFD700
00CD428F40
0031001310
0006DFD300
008FD3D800
04FF31E600
0BFC2CD100
0FFFE91000
3FF8000120
3FF7000910
1EFC239300
04CFD81000
ENDCHAR
STARTCHAR uni0208
ENCODING 520
SWIDTH 375 0
DWIDTH 7 0
BBX 8 18 0 0
BITMAP
07F48F30
009C0AB0
000B61C4
00000000
00000000
0005AEF1
02C5DFC0
2E61FF90
AE04FF60
DC07FF20
7C0AFE00
000EFB00
002FF700
005FF400
008FF100
00CFC000
00FF9000
03FF6000
ENDCHAR
STARTCHAR uni0209
ENCODING 521
SWIDTH 267 0
DWIDTH 5 0
BBX 8 13 -2 0
BITMAP
5F67F500
08D19C00
00A70B60
00000000
000DFB00
002FF700
005FF400
008FF100
00BFD000
00EF9012
02FF70A4
01FFECA0
007ED700
ENDCHAR
STARTCHAR uni020A
ENCODING 522
SWIDTH 375 0
DWIDTH 7 0
BBX 9 17 0 0
BITMAP
00029DEA10
002EB34EA0
005A100790
0000000000
0005ADF100
02C8DFC000
2E81FF9000
AF14FF6000
DD07FF2000
8C0AFE0000
010DFB0000
002FF70000
005FF40000
008FF10000
00CFC00000
00FF900000
03FF600000
ENDCHAR
STARTCHAR uni020B
ENCODING 523
SWIDTH 267 0
DWIDTH 5 0
BBX 7 12 -1 0
BITMAP
019EE900
0DA24F50
02000210
00DFB000
02FF7000
05FF4000
08FF1000
0BFD0000
0EF90120
2FF70A40
1FFECA00
07ED7000
ENDCHAR
STARTCHAR uni020C
ENCODING 524
SWIDTH 665 0
DWIDTH 12 0
BBX 12 18 0 0
BITMAP
0003E94F7000
00005F26E100
000007A09900
000000000000
000000000000
00017BEFEA20
007EA5547FE1
0AE44EE30CF8
6F62EF6009FB
AF1BFD000AFC
7E3FF7000BFB
028FF2000EF8
00CFD0003FF4
00EFB0009FE1
01FF9002EF70
00EFB00AFC00
009FF8BFD100
0019EFD81000
ENDCHAR
STARTCHAR uni020D
ENCODING 525
SWIDTH 433 0
DWIDTH 8 0
BBX 11 13 -1 0
BITMAP
08F49F200000
00AC0BA00000
000C51D40000
000000000000
0007DFC20000
009FD3BA0010
05FF41DD3890
0CFC01EE8300
2FF800DA0000
4FF602F70000
5FF609E10000
2FFDBF600000
05DFC5000000
ENDCHAR
STARTCHAR uni020E
ENCODING 526
SWIDTH 665 0
DWIDTH 12 0
BBX 12 17 0 0
BITMAP
0000003AED91
000004F936F7
000007900097
000000000000
00017BEFEA20
007EA5547FE1
0AE44EE30CF8
6F62EF6009FB
AF1BFD000AFC
7E3FF7000BFB
028FF2000EF8
00CFD0003FF4
00EFB0009FE1
01FF9002EF70
00EFB00AFC00
009FF8BFD100
0019EFD81000
ENDCHAR
STARTCHAR uni020F
ENCODING 527
SWIDTH 433 0
DWIDTH 8 0
BBX 11 12 -1 0
BITMAP
0004BEEB2000
005F723EA000
002300033000
0007DFC20000
009FD3CA0000
05FF40DC1690
0CFD01EE9400
2FF900CA0000
4FF601F70000
5FF506E10000
2FF83E600000
05DFC5000000
ENDCHAR
STARTCHAR uni0210
ENCODING 528
SWIDTH 601 0
DWIDTH 11 0
BBX 11 18 0 0
BITMAP
007F49F30000
000AC0BB0000
0000C51C4000
000000000000
000000000000
0006BEFEA300
03DD6333DF30
3EA0DF906F70
BF13FF50AF40
DC06FF27F700
5A09FFFFD300
000DFB3DFB00
001FF70AFB00
005FF30CF900
008FF11FF600
00BFC05FF200
00EF908FF000
03FF605EF300
ENDCHAR
STARTCHAR uni0211
ENCODING 529
SWIDTH 376 0
DWIDTH 7 0
BBX 8 13 -1 0
BITMAP
3F85F700
05E27E10
00890980
00000000
00DFB8EA
01FFEBFE
05FF50B7
08FF1000
0BFD0000
0EFA0000
2FF70000
6FF30000
9FF00000
ENDCHAR
STARTCHAR uni0212
ENCODING 530
SWIDTH 601 0
DWIDTH 11 0
BBX 11 17 0 0
BITMAP
000018DEB300
0000CD43DD00
0003A3005A10
000000000000
0006BEFEA300
03DD6333DF30
3EA0DF906F70
BF13FF50AF40
DC06FF27F700
5A09FFFFD300
000DFB3DFB00
001FF70AFB00
005FF30CF900
008FF11FF600
00BFC05FF200
00EF908FF000
03FF605EF300
ENDCHAR
STARTCHAR uni0213
ENCODING 531
SWIDTH 376 0
DWIDTH 7 0
BBX 9 12 -1 0
BITMAP
0018DFE800
00BD427F50
0021000210
00DFB8EA00
01FFEBFE00
05FF50B700
08FF100000
0BFD000000
0EFA000000
2FF7000000
6FF3000000
9FF0000000
ENDCHAR
STARTCHAR uni0214
ENCODING 532
SWIDTH 716 0
DWIDTH 13 0
BBX 15 18 -1 0
BITMAP
000000AE2BE10000
0000001C91D80000
00000001D32D2000
0000000000000000
0000000000000000
00006ADF6001FF70
004D98FF3004FF40
04F709FD0008FF10
0DD00DF9000BFD00
1FA02FF5000EF900
0AA06FF1003FF600
0000AFC0007FF200
0000DF8000AFE000
0002FF4001EF9000
0004FF2005FF4000
0004FF401DFB0000
0001EFECEFD20000
00004CFED8200000
ENDCHAR
STARTCHAR uni0215
ENCODING 533
SWIDTH 505 0
DWIDTH 9 0
BBX 11 13 -1 0
BITMAP
04F85F600000
006E17E10000
000890970000
000000000000
00DFB07FF200
02FF70AFE000
05FF40DFB000
08FF11FF8000
0BFD04FF4000
0EF908FF1030
2FF81DFE0480
1FFEDCFFCD10
07ED62CEA200
ENDCHAR
STARTCHAR uni0216
ENCODING 534
SWIDTH 716 0
DWIDTH 13 0
BBX 15 17 -1 0
BITMAP
000000003ADD9100
00000003F935F800
00000007A0009800
0000000000000000
00006ADF6001FF70
004D98FF3004FF40
04F709FD0008FF10
0DD00DF9000BFD00
1FA02FF5000EF900
0AA06FF1003FF600
0000AFC0007FF200
0000DF8000AFE000
0002FF4001EF9000
0004FF2005FF4000
0004FF401DFB0000
0001EFECEFD20000
00004CFED8200000
ENDCHAR
STARTCHAR uni0217
ENCODING 535
SWIDTH 505 0
DWIDTH 9 0
BBX 11 12 -1 0
BITMAP
0003AEFC4000
002EA22CE000
001200012000
00DFB07FF200
02FF70AFE000
05FF40DFB000
08FF11FF8000
0BFD04FF4000
0EF908FF1030
2FF81DFE0480
1FFEDCFFCD10
07ED62CEA200
ENDCHAR
STARTCHAR Scommaaccent
ENCODING 536
SWIDTH 570 0
DWIDTH 10 0
BBX 10 18 0 -5
BITMAP
00007DFE91
000BFC33EA
003FF500DE
003FF804F9
000DFE3010
0003EFE300
00005FFE20
017717FFB0
0CFC50CFF2
5FD0007FF3
5FB000AFE0
1DF749FF40
02AEFD9200
0000000000
000DA00000
000BB00000
000A300000
0001000000
ENDCHAR
STARTCHAR scommaaccent
ENCODING 537
SWIDTH 382 0
DWIDTH 7 0
BBX 9 15 -1 -5
BITMAP
0003793000
000BFF5000
001EFF5000
0078FF7000
00C3FF8000
0661FF9000
3E90FFA330
8A20FFD900
6B28FF6000
09EEB30000
0000000000
01DA000000
00BB000000
00A3000000
0010000000
ENDCHAR
STARTCHAR uni021A
ENCODING 538
SWIDTH 481 0
DWIDTH 9 0
BBX 13 18 0 -5
BITMAP
0039DEFD941280
07E73BFFFFFFA0
4F500EFE9BDB20
AE002FFA000000
DC005FF6000000
BC009FF3000000
2700CFE0000000
0000FFB0000000
0003FF70000000
0006FF40000000
000AFF00000000
000DFC00000000
001FF800000000
00000000000000
000DA000000000
000BB000000000
000A3000000000
00010000000000
ENDCHAR
STARTCHAR uni021B
ENCODING 539
SWIDTH 267 0
DWIDTH 5 0
BBX 7 17 -1 -5
BITMAP
0028A400
007FF200
00AFE000
07FFFC00
01FF9100
04FF5000
07FF2000
0AFD0000
0EFA0110
1FF70940
1FFEBA00
07ED8000
00000000
0CC00000
0AD00000
09400000
01000000
ENDCHAR
STARTCHAR uni021E
ENCODING 542
SWIDTH 665 0
DWIDTH 12 0
BBX 13 19 0 0
BITMAP
00000003200340
00000002C3AA10
00000000DF9000
00000000880000
00000000000000
00000000000000
0005ADF203FF60
02C5BFE007FF20
1E70EFA00AFE00
9F13FF700EFB00
BE06FF413FF700
4C09FFFFFFF400
000CFC44AFF100
001FF800CFD000
004FF500FF9000
007FF203FF6000
00AFE006FF3000
00DFB00AFE0000
01FF700DFB0000
ENDCHAR
STARTCHAR uni021F
ENCODING 543
SWIDTH 600 0
DWIDTH 11 0
BBX 12 17 -1 0
BITMAP
000000500161
000000966D40
0000005FE300
0000001D3000
000353000000
003FF6000000
006FF2000000
00AFD0000000
00DFDBEC2000
01FFC3EF9000
04FF40DFA000
08FF01FF8000
0BFC04FF5000
0EF907FF2000
2FF609FE0190
5FF308FE2920
9FF001BEC400
ENDCHAR
STARTCHAR uni0237
ENCODING 567
SWIDTH 240 0
DWIDTH 4 0
BBX 9 13 -4 -4
BITMAP
00000DFB00
00001FF800
00005FF400
00008FF100
0000BFD000
0000EFA030
0003FF61A0
0006FF4920
000AFF9200
06EFFB0000
6C3FF80000
988FF20000
3CEC400000
ENDCHAR
STARTCHAR uni0259
ENCODING 601
SWIDTH 404 0
DWIDTH 7 0
BBX 7 9 0 0
BITMAP
06CED910
0A33EF80
0000BFD0
018DFFD0
1DD4FFB0
9E24FF60
E80AFD10
E95FE300
6EEA2000
ENDCHAR
STARTCHAR uni0292
ENCODING 658
SWIDTH 442 0
DWIDTH 8 0
BBX 9 13 0 -4
BITMAP
09FFFFE100
6F53EF6000
291AFC0000
005FF30000
01DF900000
05FF300020
01BFC00560
005FF22B10
003FFCA100
06CFF60000
A87FF30000
E3CFB00000
7EEA100000
ENDCHAR
STARTCHAR uni02BB
ENCODING 699
SWIDTH 241 0
DWIDTH 4 0
BBX 3 5 2 9
BITMAP
0010
0740
5E10
BF90
7E60
ENDCHAR
STARTCHAR uni02BC
ENCODING 700
SWIDTH 228 0
DWIDTH 4 0
BBX 3 4 2 10
BITMAP
2E90
2EC0
0B60
1800
ENDCHAR
STARTCHAR circumflex
ENCODING 710
SWIDTH 293 0
DWIDTH 5 0
BBX 6 4 0 10
BITMAP
000320
005F80
06FBC0
7920A2
ENDCHAR
STARTCHAR caron
ENCODING 711
SWIDTH 294 0
DWIDTH 5 0
BBX 6 4 1 10
BITMAP
140026
0D38C2
09FC10
04B100
ENDCHAR
STARTCHAR uni02C9
ENCODING 713
SWIDTH 421 0
DWIDTH 8 0
BBX 7 2 2 10
BITMAP
9EEEEE20
12222200
ENDCHAR
STARTCHAR uni02CA
ENCODING 714
SWIDTH 256 0
DWIDTH 5 0
BBX 4 4 2 10
BITMAP
0383
0BD1
3F30
A700
ENDCHAR
STARTCHAR uni02CB
ENCODING 715
SWIDTH 274 0
DWIDTH 5 0
BBX 4 3 2 10
BITMAP
1EC0
07E0
01E2
ENDCHAR
STARTCHAR breve
ENCODING 728
SWIDTH 431 0
DWIDTH 8 0
BBX 7 3 1 10
BITMAP
67000750
9F528F40
1AEEB400
ENDCHAR
STARTCHAR dotaccent
ENCODING 729
SWIDTH 250 0
DWIDTH 5 0
BBX 3 3 1 11
BITMAP
6C50
EFC0
8E70
ENDCHAR
STARTCHAR ring
ENCODING 730
SWIDTH 156 0
DWIDTH 3 0
BBX 3 4 0 9
BITMAP
6E60
E5C0
BF70
0100
ENDCHAR
STARTCHAR ogonek
ENCODING 731
SWIDTH 291 0
DWIDTH 5 0
BBX 5 5 0 -5
BITMAP
029100
0D6000
2F7050
0CFD40
002000
ENDCHAR
STARTCHAR tilde
ENCODING 732
SWIDTH 403 0
DWIDTH 7 0
BBX 8 2 0 10
BITMAP
04CFEB87
188CEE91
ENDCHAR
STARTCHAR hungarumlaut
ENCODING 733
SWIDTH 436 0
DWIDTH 8 0
BBX 7 3 1 10
BITMAP
01EA2F90
09C1AB00
2D23D100
ENDCHAR
STARTCHAR gravecomb
ENCODING 768
SWIDTH 0 0
DWIDTH 0 0
BBX 4 3 -4 10
BITMAP
1EC0
07E0
01E2
ENDCHAR
STARTCHAR acutecomb
ENCODING 769
SWIDTH 0 0
DWIDTH 0 0
BBX 4 4 -4 10
BITMAP
0076
05F4
0C80
4C00
ENDCHAR
STARTCHAR uni0302
ENCODING 770
SWIDTH 0 0
DWIDTH 0 0
BBX 6 4 -5 10
BITMAP
000320
004E80
06EBC0
7A20A2
ENDCHAR
STARTCHAR tildecomb
ENCODING 771
SWIDTH 0 0
DWIDTH 0 0
BBX 8 2 -7 10
BITMAP
06DFDA84
389CFD70
ENDCHAR
STARTCHAR uni0304
ENCODING 772
SWIDTH 0 0
DWIDTH 0 0
BBX 7 2 -6 10
BITMAP
3EEEEE80
12222210
ENDCHAR
STARTCHAR uni0306
ENCODING 774
SWIDTH 0 0
DWIDTH 0 0
BBX 7 3 -6 10
BITMAP
57000660
7F527F50
19EEB400
ENDCHAR
STARTCHAR uni0307
ENCODING 775
SWIDTH 0 0
DWIDTH 0 0
BBX 4 3 -3 11
BITMAP
08C3
2FFA
0BE5
ENDCHAR
STARTCHAR uni0308
ENCODING 776
SWIDTH 0 0
DWIDTH 0 0
BBX 6 3 -5 10
BITMAP
010020
BF27F6
9E26E5
ENDCHAR
STARTCHAR hookabovecomb
ENCODING 777
SWIDTH 0 0
DWIDTH 0 0
BBX 4 5 -4 9
BITMAP
AEB1
43D7
00C3
5A20
1100
ENDCHAR
STARTCHAR uni030A
ENCODING 778
SWIDTH 0 0
DWIDTH 0 0
BBX 4 4 -3 9
BITMAP
0AD3
3C88
2EE4
0110
ENDCHAR
STARTCHAR uni030B
ENCODING 779
SWIDTH 0 0
DWIDTH 0 0
BBX 7 3 -6 10
BITMAP
01EA2F90
09C1AB00
2D23D100
ENDCHAR
STARTCHAR uni030C
ENCODING 780
SWIDTH 0 0
DWIDTH 0 0
BBX 6 4 -5 10
BITMAP
140025
0D39C1
0AFB10
05A100
ENDCHAR
STARTCHAR uni030F
ENCODING 783
SWIDTH 0 0
DWIDTH 0 0
BBX 7 3 -6 10
BITMAP
BE2CE100
1C91D700
02D23D10
ENDCHAR
STARTCHAR uni0311
ENCODING 785
SWIDTH 0 0
DWIDTH 0 0
BBX 8 3 -7 10
BITMAP
007CEC50
0BD53BF1
19400392
ENDCHAR
STARTCHAR uni031B
ENCODING 795
SWIDTH 0 0
DWIDTH 0 0
BBX 4 4 -3 8
BITMAP
02E5
02F5
07C0
1C20
ENDCHAR
STARTCHAR dotbelowcomb
ENCODING 803
SWIDTH 0 0
DWIDTH 0 0
BBX 4 3 -4 -4
BITMAP
0AB2
4FF7
1CE3
ENDCHAR
STARTCHAR uni0324
ENCODING 804
SWIDTH 0 0
DWIDTH 0 0
BBX 6 3 -8 -4
BITMAP
010020
BF37F6
9E26E5
ENDCHAR
STARTCHAR uni0326
ENCODING 806
SWIDTH 0 0
DWIDTH 0 0
BBX 3 4 -5 -5
BITMAP
2E70
1D80
1B10
0100
ENDCHAR
STARTCHAR uni0327
ENCODING 807
SWIDTH 0 0
DWIDTH 0 0
BBX 5 6 -7 -5
BITMAP
002000
01B000
07DC40
224F90
2EFC20
001000
ENDCHAR
STARTCHAR uni0328
ENCODING 808
SWIDTH 0 0
DWIDTH 0 0
BBX 5 5 -7 -5
BITMAP
048000
2F2000
6F3140
2EFC20
002000
ENDCHAR
STARTCHAR uni032E
ENCODING 814
SWIDTH 0 0
DWIDTH 0 0
BBX 6 3 -8 -3
BITMAP
450035
7E45E7
19DC60
ENDCHAR
STARTCHAR uni0331
ENCODING 817
SWIDTH 0 0
DWIDTH 0 0
BBX 7 2 -9 -4
BITMAP
2EEEEE90
02222210
ENDCHAR
STARTCHAR uni0335
ENCODING 821
SWIDTH 0 0
DWIDTH 0 0
BBX 7 2 -7 3
BITMAP
BEEEEE20
22222200
ENDCHAR
STARTCHAR uni0394
ENCODING 916
SWIDTH 619 0
DWIDTH 11 0
BBX 11 15 0 -1
BITMAP
000000023000
0000003FF300
000000BFF600
000005F9F800
00000DB2FA00
00007F20FD00
0002E900DF00
000AE100BF20
003F60009F40
00CC00007F70
06F400005F90
1DA000002FB0
8F4222222FE0
BFFFFFFFFFF0
344444444440
ENDCHAR
STARTCHAR uni03A9
ENCODING 937
SWIDTH 745 0
DWIDTH 13 0
BBX 13 15 0 -1
BITMAP
00000026872000
000019FFFFF600
0001CE7215EF20
000BD200006F70
006F4000001F90
00CB0000000F90
02F70000001F70
04F40000004F40
05F30000008E00
03F4000001E700
00E800000AB000
007E10007D2000
022CA008D32100
5FFFE01FFFF900
24443014444200
ENDCHAR
STARTCHAR uni03BC
ENCODING 956
SWIDTH 505 0
DWIDTH 9 0
BBX 12 12 -2 -3
BITMAP
000DFB07FF20
001FF70AFE00
005FF40DFB00
008FF11FF800
00BFD04FF500
00EFA07FF100
02FF80DFE039
05FFDCCFFBC2
09FFD62CEB30
0CFC00000000
0FF900000000
3C8300000000
ENDCHAR
STARTCHAR pi
ENCODING 960
SWIDTH 530 0
DWIDTH 10 0
BBX 11 10 -1 0
BITMAP
022222222210
1FFFFFFFFF60
14AE445F9410
00BB003F3000
00E7007F0000
02F400AC0000
05F100D90000
09D001F60000
0CA004F40000
0E6001DB0000
ENDCHAR
STARTCHAR uni0400
ENCODING 1024
SWIDTH 459 0
DWIDTH 8 0
BBX 9 17 0 0
BITMAP
00001EB000
000008D000
000002F100
0000000000
00018DEB20
000CF82BB0
006FD00AC0
009FB01C40
007FE10000
001DFB1000
04EFB10000
2EFD100000
9FF7000000
CFF4000040
CFF9002A30
7FFFEEE500
07DED92000
ENDCHAR
STARTCHAR uni0401
ENCODING 1025
SWIDTH 459 0
DWIDTH 8 0
BBX 10 17 0 0
BITMAP
0000010020
0000AF46F7
00008E35E6
0000000000
00018DEB20
000CF82BB0
006FD00AC0
009FB01C40
007FE10000
001DFB1000
04EFB10000
2EFD100000
9FF7000000
CFF4000040
CFF9002A30
7FFFEEE500
07DED92000
ENDCHAR
STARTCHAR uni0402
ENCODING 1026
SWIDTH 725 0
DWIDTH 13 0
BBX 13 17 0 -4
BITMAP
0039DEFFFFFFE0
08E73AFF8BDC50
5F500CFC000000
AF001FF9000000
BE004FF5000000
4B007FFADEB100
0000AFE53EF900
0000DFA00CFC00
0002FF700DFA00
0005FF400FF700
0008FF103FF400
000BFD008FE000
000EFA00CF8000
00000003FE1000
0000012CF60000
00001DFE600000
00000010000000
ENDCHAR
STARTCHAR uni0403
ENCODING 1027
SWIDTH 400 0
DWIDTH 7 0
BBX 12 18 0 0
BITMAP
000000000770
000000003F60
00000000AA00
00000002D100
000000000000
0028CEFFFFF5
07F8CFEACDA0
4F80DFB00000
AF31FF800000
BF15FF400000
5E28FF100000
000BFD000000
000EF9000000
003FF6000000
006FF3000000
00AFE0000000
00DFB0000000
01FF80000000
ENDCHAR
STARTCHAR uni0404
ENCODING 1028
SWIDTH 497 0
DWIDTH 9 0
BBX 10 13 0 0
BITMAP
00018DFD80
001DFD33E7
00BFE200E9
05FF8005C3
0CFF200000
2FFFEEE300
6FF9222000
8FF7000000
9FF5000000
9FF6000000
7FF8000073
2EFE523960
03BEFD9200
ENDCHAR
STARTCHAR uni0405
ENCODING 1029
SWIDTH 570 0
DWIDTH 10 0
BBX 10 13 0 0
BITMAP
00007DFE91
000BFC33EA
003FF500DE
003FF804F9
000DFE3010
0003EFE300
00005FFE20
017717FFB0
0CFC50CFF2
5FD0007FF3
5FB000AFE0
1DF749FF40
02AEFD9200
ENDCHAR
STARTCHAR uni0406
ENCODING 1030
SWIDTH 374 0
DWIDTH 7 0
BBX 8 13 0 0
BITMAP
0004ADF2
01B9BFE0
1D90EFB0
8F22FF70
BE05FF40
7E09FF10
010CFC00
000FF900
003FF600
007FF200
00AFE000
00DFB000
01FF8000
ENDCHAR
STARTCHAR uni0407
ENCODING 1031
SWIDTH 375 0
DWIDTH 7 0
BBX 9 17 0 0
BITMAP
0000200100
0006F73FB0
0005E62E90
0000000000
0005ADF100
02C8DFC000
2E81FF9000
AF14FF6000
DD07FF2000
8C0AFE0000
010DFB0000
002FF70000
005FF40000
008FF10000
00CFC00000
00FF900000
03FF600000
ENDCHAR
STARTCHAR uni0408
ENCODING 1032
SWIDTH 536 0
DWIDTH 10 0
BBX 11 17 0 -4
BITMAP
00000039DF40
00001ADBFF10
0000BD1BFD00
0006F50EF900
0009F23FF600
0005F17FF200
000011AFE000
000000EFB000
000003FF7000
000006FF4000
00000AFF1000
00100DFC0000
2CFE4FF80000
9E227FF30000
9E21CF900000
2CFFE8000000
001100000000
ENDCHAR
STARTCHAR uni0409
ENCODING 1033
SWIDTH 817 0
DWIDTH 15 0
BBX 16 15 -1 -2
BITMAP
00000002AEE40000
0000005DBFF20000
000005E2BFD00000
00003E50EF900000
0001DB02FF600000
0009F306FFCDD910
003FA009FE34EF90
00CF400CFB008FE0
05FD001FF8007FF1
0BF7004FF5009FE0
2FF3007FF402EF80
6FE000AFD8EFFD10
8FB000EFA3DEB200
5FA0000000000000
0450000000000000
ENDCHAR
STARTCHAR uni040A
ENCODING 1034
SWIDTH 931 0
DWIDTH 17 0
BBX 17 13 0 0
BITMAP
0005ADF203FF600000
02CBCFE007FF200000
2EA0DFA00AFE000000
9F21FF700DFA000000
BE05FF302FF7000000
4A08FFEEEFFCDD9100
000BFC22AFF34DFA00
000FF800CFC007FF00
003FF501FF9006FF10
006FF203FF5009FE00
00AFE007FF402EF900
00DFB00AFE8EFFE200
01FF700DFB3DEB3000
ENDCHAR
STARTCHAR uni040B
ENCODING 1035
SWIDTH 745 0
DWIDTH 13 0
BBX 13 13 0 0
BITMAP
0039DEFFFFFFE0
08E73AFF8BDC50
5F500CFC000000
AF001FF9000000
BE004FF5000000
4B007FFACEB100
0000AFE53EF900
0000DFA00CFB00
0002FF700DFA00
0005FF401FF800
0008FF105FF400
000BFD007FF200
000EFA004EF500
ENDCHAR
STARTCHAR uni040C
ENCODING 1036
SWIDTH 635 0
DWIDTH 11 0
BBX 13 18 0 0
BITMAP
00000000067000
000000003F6000
00000000AB0000
00000002D10000
00000000000000
0005ADF219ED10
03D9CFD1CDDF20
2E90EFAAB11100
9F12FFAD100000
BE05FFE4000000
2808FFEDC30000
000CFB0AFC0000
000FF808FD0000
003FF50BFB0000
007FF20EF70000
00AFE04FF40000
00DFA06FF10000
01FF703EF40000
ENDCHAR
STARTCHAR uni040D
ENCODING 1037
SWIDTH 705 0
DWIDTH 13 0
BBX 14 17 0 0
BITMAP
0000000AF20000
00000003F40000
00000000A70000
00000000000000
0004ADF200AFF2
01B9BFE004FFD0
1DA0EFB00CFFA0
8F22FF706FFF70
BE05FF41EDFF30
7E09FF19D9FF00
010CFD3F4CFC00
000FF9BA1FF800
003FFBE24FF500
007FFF707FF200
00AFFD00AFD000
00DFF400EFA000
01FFA002FF7000
ENDCHAR
STARTCHAR uni040E
ENCODING 1038
SWIDTH 644 0
DWIDTH 12 0
BBX 13 17 0 0
BITMAP
0000003EA00660
0000006FB27C00
0000001AED9100
00000000000000
0004ADF50009A0
01BC8FF9001E30
1DB01FFD007B00
8F300CFF10D500
BE0007FF55D000
6E0003FF9C7000
000000EFEE1000
0000009FF80000
0000005FF20000
0000001FA00000
0000651E300000
0004FFCA000000
0001CEA1000000
ENDCHAR
STARTCHAR uni040F
ENCODING 1039
SWIDTH 665 0
DWIDTH 12 0
BBX 13 19 0 -6
BITMAP
0004ADF203FF60
01B9BFE006FF20
1D90EFB00AFE00
8F22FF700DFB00
BE05FF401FF700
7E09FF105FF400
010CFC008FF100
000FF900BFD000
003FF500EF9000
007FF203FF6000
00AFE006FF3000
00DFC55BFE0000
01FFFFFFFB0000
00004600000000
0001FB00000000
0001FF60000000
00009FC0000000
00001F90000000
00001A10000000
ENDCHAR
STARTCHAR uni0410
ENCODING 1040
SWIDTH 668 0
DWIDTH 12 0
BBX 13 15 0 -2
BITMAP
0000000029EE40
00000003CAFF30
0000003D3AFE00
000002E60DFB00
00000CC01FF800
07CEEFC66FF400
9F84FD36DFF100
BF39F600BFD000
022FE100EF9000
008FA003FF6000
00EF5006FF3000
03FF100AFE0000
06FD000DFB0000
07FB0000000000
01CB0000000000
ENDCHAR
STARTCHAR uni0411
ENCODING 1041
SWIDTH 638 0
DWIDTH 11 0
BBX 12 13 0 0
BITMAP
0049DEFFFFF4
09D6FFCACDA0
7F22FF600000
CD06FF300000
DC09FE000000
4A0CFECEC400
001FF928FF30
004FF400EF80
007FF100EF90
00AFD001FF70
00EFA208FF20
02FF7FEFF800
05FF38ED7000
ENDCHAR
STARTCHAR uni0412
ENCODING 1042
SWIDTH 641 0
DWIDTH 12 0
BBX 11 13 0 0
BITMAP
0005ADFEB400
02CE7344CF40
1DD1CFB04F80
8F41FF707F50
BE04FF36F900
7E08FFFFF910
010BFC25FF90
000EF900AFD0
003FF6009FD0
006FF200CFA0
00AFE204FF50
00DFBBEFFB00
01FF76EE9100
ENDCHAR
STARTCHAR uni0413
ENCODING 1043
SWIDTH 400 0
DWIDTH 7 0
BBX 12 13 0 0
BITMAP
0028CEFFFFF5
07F8CFEACDA0
4F80DFB00000
AF31FF800000
BF15FF400000
5E28FF100000
000BFD000000
000EF9000000
003FF6000000
006FF3000000
00AFE0000000
00DFB0000000
01FF80000000
ENDCHAR
STARTCHAR uni0414
ENCODING 1044
SWIDTH 669 0
DWIDTH 12 0
BBX 13 13 -1 0
BITMAP
00004ADEEC6000
002CE7334CF900
01DC1BEC02FF30
08F31FF800DF80
0BE05FF500CFA0
06E08FF200DFA0
0000CFD000EF90
0001FFA002FF50
0004FF7006FF10
07DEFF300BFA00
4D4BFF004FF300
6A3EFD24EF6000
0AED94BED50000
ENDCHAR
STARTCHAR uni0415
ENCODING 1045
SWIDTH 459 0
DWIDTH 8 0
BBX 9 13 0 0
BITMAP
00018DEB20
000CF82BB0
006FD00AC0
009FB01C40
007FE10000
001DFB1000
04EFB10000
2EFD100000
9FF7000000
CFF4000040
CFF9002A30
7FFFEEE500
07DED92000
ENDCHAR
STARTCHAR uni0416
ENCODING 1046
SWIDTH 777 0
DWIDTH 14 0
BBX 16 13 -1 0
BITMAP
002CF9006AA02BE9
003FCF40FF92ECFB
00010993FF6AA010
000006B6FF5E2000
000005BAFE890000
000005ADFBC40000
0007DFFFFEFFC200
007FE55FF63EF800
00DF808FF10EF700
02FF40BFD02FF400
05FF10EF907FE000
09FD03FF60BFB000
4FE506FF208FD100
ENDCHAR
STARTCHAR uni0417
ENCODING 1047
SWIDTH 525 0
DWIDTH 9 0
BBX 10 13 -1 0
BITMAP
00006CEE91
0009724FFA
0036000DFD
0000002FFA
000002CFD2
0001EFFB10
000025EFB0
0000008FF5
0000006FF7
09D1008FF5
2FA000DFE1
1ED22AFE40
04BEED8200
ENDCHAR
STARTCHAR uni0418
ENCODING 1048
SWIDTH 705 0
DWIDTH 13 0
BBX 14 13 0 0
BITMAP
0004ADF200AFF2
01B9BFE004FFD0
1DA0EFB00CFFA0
8F22FF706FFF70
BE05FF41EDFF30
7E09FF19D9FF00
010CFD3F4CFC00
000FF9BA1FF800
003FFBE24FF500
007FFF707FF200
00AFFD00AFD000
00DFF400EFA000
01FFA002FF7000
ENDCHAR
STARTCHAR uni0419
ENCODING 1049
SWIDTH 705 0
DWIDTH 13 0
BBX 14 17 0 0
BITMAP
0000007F600A20
000000AF73A900
0000003CED7000
00000000000000
0004ADF200AFF2
01B9BFE004FFD0
1DA0EFB00CFFA0
8F22FF706FFF70
BE05FF41EDFF30
7E09FF19D9FF00
010CFD3F4CFC00
000FF9BA1FF800
003FFBE24FF500
007FFF707FF200
00AFFD00AFD000
00DFF400EFA000
01FFA002FF7000
ENDCHAR
STARTCHAR uni041A
ENCODING 1050
SWIDTH 635 0
DWIDTH 11 0
BBX 13 13 0 0
BITMAP
0005ADF219ED10
03D9CFD1CDDF20
2E90EFAAB11100
9F12FFAD100000
BE05FFE4000000
2808FFEDC30000
000CFB0AFC0000
000FF808FD0000
003FF50BFB0000
007FF20EF70000
00AFE04FF40000
00DFA06FF10000
01FF703EF40000
ENDCHAR
STARTCHAR uni041B
ENCODING 1051
SWIDTH 549 0
DWIDTH 10 0
BBX 12 15 -1 -2
BITMAP
00000002AEE4
0000004ECFF2
000004E4AFE0
00002E70EFB0
0000CD02FF70
0008F505FF40
002FC009FF10
00AF600CFC00
03FE100FF900
09F9004FF500
1EF4007FF200
4FF100AFE000
7FC000EFA000
7FA000000000
2CA000000000
ENDCHAR
STARTCHAR uni041C
ENCODING 1052
SWIDTH 787 0
DWIDTH 14 0
BBX 14 13 1 0
BITMAP
0006BEF5005FF6
02C78FF400BFF4
1D90DFF303FFF2
8F24FFF309FFE0
BF09FFF21EFFC0
5E1EDFF17EEFA0
005F8FF1D9FF80
00BB7FF5F5FF60
02F58FEBA5FF30
07E08FFF48FF10
0D909FFC0AFE00
4F30AFF60CFC00
9C00AFE10EFA00
ENDCHAR
STARTCHAR uni041D
ENCODING 1053
SWIDTH 665 0
DWIDTH 12 0
BBX 13 13 0 0
BITMAP
0005ADF203FF60
02C5BFE007FF20
1E70EFA00AFE00
9F13FF700EFB00
BE06FF413FF700
4C09FFFFFFF400
000CFC44AFF100
001FF800CFD000
004FF500FF9000
007FF203FF6000
00AFE006FF3000
00DFB00AFE0000
01FF700DFB0000
ENDCHAR
STARTCHAR uni041E
ENCODING 1054
SWIDTH 665 0
DWIDTH 12 0
BBX 12 13 0 0
BITMAP
00017BEFEA20
007EA5547FE1
0AE44EE30CF8
6F62EF6009FB
AF1BFD000AFC
7E3FF7000BFB
028FF2000EF8
00CFD0003FF4
00EFB0009FE1
01FF9002EF70
00EFB00AFC00
009FF8BFD100
0019EFD81000
ENDCHAR
STARTCHAR uni041F
ENCODING 1055
SWIDTH 688 0
DWIDTH 12 0
BBX 15 13 0 0
BITMAP
0039DEFFEEEDDE10
07F9CFE79DFFE800
4F70EFA00AFE0000
AF12FF700DFB0000
BE05FF302FF70000
5D09FF005FF40000
000CFC008FF10000
000FF900CFC00000
003FF500FF900000
007FF203FF600000
00AFE006FF300000
00DFB00AFE000000
01FF700DFB000000
ENDCHAR
STARTCHAR uni0420
ENCODING 1056
SWIDTH 573 0
DWIDTH 10 0
BBX 11 13 0 0
BITMAP
0005ADFD9200
02CC6225EE10
1DB0CEA08F80
9F22FF705FA0
DD06FF308F80
AC09FF00DF20
030DFB09F600
001FFCCC4000
004FF6100000
008FF1000000
00BFD0000000
00EF90000000
03FF60000000
ENDCHAR
STARTCHAR uni0421
ENCODING 1057
SWIDTH 497 0
DWIDTH 9 0
BBX 10 13 0 0
BITMAP
00018DFD80
001DFD43E6
00BFF300E9
05FF9005F6
0CFF300020
2FFD000000
6FFA000000
8FF7000000
9FF6000000
9FF5000000
7FF8000042
2EFE523970
03BEFD9300
ENDCHAR
STARTCHAR uni0422
ENCODING 1058
SWIDTH 481 0
DWIDTH 9 0
BBX 13 13 0 0
BITMAP
0039DEFD941280
07E73BFFFFFFA0
4F500EFE9BDB20
AE002FFA000000
DC005FF6000000
BC009FF3000000
2700CFE0000000
0000FFB0000000
0003FF70000000
0006FF40000000
000AFF00000000
000DFC00000000
001FF800000000
ENDCHAR
STARTCHAR uni0423
ENCODING 1059
SWIDTH 644 0
DWIDTH 12 0
BBX 13 13 0 0
BITMAP
0004ADF50009A0
01BC8FF9001E30
1DB01FFD007B00
8F300CFF10D500
BE0007FF55D000
6E0003FF9C7000
000000EFEE1000
0000009FF80000
0000005FF20000
0000001FA00000
0000651E300000
0004FFCA000000
0001CEA1000000
ENDCHAR
STARTCHAR uni0424
ENCODING 1060
SWIDTH 786 0
DWIDTH 14 0
BBX 14 15 0 0
BITMAP
00049CEED90000
008FA43DFA0000
00CE001FF70000
0038005FF60000
0005BCDFFCE910
02CE50CFD07FC0
0DF700FF900EF6
6FF103FF600CF9
9FE006FF300EF7
9FD009FE003FF4
7FF10DFC00BFB0
1EFA2FF82BFD10
02BFFFFFFD7100
00007FF4100000
00009FE0000000
ENDCHAR
STARTCHAR uni0425
ENCODING 1061
SWIDTH 620 0
DWIDTH 11 0
BBX 12 13 0 0
BITMAP
0005ADF404E1
02CB9FF70C60
2EA04FFA6C00
AF101FFEE300
DD000CFF9000
8C0009FF5000
010006FF8000
000006FFB000
00001DFFE000
00008ABFF300
0002E17FF600
000B604FF900
004C001FFC00
ENDCHAR
STARTCHAR uni0426
ENCODING 1062
SWIDTH 692 0
DWIDTH 12 0
BBX 13 16 0 -3
BITMAP
00049DF203FF60
02CCCFE006FF20
1DB0DFB00AFE00
8F31FF700DFB00
BE05FF401FF700
7E08FF105FF400
010BFC008FF100
000EF900BFC000
003FF600EF9000
006FF303FF6000
00AFE006FF3000
00DFC30AFE0000
01FFFFEEFB0000
000026DFFC6450
00000008FFFF90
000000004CFC20
ENDCHAR
STARTCHAR uni0427
ENCODING 1063
SWIDTH 695 0
DWIDTH 13 0
BBX 13 13 0 0
BITMAP
0005ADF200AFE0
03DACFD000EFB0
2E90DFA002FF70
AF12FF6006FF40
BE04FF300AFF10
2805FF703EFC00
0002FFFFFFF900
00006DEDAFF600
000000006FF200
00000000AFE000
00000000DFB000
00000001FF8000
00000005FF4000
ENDCHAR
STARTCHAR uni0428
ENCODING 1064
SWIDTH 906 0
DWIDTH 16 0
BBX 17 13 0 0
BITMAP
0004ADF20BFD00DFB0
01B9BFE00EF901FF70
1D90EFB03FF605FF40
8F22FF706FF308FF10
BE05FF40AFE00CFD00
7E09FF10DFB00FF900
010CFC01FF803FF600
000FF905FF406FF300
003FF508FF10AFE000
007FF20BFD00DFB000
00AFE00EF901FF8000
00DFC56FF958FF4000
01FFFFFFFFFFFF1000
ENDCHAR
STARTCHAR uni0429
ENCODING 1065
SWIDTH 934 0
DWIDTH 17 0
BBX 18 16 0 -3
BITMAP
0004ADF20BFD00DFB0
01BCCFE00EF901FF70
1DB0DFB03FF605FF40
8F31FF706FF308FF10
BE05FF40AFE00BFD00
7E08FF10DFB00EF900
010BFC01FF803FF600
000EF905FF406FF300
003FF608FF10AFE000
006FF20BFD00DFB000
00AFE00EFA01FF8000
00DFC45FF604FF5000
01FFFFFFF948FF1000
0010147CFFFFFE6451
0000000027CFFFFFE0
0000000000027CEE50
ENDCHAR
STARTCHAR uni042A
ENCODING 1066
SWIDTH 714 0
DWIDTH 13 0
BBX 13 13 0 0
BITMAP
0017CEFE700000
05B427FF400000
3F300AFF100000
9E000DFC000000
BF101FF8000000
6F604FFCDDA100
01007FF43DFB00
0000BFD006FF20
0000EFA005FF30
0002FF7007FF10
0005FF501DFB00
0009FF7EFFE300
000CFC2CEC3000
ENDCHAR
STARTCHAR uni042B
ENCODING 1067
SWIDTH 909 0
DWIDTH 16 0
BBX 17 13 0 0
BITMAP
0005ADF2000000CFC0
02CACFE0000001FF80
2E90DFA0000004FF50
9F22FF70000007FF20
BE05FF3000000AFD00
3A08FFBEC7000EFA00
000CFC35FF602FF700
000FF800BFC05FF300
003FF500AFD09FF000
007FF200CFB0CFC000
00AFE204FF61FF9000
00DFBBEFFC04FF5000
01FF75EE9107FF2000
ENDCHAR
STARTCHAR uni042C
ENCODING 1068
SWIDTH 640 0
DWIDTH 12 0
BBX 11 13 0 0
BITMAP
0005ADF20000
02CACFE00000
2E90DFA00000
9F22FF700000
BE05FF300000
3A08FFBEC700
000CFC35FF60
000FF800BFC0
003FF500AFD0
007FF200CFB0
00AFE204FF60
00DFBBEFFC00
01FF75EE9100
ENDCHAR
STARTCHAR uni042D
ENCODING 1069
SWIDTH 544 0
DWIDTH 10 0
BBX 11 13 -1 0
BITMAP
00007CEEB300
0019425FFE10
00810009FF60
00000006FF90
00000006FF90
0003EEEFFF80
0001222BFF50
0000000DFF10
0000003FFB00
0CC000AFF400
3F9003FF9000
1E802DFB0000
04CCEC600000
ENDCHAR
STARTCHAR uni042E
ENCODING 1070
SWIDTH 946 0
DWIDTH 17 0
BBX 17 13 0 0
BITMAP
0005ADF2019DFEA200
02CCCFE0066559FE20
1EB0DFA005EE20CF90
9F21FF703FF5009FC0
BE05FF41CFD0009FD0
4C08FFFFFF7000AFB0
000BFC4BFF2000DF90
000EF80CFE0002FF50
003FF50EFB0007FE10
006FF20FFA001DF800
00AFE00DFB008FC100
00DFB008FF79FD2000
01FF70018DFD810000
ENDCHAR
STARTCHAR uni042F
ENCODING 1071
SWIDTH 630 0
DWIDTH 11 0
BBX 14 13 -1 0
BITMAP
000005ADEED810
0001BF94247DE1
0009F603FF65F6
000EE007FF34F3
000EE00BFE0110
0007F91EFB0000
0007EFFFF80000
007FF67FF40000
00DF808FF10000
02FF30CFD00000
05FF00FF900000
09FB03FF600000
4EE406FF300000
ENDCHAR
STARTCHAR uni0430
ENCODING 1072
SWIDTH 526 0
DWIDTH 9 0
BBX 12 9 -1 0
BITMAP
0006DFAFF800
008FE48FF500
04FF507FF200
0BFD00AFD000
1FF900DFA000
3FF702FF7021
3FF707FF50B0
1EFEACFFDC50
04DE919EC500
ENDCHAR
STARTCHAR uni0431
ENCODING 1073
SWIDTH 430 0
DWIDTH 8 0
BBX 11 13 -1 0
BITMAP
0000BFFFFFD0
0002FFFFFE50
0001EF522000
00004FC00000
000007F60000
0006CEFC0000
00BFD3BE0000
08FF408E0000
0EFC00AC0000
2FF800D80000
3FF603F20000
1EF92C600000
04CED5000000
ENDCHAR
STARTCHAR uni0432
ENCODING 1074
SWIDTH 449 0
DWIDTH 8 0
BBX 11 13 -1 0
BITMAP
00003CE90000
0003ED3E3000
000CF40D4000
006FD01F2000
00DF806B0000
04FF40D40020
09FF3DE55A70
0DFC3EFF6200
1FF900AF0000
3FF700BD0000
2FF700E80000
0DFB29D10000
03BEE9100000
ENDCHAR
STARTCHAR uni0433
ENCODING 1075
SWIDTH 375 0
DWIDTH 7 0
BBX 9 9 -1 0
BITMAP
004CED5000
04A2BFF100
0C10BFF200
0208FFB000
02CFFC1000
1DFF700000
5FF8000910
4FF9249200
08DFD81000
ENDCHAR
STARTCHAR uni0434
ENCODING 1076
SWIDTH 507 0
DWIDTH 9 0
BBX 11 13 -1 -4
BITMAP
0006DFAFF800
008FE48FF500
04FF507FF100
0BFD00BFD000
1FF900EFA000
3FF702FF7040
3FF809FF3480
1EFFEFFF2A10
04DE9DFE8100
0007DFF80000
008A5FF50000
00C5AFD00000
004DEB200000
ENDCHAR
STARTCHAR uni0435
ENCODING 1077
SWIDTH 384 0
DWIDTH 7 0
BBX 9 9 -1 0
BITMAP
0006DFD300
008FD3D800
04FF31E600
0BFC2CD100
0FFFE91000
3FF8000120
3FF7000910
1EFC239300
04CFD81000
ENDCHAR
STARTCHAR uni0436
ENCODING 1078
SWIDTH 882 0
DWIDTH 16 0
BBX 18 9 -1 0
BITMAP
008EE700BFB01AED30
0792DF40DF80BF5D80
0A109F81FF55F90D60
00009F94FF2BF40100
0000BFFFFFEFF10000
0000EF5BFB5FE00000
6D04FD0EF74FE00054
9E1CF42FF42FF62870
3CFD506FF105DEC400
ENDCHAR
STARTCHAR uni0437
ENCODING 1079
SWIDTH 498 0
DWIDTH 9 0
BBX 10 13 0 -4
BITMAP
004CED8000
05A27FF600
0C101FF900
56002FF800
A1006FF300
8003EF7003
00DFF60066
002AFD02B0
0004FFBA10
006CFF6000
0987FF3000
0E3CFB0000
07EEA10000
ENDCHAR
STARTCHAR uni0438
ENCODING 1080
SWIDTH 505 0
DWIDTH 9 0
BBX 11 9 -1 0
BITMAP
00DFB07FF200
02FF70AFE000
05FF40DFB000
08FF11FF8000
0BFD04FF4000
0EF908FF1030
2FF81DFE0480
1FFEDCFFCD10
07ED62CEA200
ENDCHAR
STARTCHAR uni0439
ENCODING 1081
SWIDTH 505 0
DWIDTH 9 0
BBX 11 13 -1 0
BITMAP
0007E500A200
000BF73A8000
0003CED70000
000000000000
00DFB07FF200
02FF70AFE000
05FF40DFB000
08FF11FF8000
0BFD04FF4000
0EF908FF1030
2FF81DFE0480
1FFEDCFFCD10
07ED62CEA200
ENDCHAR
STARTCHAR uni043A
ENCODING 1082
SWIDTH 501 0
DWIDTH 9 0
BBX 11 9 -1 0
BITMAP
00DFB02BE600
01FF74D9F700
05FF7D302000
08FFFFE80000
0BFD39FF0000
0EF808FE0150
2FF60AFC0660
6FF309FFAB00
9FF002CEB200
ENDCHAR
STARTCHAR uni043B
ENCODING 1083
SWIDTH 558 0
DWIDTH 10 0
BBX 12 9 -1 0
BITMAP
000003CFFF10
00000D69FD00
00005A0BFA00
0000960FF700
0000C23FF300
1501E06FE004
9F44A09FD076
9C1B509FFEC0
2CEA002CEB20
ENDCHAR
STARTCHAR uni043C
ENCODING 1084
SWIDTH 827 0
DWIDTH 15 0
BBX 17 9 -1 0
BITMAP
000002BF6002FFE000
00000DEF7009FFB000
00005ABF702EFF7000
000095AF809BFF4000
0000C29F92E7FF1000
1501D08FA989FD0130
9F44A07FCE1BFB0840
9D1B506FF80BFFCB00
2CEA005FF103DEA100
ENDCHAR
STARTCHAR uni043D
ENCODING 1085
SWIDTH 507 0
DWIDTH 9 0
BBX 11 9 -1 0
BITMAP
00DFB03FF300
01FF806FF000
05FF509FC000
08FF20CF9000
0BFFEEFF6000
0EFB25FF3000
2FF707FE0170
6FF408FF3830
9FF102CFC400
ENDCHAR
STARTCHAR uni043E
ENCODING 1086
SWIDTH 439 0
DWIDTH 8 0
BBX 11 9 -1 0
BITMAP
0006CFC30000
008FE4AB0000
03FF60CE15A0
0AFE10EF9500
0FFA00AC0000
3FF800E90000
3FF704F30000
1EFA2D800000
04CED6000000
ENDCHAR
STARTCHAR uni043F
ENCODING 1087
SWIDTH 505 0
DWIDTH 9 0
BBX 11 9 -1 0
BITMAP
00DFDBEC2000
01FFC3EF9000
05FF40DFA000
08FF01FF8000
0BFC04FF5000
0EF907FF2000
2FF609FE0190
6FF308FE2920
9FF001BEC400
ENDCHAR
STARTCHAR uni0440
ENCODING 1088
SWIDTH 468 0
DWIDTH 8 0
BBX 10 15 -2 -5
BITMAP
0005870000
000DFDBED3
001FFB2BFC
004FF408FE
007FF108FE
00BFC00BFC
00EF901EF8
02FF608FF3
06FFBAFF80
09FEBED700
0CFC000000
1FF8000000
4FF5000000
7FD2000000
2100000000
ENDCHAR
STARTCHAR uni0441
ENCODING 1089
SWIDTH 384 0
DWIDTH 7 0
BBX 9 9 -1 0
BITMAP
0006DFC200
008FE3D800
04FF60D600
0BFE001000
0FFA000000
3FF8000000
3FF7000730
1EFB239500
04CFD92000
ENDCHAR
STARTCHAR uni0442
ENCODING 1090
SWIDTH 752 0
DWIDTH 14 0
BBX 16 9 -1 0
BITMAP
00DFDBEE58DE7000
01FFC3EFF59FF100
05FF40EFB06FF200
08FF02FF709FF000
0BFC05FF40CFC000
0EF908FF10FF9000
2FF60BFD02FF6091
6FF30EFA01FF7480
9FF02FF7007EE800
ENDCHAR
STARTCHAR uni0443
ENCODING 1091
SWIDTH 486 0
DWIDTH 9 0
BBX 11 13 -1 -4
BITMAP
00DFB07FF200
02FF70AFE000
05FF40DFB000
08FF11FF8000
0BFD05FF4000
0EF908FF1120
2FF81EFD0920
1FFEDFFA5800
07ED9FFC6000
0029EFF30000
00C4AFE00000
02E7FF800000
009EE8000000
ENDCHAR
STARTCHAR uni0444
ENCODING 1092
SWIDTH 738 0
DWIDTH 13 0
BBX 14 18 -1 -5
BITMAP
00000000351000
00000006FF1000
00000009FC0000
0000000DF80000
0006DFAFFADEA0
009FD38FF63FF5
04FF408FC00EF8
0BFD00BF900FF8
1FF800EF602FF6
3FF603FF208FF3
3FF80AFE03EFC0
1EFFEFFFEFFE30
05DE9DFBDEB300
00001FF5000000
00004FF2000000
00007FE0000000
0000AF90000000
00003000000000
ENDCHAR
STARTCHAR uni0445
ENCODING 1093
SWIDTH 522 0
DWIDTH 9 0
BBX 10 10 0 0
BITMAP
0000001B80
005DE72EE0
0487FF14D0
0A03FF4C50
3701FFD800
8200EFB000
B004FF9000
103DCFB009
03D45FE365
2D400AEC50
ENDCHAR
STARTCHAR uni0446
ENCODING 1094
SWIDTH 535 0
DWIDTH 10 0
BBX 10 13 -1 -4
BITMAP
00DFB07FF2
02FF70AFE0
05FF40DFB0
08FF11FF80
0BFD04FF40
0EF908FF10
2FF81DFE00
1FFEDCFFC5
07ED62DEC5
00004667E2
0009FFFFA0
002FFFEA10
0053000000
ENDCHAR
STARTCHAR uni0447
ENCODING 1095
SWIDTH 505 0
DWIDTH 9 0
BBX 10 9 0 0
BITMAP
0DFB07FF20
2FF70AFE00
5FF40DFB00
8FF14FF700
7FFCEFF400
1CEBAFF106
0000AFE067
00009FFED1
00002CEA20
ENDCHAR
STARTCHAR uni0448
ENCODING 1096
SWIDTH 752 0
DWIDTH 14 0
BBX 16 9 -1 0
BITMAP
00DFB07FF20FF900
02FF70AFE03FF600
05FF40DFB06FF200
08FF11FF80AFE000
0BFD04FF40DFB000
0EF908FF11FF8021
2FF81DFE07FF60B1
1FFEDCFFCBFFED60
07ED62CEA18ED600
ENDCHAR
STARTCHAR uni0449
ENCODING 1097
SWIDTH 782 0
DWIDTH 14 0
BBX 14 13 -1 -4
BITMAP
00DFB07FF20FF9
02FF70AFE03FF6
05FF40DFB06FF2
08FF11FF80AFE0
0BFD04FF40DFB0
0EF908FF11FF80
2FF81DFE07FF60
1FFEDCFFCBFFEA
07ED62CEA18EBC
000000003666B8
00000006FFFFE2
0000000DFFFD40
0000003B000000
ENDCHAR
STARTCHAR uni044A
ENCODING 1098
SWIDTH 448 0
DWIDTH 8 0
BBX 9 9 -1 0
BITMAP
03DFFD1000
0CC3E50000
0CBDC00000
00BFCDE800
06FF45FF30
0DFA01FF40
1FF806FE10
0EFA3DF500
04CFEA3000
ENDCHAR
STARTCHAR uni044B
ENCODING 1099
SWIDTH 655 0
DWIDTH 12 0
BBX 14 9 -1 0
BITMAP
00EF900002BC00
02FF60005EF900
05FF201ACFF600
08FE5EE62FF300
0BFB01F66FE000
0EF801F79FB012
1FF508F3CF9093
0EFC9F90DFECA0
04DFD7005DE910
ENDCHAR
STARTCHAR uni044C
ENCODING 1100
SWIDTH 448 0
DWIDTH 8 0
BBX 9 9 -1 0
BITMAP
00DFB00000
01FF800000
05FF765100
08FFEEFD10
0BFD03FF40
0EFA02FF40
1FF708FD00
0EFD9FE400
04CFEA3000
ENDCHAR
STARTCHAR uni044D
ENCODING 1101
SWIDTH 413 0
DWIDTH 7 0
BBX 8 9 -1 0
BITMAP
005CED80
05A27FF6
08100FFA
00000FFA
004EEFF7
00126FF2
AA00BF90
DA07FC10
5DFD8100
ENDCHAR
STARTCHAR uni044E
ENCODING 1102
SWIDTH 675 0
DWIDTH 12 0
BBX 16 9 -1 0
BITMAP
00DFB003BED50000
01FF802EF67E1000
05FF50CFA07F3292
08FF24FF40BFA610
0BFFEFFE006F1000
0EFB2EFB00AC0000
2FF70EFA01E60000
6FF40CFD2AB00000
9FF103BEE8100000
ENDCHAR
STARTCHAR uni044F
ENCODING 1103
SWIDTH 527 0
DWIDTH 9 0
BBX 12 9 -1 0
BITMAP
0004BEFFF800
005FE53FF500
00BF805FF100
00BFA09FD000
003DFFFFA000
2714F2FF6051
9F48B3FF52B0
9D3E52FFEE40
2CE9008ED500
ENDCHAR
STARTCHAR uni0450
ENCODING 1104
SWIDTH 384 0
DWIDTH 7 0
BBX 9 13 -1 0
BITMAP
0001EB0000
00008D0000
00002F1000
0000000000
0006DFD300
008FD3D800
04FF31E600
0BFC2CD100
0FFFE91000
3FF8000120
3FF7000910
1EFC239300
04CFD81000
ENDCHAR
STARTCHAR uni0451
ENCODING 1105
SWIDTH 384 0
DWIDTH 7 0
BBX 9 13 -1 0
BITMAP
0000100200
000AF46F70
0008E35E60
0000000000
0006DFD300
008FD3D800
04FF31E600
0BFC2CD100
0FFFE91000
3FF8000120
3FF7000910
1EFC239300
04CFD81000
ENDCHAR
STARTCHAR uni0452
ENCODING 1106
SWIDTH 491 0
DWIDTH 9 0
BBX 11 17 -1 -4
BITMAP
000464000000
003FF6000000
007FF2000000
09FFFEE30000
01DFB2200000
01FFBCEA0000
04FF95FF6000
08FE12FF6000
0BFB05FF4000
0EF908FF1240
2FF60BFC0920
6FF30EF95600
9FF17FF93000
004EFFF10000
00E78FC00000
01E3DF600000
007EE7000000
ENDCHAR
STARTCHAR uni0453
ENCODING 1107
SWIDTH 375 0
DWIDTH 7 0
BBX 9 14 -1 0
BITMAP
0000005710
000001E900
000008D100
00001D3000
0000000000
004CED5000
04A2BFF100
0C10BFF200
0208FFB000
02CFFC1000
1DFF700000
5FF8000910
4FF9249200
08DFD81000
ENDCHAR
STARTCHAR uni0454
ENCODING 1108
SWIDTH 384 0
DWIDTH 7 0
BBX 9 9 -1 0
BITMAP
0006DFC200
008FE3D800
04FF60D700
0BFF102000
0FFFED0000
3FF9210000
3FF7000620
1EFB239500
04CFD92000
ENDCHAR
STARTCHAR uni0455
ENCODING 1109
SWIDTH 382 0
DWIDTH 7 0
BBX 9 10 -1 0
BITMAP
0003793000
000BFF5000
001EFF5000
0078FF7000
00C3FF8000
0661FF9000
3E90FFA330
8A20FFD900
6B28FF6000
09EEB30000
ENDCHAR
STARTCHAR uni0456
ENCODING 1110
SWIDTH 267 0
DWIDTH 5 0
BBX 7 12 -1 0
BITMAP
002DD200
006FF600
001BB100
00DFB000
02FF7000
05FF4000
08FF1000
0BFD0000
0EF90120
2FF70A40
1FFECA00
07ED7000
ENDCHAR
STARTCHAR uni0457
ENCODING 1111
SWIDTH 267 0
DWIDTH 5 0
BBX 7 13 -1 0
BITMAP
00100100
08F55F80
07E44E70
00000000
00DFB000
02FF7000
05FF4000
08FF1000
0BFD0000
0EF90120
2FF70A40
1FFECA00
07ED7000
ENDCHAR
STARTCHAR uni0458
ENCODING 1112
SWIDTH 240 0
DWIDTH 4 0
BBX 9 16 -4 -4
BITMAP
000003EC10
000008FF40
000002BA00
00000DFB00
00001FF800
00005FF400
00008FF100
0000BFD000
0000EFA030
0003FF61A0
0006FF4920
000AFF9200
06EFFB0000
6C3FF80000
988FF20000
3CEC400000
ENDCHAR
STARTCHAR uni0459
ENCODING 1113
SWIDTH 745 0
DWIDTH 13 0
BBX 14 9 -1 0
BITMAP
000003CFFF1000
00001D7AFD0000
00006C0CFB5620
0000A80FFFFFF4
0000E43FF61DF9
0102F17FF10BF9
7F46C09FD01EF4
9E5D707FE2AF90
2DEA0009EEC500
ENDCHAR
STARTCHAR uni045A
ENCODING 1114
SWIDTH 694 0
DWIDTH 12 0
BBX 13 9 -1 0
BITMAP
00DFB03FF30000
01FF806FF00000
05FF509FC01000
08FF20CFEEFD20
0BFFEEFFA6EFA0
0EFB26FF30AFB0
2FF707FF00DF60
6FF406FE28FB00
9FF1009EEC7000
ENDCHAR
STARTCHAR uni045B
ENCODING 1115
SWIDTH 505 0
DWIDTH 9 0
BBX 11 13 -1 0
BITMAP
000464000000
003FF6000000
007FF2000000
09FFFEE30000
01DFC2200000
01FF80000000
04FFACEA1000
08FF85FF6000
0BFE02FF6000
0EFA05FF3000
2FF708FE0170
6FF408FE2930
9FF102CFC400
ENDCHAR
STARTCHAR uni045C
ENCODING 1116
SWIDTH 501 0
DWIDTH 9 0
BBX 11 14 -1 0
BITMAP
000000077000
0000004F6000
000000BA0000
000003D10000
000000000000
00DFB02BE600
01FF74D9F700
05FF7D302000
08FFFFE80000
0BFD39FF0000
0EF808FE0150
2FF60AFC0660
6FF309FFAB00
9FF002CEB200
ENDCHAR
STARTCHAR uni045D
ENCODING 1117
SWIDTH 505 0
DWIDTH 9 0
BBX 11 13 -1 0
BITMAP
0000AF100000
00003F400000
00000B600000
000000000000
00DFB07FF200
02FF70AFE000
05FF40DFB000
08FF11FF8000
0BFD04FF4000
0EF908FF1030
2FF81DFE0480
1FFEDCFFCD10
07ED62CEA200
ENDCHAR
STARTCHAR uni045E
ENCODING 1118
SWIDTH 486 0
DWIDTH 9 0
BBX 11 17 -1 -4
BITMAP
0007E500A200
000BF73A8000
0003CED70000
000000000000
00DFB07FF200
02FF70AFE000
05FF40DFB000
08FF11FF8000
0BFD05FF4000
0EF908FF1120
2FF81EFD0920
1FFEDFFA5800
07ED9FFC6000
0029EFF30000
00C4AFE00000
02E7FF800000
009EE8000000
ENDCHAR
STARTCHAR uni045F
ENCODING 1119
SWIDTH 505 0
DWIDTH 9 0
BBX 11 14 -1 -5
BITMAP
00DFB07FF200
02FF70AFE000
05FF40DFB000
08FF11FF8000
0BFD04FF4000
0EF908FF1030
2FF81DFE0480
1FFEDCFFCD10
07ED62CEA200
000085000000
0003FD000000
0002FF300000
00008A000000
000020000000
ENDCHAR
STARTCHAR uni0462
ENCODING 1122
SWIDTH 659 0
DWIDTH 12 0
BBX 12 13 0 0
BITMAP
0000AFE00000
0000DFA00000
07CEFFFFFFF2
8F68FF9BDC70
DD0AFE000000
8D0DFECEC500
011FFA28FF30
004FF500EF80
007FF200DFA0
00AFE001FF70
00DFA207FF20
02FF7EEFF900
05FF48ED8000
ENDCHAR
STARTCHAR uni0463
ENCODING 1123
SWIDTH 692 0
DWIDTH 12 0
BBX 13 9 -1 0
BITMAP
00DFDBEC200000
01FFC3EF900000
05FF40DFA00000
08FF00FFDDEA10
0BFC04FF83DF90
0EF907FF20AFA0
2FF608FE00EF60
6FF306FF39FB00
9FF0009EEC6000
ENDCHAR
STARTCHAR uni046A
ENCODING 1130
SWIDTH 834 0
DWIDTH 15 0
BBX 15 13 0 0
BITMAP
00017BEFFFFFFD10
006EBBFF8111C300
06F703FFD0096000
0ED000BFF47A0000
0DA0005FFDC10000
0242ADEFFFEED500
001DF90DFB0AFD00
006FE11FF807FE00
00AFB04FF50AFC00
00CF807FF20EF800
01FF60AFE03FF400
05FF30DFB05FF200
1CF901FF803EF500
ENDCHAR
STARTCHAR uni046B
ENCODING 1131
SWIDTH 750 0
DWIDTH 14 0
BBX 12 9 0 0
BITMAP
002AEFFFFFF3
03EC7FF71680
09F10EFB2B00
07E109FFB300
002ADEFFEEC4
00BF94FF2AFB
01FF27FE0BF9
04FE0BFA1FF4
1BE70EF72EE4
ENDCHAR
STARTCHAR uni0472
ENCODING 1138
SWIDTH 665 0
DWIDTH 12 0
BBX 12 13 0 0
BITMAP
00027BEFEA20
008FA5546FE1
0BE44EE20BF8
7F62EF5009FB
AF1BFD000AFC
6E3FF7000CFB
008FFAEFDFF8
00CFE2124FF4
00EFB0009FE1
01FF9001EF70
00EFA008FC00
009FE37FD100
0019EFD81000
ENDCHAR
STARTCHAR uni0473
ENCODING 1139
SWIDTH 439 0
DWIDTH 8 0
BBX 11 9 -1 0
BITMAP
0006CFD40000
008FD3AC0020
03FF40EF7AA0
0AFD52BF7300
0FFDCFFC0000
3FF702F80000
3FF709F20000
1EFEAF700000
04CED6000000
ENDCHAR
STARTCHAR uni0474
ENCODING 1140
SWIDTH 668 0
DWIDTH 12 0
BBX 14 13 0 0
BITMAP
0005ADF2004CD2
02CBAFF202EF30
2EA08FF309F800
AF107FF30EE100
DD007FF34F7000
8C006FF38F1000
01006FF4CA0000
00006FF4F40000
00005FF8D00000
00005FFB800000
00005FFE200000
00004FFD000000
00004FF8000000
ENDCHAR
STARTCHAR uni0475
ENCODING 1141
SWIDTH 414 0
DWIDTH 7 0
BBX 9 9 -1 0
BITMAP
00DFB0DC00
02FF70BE20
05FF400E10
08FF102E00
0BFD007A00
0EF901E500
2FF70AC000
1FFEDE2000
07EEB30000
ENDCHAR
STARTCHAR uni0490
ENCODING 1168
SWIDTH 431 0
DWIDTH 8 0
BBX 12 15 0 0
BITMAP
000000000054
0000000001C8
0039CEFFFFF7
07FAEFEEFFB1
4F60FF901100
AF13FF500000
BE07FF200000
7E0AFE000000
010DFA000000
002FF7000000
005FF3000000
009FF0000000
00CFC0000000
01FF80000000
04FF50000000
ENDCHAR
STARTCHAR uni0491
ENCODING 1169
SWIDTH 342 0
DWIDTH 6 0
BBX 8 11 -1 0
BITMAP
00000044
000000DC
00DFFFE5
01FF7100
05FF4000
08FF1000
0BFD0000
0EF90000
2FF60000
6FF30000
9FF00000
ENDCHAR
STARTCHAR uni0492
ENCODING 1170
SWIDTH 400 0
DWIDTH 7 0
BBX 12 13 0 0
BITMAP
0028CEFFFFF5
07E8CFEACDA0
4F70DFB00000
AF31FF800000
BF14FF500000
7F18FF100000
021BFD000000
05DFFED70000
002FF6000000
006FF3000000
009FE0000000
00DFB0000000
01FF80000000
ENDCHAR
STARTCHAR uni0493
ENCODING 1171
SWIDTH 375 0
DWIDTH 7 0
BBX 9 9 -1 0
BITMAP
004CED6000
04A2BFF100
0C10AFF100
1304FF9000
4EEFFFE500
1AFF622000
4FF7000810
4FF9249200
08EFD81000
ENDCHAR
STARTCHAR uni0494
ENCODING 1172
SWIDTH 665 0
DWIDTH 12 0
BBX 12 14 0 -1
BITMAP
0028CEFFFFF5
07E8CFEACDA0
4F70DFB00000
AF31FF800000
BF15FF400000
6F28FFCFE800
011BFD44DF80
000EF9007FE0
003FF6006FF1
006FF3007FF0
00AFE000BFC0
00DFB206FF50
01FF8CFFFA00
000005CB6000
ENDCHAR
STARTCHAR uni0495
ENCODING 1173
SWIDTH 486 0
DWIDTH 9 0
BBX 11 13 -1 -4
BITMAP
00BEFFFFE000
01FFBADC5000
04FF40000000
08FF8DE60000
0BFE9EFE0000
0EF908FF0120
2FF60AFC0920
5FF30EF85800
9FF04FFA5000
002BFFE00000
00D79FB00000
02D3EF500000
009ED7000000
ENDCHAR
STARTCHAR uni0496
ENCODING 1174
SWIDTH 777 0
DWIDTH 14 0
BBX 16 19 -1 -6
BITMAP
002CF9006AA02BE9
003FCF40FF92ECFB
00010993FF6AA010
000006B6FF5E2000
000005BAFE890000
000005ADFBC40000
0007DFFFFEFFC200
007FE55FF63EF800
00DF808FF10EF700
02FF40BFD02FF400
05FF10EF907FE000
09FD03FF60BFB000
4FE506FF208FD100
00000000009C2000
0000000000FE2000
0000000000CFB000
00000000003FE000
00000000000C6000
0000000000030000
ENDCHAR
STARTCHAR uni0497
ENCODING 1175
SWIDTH 882 0
DWIDTH 16 0
BBX 18 14 -1 -5
BITMAP
008EE700BFB01AED30
0792DF40DF80BF4D80
0A109F81FF55F90D60
00009F94FF2BF40100
0000BFFFFFEFF10000
0000EF5BFB5FE00000
6E04FD0EF74FE00064
9E1CF42FF42FF84A80
3CED506FF106DFE600
0000000000006B0000
000000000000DF5000
000000000000AF8000
0000000000002C1000
000000000000010000
ENDCHAR
STARTCHAR uni0498
ENCODING 1176
SWIDTH 525 0
DWIDTH 9 0
BBX 10 19 -1 -6
BITMAP
00006CEE91
0009724FFA
0036000DFD
0000002FFA
000002CFD2
0001EFFB10
000025EFB0
0000008FF5
0000006FF7
09D1008FF6
2FA000DFE1
1ED22AFE40
04BEFEA200
0005F20000
0009FA0000
0005FF4000
0000BF5000
00006A0000
0000200000
ENDCHAR
STARTCHAR uni0499
ENCODING 1177
SWIDTH 498 0
DWIDTH 9 0
BBX 10 18 0 -9
BITMAP
004CED8000
05A27FF600
0C101FF900
56002FF800
A1006FF300
8003EF7003
00DFF60066
002AFD03B0
0004FFC910
007CFF5000
0A67FF3000
0E6DFB0000
07EFB10000
00B3000000
06FB000000
04FE000000
00B6000000
0020000000
ENDCHAR
STARTCHAR uni049A
ENCODING 1178
SWIDTH 635 0
DWIDTH 11 0
BBX 13 19 0 -6
BITMAP
0005ADF219ED10
03D9CFD1CDDF20
2E90EFAAB11100
9F12FFAD100000
BE05FFE4000000
2808FFEDC30000
000CFB0AFC0000
000FF808FD0000
003FF50AFB0000
007FF20EF70000
00AFE03FF40000
00DFA06FF10000
01FF705FF40000
0000002E810000
0000005FD10000
0000002FF70000
00000008F90000
00000002E20000
00000002100000
ENDCHAR
STARTCHAR uni049B
ENCODING 1179
SWIDTH 501 0
DWIDTH 9 0
BBX 11 13 -1 -4
BITMAP
00DFB02BE600
01FF74D9F700
05FF7D302000
08FFFFE80000
0BFD39FE0000
0EF808FF0030
2FF60AFD0470
6FF309FE2910
9FF002CFB200
0000006A0000
000000EF4000
000000CF6000
0000004B0000
ENDCHAR
STARTCHAR uni049C
ENCODING 1180
SWIDTH 721 0
DWIDTH 13 0
BBX 14 13 0 0
BITMAP
0005ADF2003CF8
02C9CFE004EBFA
2E90EFA02E5010
9F12FF76A70000
BE05FF7AC00000
3A08FFFFFE4000
000CFCB5EFA000
000FF890BFA000
003FF500DF8000
007FF202FF5000
00AFE006FF1000
00DFB009FE0000
01FF7005EF2000
ENDCHAR
STARTCHAR uni049D
ENCODING 1181
SWIDTH 551 0
DWIDTH 10 0
BBX 12 9 -1 0
BITMAP
00DFB003AE70
01FFB8484F90
05FFBA700200
08FFBFEF7000
0BFEE2BFD000
0EFED09FC013
2FFAA0BFB085
6FF300AFFDB0
9FF0003CEA10
ENDCHAR
STARTCHAR uni04A0
ENCODING 1184
SWIDTH 691 0
DWIDTH 12 0
BBX 14 13 0 0
BITMAP
0049DEFE219ED1
09E63BFE1CACF2
7F300EFAA90010
CD002FFAC00000
DC005FFE400000
5A009FFFED4000
0000CFC2BFC000
0000FF908FD000
0003FF60AFB000
0007FF20EF7000
000AFE03FF4000
000DFB06FF1000
001FF803EF5000
ENDCHAR
STARTCHAR uni04A1
ENCODING 1185
SWIDTH 676 0
DWIDTH 12 0
BBX 14 9 -1 0
BITMAP
005BDFEB019E80
09F82EFA1CBFA0
1FC02FF7C70100
1FB05FFEEB7000
03508FFACFF200
0000CFC05FF103
0000FF907FF049
0003FF507FFCD2
0006FF201BEC30
ENDCHAR
STARTCHAR uni04A2
ENCODING 1186
SWIDTH 665 0
DWIDTH 12 0
BBX 13 16 0 -3
BITMAP
0005ADF203FF60
02CBCFE007FF20
1EA0DFA00AFE00
9F22FF700EFB00
BE05FF413FF800
4C08FFFFFFF400
000CFC44AFF100
000FF800CFD000
003FF500FFA000
006FF203FF7000
00AFE006FF3000
00DFB009FF0000
01FF700CFC0000
000000015FB430
000000000CFF90
0000000004EC20
ENDCHAR
STARTCHAR uni04A3
ENCODING 1187
SWIDTH 507 0
DWIDTH 9 0
BBX 11 14 -1 -5
BITMAP
00DFB03FF300
01FF806FF000
05FF509FC000
08FF20CF9000
0BFFEEFF6000
0EFB25FF3000
2FF707FE0170
6FF408FF3830
9FF102DFD400
0000005B0000
000000DF5000
000000BF7000
0000003C1000
000000010000
ENDCHAR
STARTCHAR uni04A4
ENCODING 1188
SWIDTH 689 0
DWIDTH 12 0
BBX 17 13 0 0
BITMAP
0005ADF203EFFFFF80
02C9BFE007FF9BDC20
1E90EFA00AFE000000
9F22FF700EFA000000
BE05FF413FF7000000
4C09FFFFFFF4000000
000CFC44AFF1000000
000FF800CFC0000000
003FF500FF90000000
007FF203FF60000000
00AFE006FF20000000
00DFB00AFE00000000
01FF700DFB00000000
ENDCHAR
STARTCHAR uni04A5
ENCODING 1189
SWIDTH 681 0
DWIDTH 12 0
BBX 14 9 -1 0
BITMAP
00DFB03DFFFFF8
01FF806FE9BDC2
05FF509FB00000
08FF20CF800000
0BFFEEFF400000
0EFB25FF100000
2FF707FE039000
6FF408FFCD2000
9FF102CEC30000
ENDCHAR
STARTCHAR uni04AA
ENCODING 1194
SWIDTH 497 0
DWIDTH 9 0
BBX 10 19 0 -6
BITMAP
00018DFD80
001CFD43E6
00AFF300E9
04FFA005F6
0AFF300130
1FFD000000
4FFA000000
7FF7000000
9FF6000000
AFF5000000
9FF7000032
6FFD3017B0
1CFFFFFB10
017DE94000
000DE10000
000DFA0000
0005FF1000
0000CD0000
0000820000
ENDCHAR
STARTCHAR uni04AB
ENCODING 1195
SWIDTH 384 0
DWIDTH 7 0
BBX 9 14 -1 -5
BITMAP
0006DFC200
008FD3D800
03FF50D500
0AFE000000
0EFA000000
2FF7000010
3FF7001A20
1EFD78D300
04DFEA2000
002D100000
008FA00000
005FD00000
000C400000
0001000000
ENDCHAR
STARTCHAR uni04AE
ENCODING 1198
SWIDTH 620 0
DWIDTH 11 0
BBX 13 13 0 0
BITMAP
0005ADF4000D50
02CB9FF8004D00
2EA03FFB00A600
AF100EFF12E100
DD000AFF488000
8C0006FF8D1000
010002FFF90000
000000DFF20000
000000FFD00000
000003FFA00000
000007FF700000
00000AFF300000
00000DFF000000
ENDCHAR
STARTCHAR uni04AF
ENCODING 1199
SWIDTH 480 0
DWIDTH 9 0
BBX 9 14 0 -5
BITMAP
0FF901DC00
0EFA00BE20
0CFC000D00
0BFD002B00
09FE008500
08FF12B000
07FF2B3000
05FF980000
04FFC00000
04FF500000
07FF200000
0BFD000000
0EFA000000
1630000000
ENDCHAR
STARTCHAR uni04B0
ENCODING 1200
SWIDTH 620 0
DWIDTH 11 0
BBX 13 13 0 0
BITMAP
0005ADF4000D50
02CB9FF8004D00
2EA03FFB00A600
AF100EFF12E100
DD000AFF488000
8C0006FF8D1000
010002FFF90000
000000DFF20000
00007FFFFE6000
000015FFC21000
000007FF700000
00000AFF300000
00000DFF000000
ENDCHAR
STARTCHAR uni04B1
ENCODING 1201
SWIDTH 480 0
DWIDTH 9 0
BBX 9 14 0 -5
BITMAP
0FF901DC00
0EFA00BE20
0CFC000D00
0BFD002B00
09FE008500
08FF12B000
07FF2B3000
05FF980000
04FFC00000
CFFFFE2000
29FF320000
0BFD000000
0EFA000000
1630000000
ENDCHAR
STARTCHAR uni04B6
ENCODING 1206
SWIDTH 695 0
DWIDTH 13 0
BBX 14 16 0 -3
BITMAP
0005ADF200AFE0
03DACFD000EFB0
2E90DFA002FF70
AF12FF6006FF40
BE04FF300AFF10
2805FF703EFC00
0002FFFFFFF900
00006DEB8FF600
000000007FF300
00000000AFE000
00000000EFB000
00000002FF8000
00000005FF6000
000000011CFA62
0000000004FFF2
0000000000AE70
ENDCHAR
STARTCHAR uni04B7
ENCODING 1207
SWIDTH 505 0
DWIDTH 9 0
BBX 10 13 0 -4
BITMAP
0DFB07FF20
2FF70AFE00
5FF40DFB00
8FF14FF700
7FFCEFF400
1CEBAFF106
0000AFE066
00009FFEB0
00002DE810
000007A000
00000FF400
00000CF600
000004B000
ENDCHAR
STARTCHAR uni04B8
ENCODING 1208
SWIDTH 715 0
DWIDTH 13 0
BBX 14 13 0 0
BITMAP
0004ADF2005FF4
01BCCFE0008FF1
1DB0DFB000BFD0
8F31FF7000EF90
BE03FF4003FF60
7E05FF3746FF30
0202FFCCAEFE00
00005DFE8EFB00
000000291FF800
000000234FF400
000000008FF100
00000000BFD000
00000000EFA000
ENDCHAR
STARTCHAR uni04B9
ENCODING 1209
SWIDTH 545 0
DWIDTH 10 0
BBX 11 9 0 0
BITMAP
0DFB00BFD000
2FF700EFA000
5FF492FF7000
8FF3C9FF3000
7FFDFFFF0000
1BEF9DFC0240
000C2EFA0A20
00080DFFE900
000005ED8000
ENDCHAR
STARTCHAR uni04BA
ENCODING 1210
SWIDTH 679 0
DWIDTH 12 0
BBX 12 13 0 0
BITMAP
0005ADF20000
02CBCFE00000
2EA0DFA00000
9F22FF700000
BE05FF300000
3A08FFADFD40
000CFD31AFE0
000FF8006FF2
003FF5007FF1
007FF200AFE0
00AFE000DFB0
00DFA002FF70
01FF7005FF40
ENDCHAR
STARTCHAR uni04BB
ENCODING 1211
SWIDTH 505 0
DWIDTH 9 0
BBX 11 13 -1 0
BITMAP
000353000000
003FF6000000
006FF2000000
00AFD0000000
00DFDBEC2000
01FFC3EF9000
04FF40DFA000
08FF01FF8000
0BFC04FF5000
0EF907FF2000
2FF609FE0190
5FF308FE2920
9FF001BEC400
ENDCHAR
STARTCHAR uni04C0
ENCODING 1216
SWIDTH 375 0
DWIDTH 7 0
BBX 8 13 0 0
BITMAP
0005ADF1
02C8DFC0
2E81FF90
AF14FF60
DD07FF20
8C0AFE00
010DFB00
002FF700
005FF400
008FF100
00CFC000
00FF9000
03FF6000
ENDCHAR
STARTCHAR uni04C1
ENCODING 1217
SWIDTH 777 0
DWIDTH 14 0
BBX 16 17 -1 0
BITMAP
0000000AE301B000
0000000EF44C5000
00000005DEC50000
0000000000000000
002CF9006AA02BE9
003FCF40FF92ECFB
00010993FF6AA010
000006B6FF5E2000
000005BAFE890000
000005ADFBC40000
0007DFFFFEFFC200
007FE55FF63EF800
00DF808FF10EF700
02FF40BFD02FF400
05FF10EF907FE000
09FD03FF60BFB000
4FE506FF208FD100
ENDCHAR
STARTCHAR uni04C2
ENCODING 1218
SWIDTH 882 0
DWIDTH 16 0
BBX 18 13 -1 0
BITMAP
0000000BE201B00000
0000000EF44C500000
00000006DEC5000000
000000000000000000
008EE700BFB01AED30
0792DF40DF80BF5D80
0A109F81FF55F90D60
00009F94FF2BF40100
0000BFFFFFEFF10000
0000EF5BFB5FE00000
6D04FD0EF74FE00054
9E1CF42FF42FF62870
3CFD506FF105DEC400
ENDCHAR
STARTCHAR uni04CB
ENCODING 1227
SWIDTH 695 0
DWIDTH 13 0
BBX 13 15 0 -2
BITMAP
0004ADF200AFE0
01BCCFE000DFA0
1DB0DFB002FF70
8F31FF7005FF40
BE03FF4008FF10
8E05FF300BFC00
0202FFC69FF900
00006DEDAFF500
000000006FF200
00000000AFE000
00000000DFB000
00000001FF7000
0004338DFF4000
0009FFFA210000
0003DE70000000
ENDCHAR
STARTCHAR uni04CC
ENCODING 1228
SWIDTH 516 0
DWIDTH 9 0
BBX 10 13 0 -4
BITMAP
0AFE04FF50
0EFA07FF20
2FF70AFD00
5FF52FFA00
4FFDDFF700
0AEC9FF306
00007FF359
00005FFFD1
000008E810
00466B8000
0AFFFF2000
2FFFC40000
6700000000
ENDCHAR
STARTCHAR uni04CF
ENCODING 1231
SWIDTH 267 0
DWIDTH 5 0
BBX 7 13 -1 0
BITMAP
00179500
004FF500
007FF200
00AFE000
00EFB000
02FF8000
05FF4000
08FF1000
0BFD0000
0EFA0230
2FF70920
1FFC9900
07ED7000
ENDCHAR
STARTCHAR uni04D0
ENCODING 1232
SWIDTH 668 0
DWIDTH 12 0
BBX 15 19 0 -2
BITMAP
000000004E900760
000000007FB28C00
000000001AED9100
0000000000000000
0000000029EE4000
00000003CAFF3000
0000003D3AFE0000
000002E60DFB0000
00000CC01FF80000
07CEEFC66FF40000
9F84FD36DFF10000
BF39F600BFD00000
022FE100EF900000
008FA003FF600000
00EF5006FF300000
03FF100AFE000000
06FD000DFB000000
07FB000000000000
01CB000000000000
ENDCHAR
STARTCHAR uni04D1
ENCODING 1233
SWIDTH 526 0
DWIDTH 9 0
BBX 12 13 -1 0
BITMAP
00008E400B10
0000CF64B700
00004CEC6000
000000000000
0006DFAFF800
008FE48FF500
04FF507FF200
0BFD00AFD000
1FF900DFA000
3FF702FF7021
3FF707FF50B0
1EFEACFFDC50
04DE919EC500
ENDCHAR
STARTCHAR uni04D2
ENCODING 1234
SWIDTH 668 0
DWIDTH 12 0
BBX 15 20 0 -2
BITMAP
0000000001100100
000000001ED0CE20
000000001DB0AD10
0000000000000000
0000000000000000
0000000029EE4000
00000003CAFF3000
0000003D3AFE0000
000002E60DFB0000
00000CC01FF80000
07CEEFC66FF40000
9F84FD36DFF10000
BF39F600BFD00000
022FE100EF900000
008FA003FF600000
00EF5006FF300000
03FF100AFE000000
06FD000DFB000000
07FB000000000000
01CB000000000000
ENDCHAR
STARTCHAR uni04D3
ENCODING 1235
SWIDTH 526 0
DWIDTH 9 0
BBX 12 13 -1 0
BITMAP
000002001000
00005F82FB00
00004E62EA00
000000000000
0006DFAFF800
008FE48FF500
04FF507FF200
0BFD00AFD000
1FF900DFA000
3FF702FF7021
3FF707FF50B0
1EFEACFFDC50
04DE919EC500
ENDCHAR
STARTCHAR uni04D4
ENCODING 1236
SWIDTH 764 0
DWIDTH 14 0
BBX 17 15 0 -2
BITMAP
0000000029ED821620
00000004DAFFCFFA00
0000004E3AFF101000
000002E70DFC000000
00000CC01FF8000000
07CEEFB45FF6110000
9F94FC37EFFFFD0000
CF39F600BFD4430000
242FE100EFA0000000
008FA003FF60000000
00EF5006FF30000000
03FF1009FFDDDD0000
06FD000DFFFFFC0000
07FB00000000000000
02CB00000000000000
ENDCHAR
STARTCHAR uni04D5
ENCODING 1237
SWIDTH 650 0
DWIDTH 12 0
BBX 14 9 -1 0
BITMAP
0007DFD88DFC10
005823FFFB3F50
000000DFE13F30
000001FF94EA00
018CEEFFFE7000
0CFE58FF400011
2FF70AFF400190
1FF93EFF924A10
06EFB3AEFC7000
ENDCHAR
STARTCHAR uni04D6
ENCODING 1238
SWIDTH 459 0
DWIDTH 8 0
BBX 10 17 0 0
BITMAP
0000CE102B
0001FF35C3
00007DEB40
0000000000
00018DEB20
000CF82BB0
006FD00AC0
009FB01C40
007FE10000
001DFB1000
04EFB10000
2EFD100000
9FF7000000
CFF4000040
CFF9002A30
7FFFEEE500
07DED92000
ENDCHAR
STARTCHAR uni04D7
ENCODING 1239
SWIDTH 384 0
DWIDTH 7 0
BBX 9 13 -1 0
BITMAP
000CD102B0
001FE35D30
0007DEB300
0000000000
0006DFD300
008FD3D800
04FF31E600
0BFC2CD100
0FFFE91000
3FF8000120
3FF7000910
1EFC239300
04CFD81000
ENDCHAR
STARTCHAR uni04D8
ENCODING 1240
SWIDTH 544 0
DWIDTH 10 0
BBX 10 13 0 0
BITMAP
003AEFD810
02EFFFFFC0
03D523CFF5
0010005FF9
0000004FFA
00028CEFF9
006ED5AFF7
07FC10DFF2
2FF302FFC0
7FC008FF30
9F901EF800
5FC2CF9000
07DFC50000
ENDCHAR
STARTCHAR uni04D9
ENCODING 1241
SWIDTH 404 0
DWIDTH 7 0
BBX 7 9 0 0
BITMAP
06CED910
0A33EF80
0000BFD0
018DFFD0
1DD4FFB0
9E24FF60
E80AFD10
E95FE300
6EEA2000
ENDCHAR
STARTCHAR uni04DC
ENCODING 1244
SWIDTH 777 0
DWIDTH 14 0
BBX 16 17 -1 0
BITMAP
0000000020010000
00000007F54F9000
00000006E43E8000
0000000000000000
002CF9006AA02BE9
003FCF40FF92ECFB
00010993FF6AA010
000006B6FF5E2000
000005BAFE890000
000005ADFBC40000
0007DFFFFEFFC200
007FE55FF63EF800
00DF808FF10EF700
02FF40BFD02FF400
05FF10EF907FE000
09FD03FF60BFB000
4FE506FF208FD100
ENDCHAR
STARTCHAR uni04DD
ENCODING 1245
SWIDTH 882 0
DWIDTH 16 0
BBX 18 13 -1 0
BITMAP
000000001001000000
00000008F54F900000
00000006E43E700000
000000000000000000
008EE700BFB01AED30
0792DF40DF80BF5D80
0A109F81FF55F90D60
00009F94FF2BF40100
0000BFFFFFEFF10000
0000EF5BFB5FE00000
6D04FD0EF74FE00054
9E1CF42FF42FF62870
3CFD506FF105DEC400
ENDCHAR
STARTCHAR uni04DE
ENCODING 1246
SWIDTH 525 0
DWIDTH 9 0
BBX 11 17 -1 0
BITMAP
000001100100
00001ED0BF30
00000CC09E20
000000000000
00006CEE9100
0009724FFA00
0036000DFD00
0000002FFA00
000002CFD200
0001EFFB1000
000025EFB000
0000008FF500
0000006FF700
09D1008FF500
2FA000DFE100
1ED22AFE4000
04BEED820000
ENDCHAR
STARTCHAR uni04DF
ENCODING 1247
SWIDTH 498 0
DWIDTH 9 0
BBX 10 17 0 -4
BITMAP
0001001100
003FB0EE10
002E90CC00
0000000000
004CED8000
05A27FF600
0C101FF900
56002FF800
A1006FF300
8003EF7003
00DFF60066
002AFD02B0
0004FFBA10
006CFF6000
0987FF3000
0E3CFB0000
07EEA10000
ENDCHAR
STARTCHAR uni04E2
ENCODING 1250
SWIDTH 705 0
DWIDTH 13 0
BBX 14 16 0 0
BITMAP
0000008EEEEE30
00000012222200
00000000000000
0004ADF200AFF2
01B9BFE004FFD0
1DA0EFB00CFFA0
8F22FF706FFF70
BE05FF41EDFF30
7E09FF19D9FF00
010CFD3F4CFC00
000FF9BA1FF800
003FFBE24FF500
007FFF707FF200
00AFFD00AFD000
00DFF400EFA000
01FFA002FF7000
ENDCHAR
STARTCHAR uni04E3
ENCODING 1251
SWIDTH 505 0
DWIDTH 9 0
BBX 11 12 -1 0
BITMAP
0008EEEEE200
000122222000
000000000000
00DFB07FF200
02FF70AFE000
05FF40DFB000
08FF11FF8000
0BFD04FF4000
0EF908FF1030
2FF81DFE0480
1FFEDCFFCD10
07ED62CEA200
ENDCHAR
STARTCHAR uni04E4
ENCODING 1252
SWIDTH 705 0
DWIDTH 13 0
BBX 14 17 0 0
BITMAP
00000001001100
0000004F91ED00
0000003E81DB00
00000000000000
0004ADF200AFF2
01B9BFE004FFD0
1DA0EFB00CFFA0
8F22FF706FFF70
BE05FF41EDFF30
7E09FF19D9FF00
010CFD3F4CFC00
000FF9BA1FF800
003FFBE24FF500
007FFF707FF200
00AFFD00AFD000
00DFF400EFA000
01FFA002FF7000
ENDCHAR
STARTCHAR uni04E5
ENCODING 1253
SWIDTH 505 0
DWIDTH 9 0
BBX 11 13 -1 0
BITMAP
000010011000
0004F91ED000
0003E81DB000
000000000000
00DFB07FF200
02FF70AFE000
05FF40DFB000
08FF11FF8000
0BFD04FF4000
0EF908FF1030
2FF81DFE0480
1FFEDCFFCD10
07ED62CEA200
ENDCHAR
STARTCHAR uni04E6
ENCODING 1254
SWIDTH 665 0
DWIDTH 12 0
BBX 12 17 0 0
BITMAP
000000010020
0000009F46F8
0000008E34E6
000000000000
00017BEFEA20
007EA5547FE1
0AE44EE30CF8
6F62EF6009FB
AF1BFD000AFC
7E3FF7000BFB
028FF2000EF8
00CFD0003FF4
00EFB0009FE1
01FF9002EF70
00EFB00AFC00
009FF8BFD100
0019EFD81000
ENDCHAR
STARTCHAR uni04E7
ENCODING 1255
SWIDTH 439 0
DWIDTH 8 0
BBX 11 13 -1 0
BITMAP
000010011000
0002FB0DE100
0002E90CC000
000000000000
0006CFC30000
008FE4AB0000
03FF60CE15A0
0AFE10EF9500
0FFA00AC0000
3FF800E90000
3FF704F30000
1EFA2D800000
04CED6000000
ENDCHAR
STARTCHAR uni04E8
ENCODING 1256
SWIDTH 665 0
DWIDTH 12 0
BBX 12 13 0 0
BITMAP
00027BEFEA20
008EA5547FE1
0BE44EE20BF8
6F62EF5009FB
AF1BFC000AFC
7E3FF6000BFB
018FFEDDDFF8
00CFD0003FF4
00EFB0008FE1
01FF9001EF70
00EFA008FC00
009FE36FD100
0019EFD81000
ENDCHAR
STARTCHAR uni04E9
ENCODING 1257
SWIDTH 439 0
DWIDTH 8 0
BBX 11 9 -1 0
BITMAP
0006CFC30000
008FE4AB0000
03FF60CE15A0
0AFE10EF9500
0FFFEEFF0000
3FFA22FA0000
3FF704F30000
1EFA2D800000
04CED6000000
ENDCHAR
STARTCHAR uni04EE
ENCODING 1262
SWIDTH 644 0
DWIDTH 12 0
BBX 13 16 0 0
BITMAP
0000005EEEEE60
00000012222210
00000000000000
0004ADF50009A0
01BC8FF9001E30
1DB01FFD007B00
8F300CFF10D500
BE0007FF55D000
6E0003FF9C7000
000000EFEE1000
0000009FF80000
0000005FF20000
0000001FA00000
0000651E300000
0004FFCA000000
0001CEA1000000
ENDCHAR
STARTCHAR uni04EF
ENCODING 1263
SWIDTH 486 0
DWIDTH 9 0
BBX 11 16 -1 -4
BITMAP
0009EEEEE200
000122222000
000000000000
00DFB07FF200
02FF70AFE000
05FF40DFB000
08FF11FF8000
0BFD05FF4000
0EF908FF1120
2FF81EFD0920
1FFEDFFA5800
07ED9FFC6000
0029EFF30000
00C4AFE00000
02E7FF800000
009EE8000000
ENDCHAR
STARTCHAR uni04F0
ENCODING 1264
SWIDTH 644 0
DWIDTH 12 0
BBX 13 17 0 0
BITMAP
00000001100100
0000001ED0BF20
0000001DB0AD20
00000000000000
0004ADF50009A0
01BC8FF9001E30
1DB01FFD007B00
8F300CFF10D500
BE0007FF55D000
6E0003FF9C7000
000000EFEE1000
0000009FF80000
0000005FF20000
0000001FA00000
0000651E300000
0004FFCA000000
0001CEA1000000
ENDCHAR
STARTCHAR uni04F1
ENCODING 1265
SWIDTH 486 0
DWIDTH 9 0
BBX 11 17 -1 -4
BITMAP
000010011000
0004F91ED000
0003E71DB000
000000000000
00DFB07FF200
02FF70AFE000
05FF40DFB000
08FF11FF8000
0BFD05FF4000
0EF908FF1120
2FF81EFD0920
1FFEDFFA5800
07ED9FFC6000
0029EFF30000
00C4AFE00000
02E7FF800000
009EE8000000
ENDCHAR
STARTCHAR uni04F2
ENCODING 1266
SWIDTH 644 0
DWIDTH 12 0
BBX 14 17 0 0
BITMAP
00000000AE2BD2
00000003F44E30
0000000B60C500
00000000000000
0004ADF50009A0
01BC8FF9001E30
1DB01FFD007B00
8F300CFF10D500
BE0007FF55D000
6E0003FF9C7000
000000EFEE1000
0000009FF80000
0000005FF20000
0000001FA00000
0000651E300000
0004FFCA000000
0001CEA1000000
ENDCHAR
STARTCHAR uni04F3
ENCODING 1267
SWIDTH 486 0
DWIDTH 9 0
BBX 11 17 -1 -4
BITMAP
00001EB2EA00
00008D19C100
0001D22D2000
000000000000
00DFB07FF200
02FF70AFE000
05FF40DFB000
08FF11FF8000
0BFD05FF4000
0EF908FF1120
2FF81EFD0920
1FFEDFFA5800
07ED9FFC6000
0029EFF30000
00C4AFE00000
02E7FF800000
009EE8000000
ENDCHAR
STARTCHAR uni04F4
ENCODING 1268
SWIDTH 695 0
DWIDTH 13 0
BBX 13 17 0 0
BITMAP
00000001001100
0000003FA1ED00
0000002E80CC00
00000000000000
0005ADF200AFE0
03DACFD000EFB0
2E90DFA002FF70
AF12FF6006FF40
BE04FF300AFF10
2805FF703EFC00
0002FFFFFFF900
00006DEDAFF600
000000006FF200
00000000AFE000
00000000DFB000
00000001FF8000
00000005FF4000
ENDCHAR
STARTCHAR uni04F5
ENCODING 1269
SWIDTH 505 0
DWIDTH 9 0
BBX 10 13 0 0
BITMAP
0002001000
006F72FB00
004E62EA00
0000000000
0DFB07FF20
2FF70AFE00
5FF40DFB00
8FF14FF700
7FFCEFF400
1CEBAFF106
0000AFE067
00009FFED1
00002CEA20
ENDCHAR
STARTCHAR uni04F6
ENCODING 1270
SWIDTH 442 0
DWIDTH 8 0
BBX 12 16 0 -3
BITMAP
0038CEFFFFF5
07F8CFEACDA0
5F70DFB00000
AF31FF700000
BF15FF400000
4D28FF100000
000BFC000000
000FF9000000
003FF6000000
006FF2000000
00AFE0000000
00DFB0000000
01FFB1000000
0018FD750000
0001EFF60000
00006EB00000
ENDCHAR
STARTCHAR uni04F7
ENCODING 1271
SWIDTH 375 0
DWIDTH 7 0
BBX 9 14 -1 -5
BITMAP
005CED6000
05A2BFF100
0C00BFF100
0008FF9000
02CFF80000
1DFD300310
5FF6004900
4FFD9BB000
08EEB60000
004B000000
00DF500000
00BF800000
003D100000
0001000000
ENDCHAR
STARTCHAR uni04F8
ENCODING 1272
SWIDTH 909 0
DWIDTH 16 0
BBX 17 17 0 0
BITMAP
000000000100110000
000000004F91ED0000
000000003E81DC0000
000000000000000000
0005ADF2000000CFC0
02CACFE0000001FF80
2E90DFA0000004FF50
9F22FF70000007FF20
BE05FF3000000AFD00
3A08FFBEC7000EFA00
000CFC35FF602FF700
000FF800BFC05FF300
003FF500AFD09FF000
007FF200CFB0CFC000
00AFE204FF61FF9000
00DFBBEFFC04FF5000
01FF75EE9107FF2000
ENDCHAR
STARTCHAR uni04F9
ENCODING 1273
SWIDTH 642 0
DWIDTH 12 0
BBX 14 12 -1 0
BITMAP
00000CA0AC1000
00001ED0DE1000
00000110110000
00BC700001A800
01FF50004EF700
04FF2019EFF300
08FE5CE64FF000
0BFB14F48FC000
0EF702F5BF9011
1FF508F2EF70B1
0EFB9F80EFEC70
04DFD6006EE800
ENDCHAR
STARTCHAR uni051A
ENCODING 1306
SWIDTH 665 0
DWIDTH 12 0
BBX 12 15 0 -2
BITMAP
00017BEFEA20
008EA5547FE1
0AE44EE20CF7
6F62EF5009FB
AF1BFD000AFC
7E3FF7000BFB
028FF2000EF9
00CFD0003FF5
00EFB0009FE1
01FF9002EF80
00EFDAABFD10
009FE3DFE300
0019EEDFA000
0000000DFC80
00000004DE50
ENDCHAR
STARTCHAR uni051B
ENCODING 1307
SWIDTH 486 0
DWIDTH 9 0
BBX 10 14 -1 -5
BITMAP
0006DFAFF8
008FE48FF4
04FF507FF1
0BFD00BFD0
1FF900EFA0
3FF703FF70
3FF80AFF30
1EFFEFFF00
04DE9DFC00
00001FF900
00003FF500
00007FF200
0000AFC000
0000310000
ENDCHAR
STARTCHAR uni051C
ENCODING 1308
SWIDTH 962 0
DWIDTH 17 0
BBX 19 13 0 0
BITMAP
0005ADF2001FF6000D60
02CBAFF2007FF6003E10
2EA08FF300CFF6009900
AF107FF302FFF600E300
DD007FF307DFF704D000
8C006FF30D7FF7097000
01006FF43D3FF71E1000
00006FF4872FF75A0000
00005FF4D22FF7A50000
00005FF8B02FF9D00000
00005FFE501FFE800000
00004FFE001FFF200000
00004FF8000FFC000000
ENDCHAR
STARTCHAR uni051D
ENCODING 1309
SWIDTH 661 0
DWIDTH 12 0
BBX 13 9 -1 0
BITMAP
00DFB07FF26E50
02FF70AFE06D90
05FF40DFB00780
08FF11FF800B60
0BFD04FF401F20
0EF908FF108B00
2FF81DFE04F400
1FFEDDFFCF8000
07ED62CFD70000
ENDCHAR
STARTCHAR uni0524
ENCODING 1316
SWIDTH 742 0
DWIDTH 13 0
BBX 15 16 0 -3
BITMAP
0039DEFFFFFFFF10
08F7CFD58CFFC600
5F60EFA00BFD0000
AF12FF600EFA0000
BE06FF302FF70000
4B09FF005FF40000
000CFC008FF10000
001FF900CFC00000
004FF500FF900000
007FF203FF500000
00AFE006FF200000
00DFB00AFE000000
01FF700DFD100000
000000016FD43000
000000000CFF9000
0000000004EC2000
ENDCHAR
STARTCHAR uni0525
ENCODING 1317
SWIDTH 505 0
DWIDTH 9 0
BBX 11 14 -1 -5
BITMAP
00DFDBED3000
01FFC3EFA000
05FF40DFA000
08FF01FF8000
0BFC04FF4000
0EF907FF1050
2FF609FE0660
6FF308FFDC00
9FF002CEA100
0000004B0000
000000DF5000
000000BF8000
0000003D1000
000000110000
ENDCHAR
STARTCHAR uni1E0C
ENCODING 7692
SWIDTH 663 0
DWIDTH 12 0
BBX 12 17 0 -4
BITMAP
0005ADFEB500
02CD7324DF70
1DC1BEA04FF2
9F32FF700FF7
DD06FF300DF9
BC09FF000EF8
150DFC001FF7
001FF8004FF4
004FF5008FE0
008FF200DF80
00BFD006FE10
00EFC25EF500
03FFACFC4000
000000000000
0003C9000000
0009FF200000
0004EB000000
ENDCHAR
STARTCHAR uni1E0D
ENCODING 7693
SWIDTH 525 0
DWIDTH 9 0
BBX 12 17 -1 -4
BITMAP
000000003520
00000006FF30
00000009FF00
0000000DFC00
0006DFAFF900
008FE48FF600
04FF607FF300
0BFE00AFE000
1FFA00DFB000
3FF801FF8000
3FF704FF5071
1EFA2CFF6470
04DFB4BFD600
000000000000
001AB1000000
006FF6000000
002DD2000000
ENDCHAR
STARTCHAR uni1E20
ENCODING 7712
SWIDTH 578 0
DWIDTH 10 0
BBX 11 20 0 -4
BITMAP
00009EEEEE20
000012222200
000000000000
00028CEEB300
006EFB42BE10
05FFA0009F30
1EFE1001DB00
6FF800000000
9FF400026500
9FF20009F900
7FF3002EF600
2EFA12CFF200
04DFFBAFE000
000100BFA000
000100EF7000
01CFD4FF2000
0AE228FC0000
0AD12EF30000
02CFFD400000
000110000000
ENDCHAR
STARTCHAR uni1E21
ENCODING 7713
SWIDTH 507 0
DWIDTH 9 0
BBX 11 16 -1 -4
BITMAP
0004FFFFF800
000011111000
000000000000
0006DFAFF800
008FE48FF500
04FF507FF100
0BFD00BFD000
1FF900EFA000
3FF702FF7040
3FF809FF3480
1EFFEFFF2A10
04DE9DFE8100
0007DFF80000
008A5FF50000
00C5AFD00000
004DEB200000
ENDCHAR
STARTCHAR uni1E24
ENCODING 7716
SWIDTH 665 0
DWIDTH 12 0
BBX 13 17 0 -4
BITMAP
0005ADF203FF60
02C5BFE007FF20
1E70EFA00AFE00
9F13FF700EFB00
BE06FF413FF700
4C09FFFFFFF400
000CFC44AFF100
001FF800CFD000
004FF500FF9000
007FF203FF6000
00AFE006FF3000
00DFB00AFE0000
01FF700DFB0000
00000000000000
00009B30000000
0003FF90000000
0000BE40000000
ENDCHAR
STARTCHAR uni1E25
ENCODING 7717
SWIDTH 505 0
DWIDTH 9 0
BBX 11 17 -1 -4
BITMAP
000353000000
003FF6000000
006FF2000000
00AFD0000000
00DFDBEC2000
01FFC3EF9000
04FF40DFA000
08FF01FF8000
0BFC04FF5000
0EF907FF2000
2FF609FE0190
5FF308FE2920
9FF001BEC400
000000000000
002B90000000
008FF3000000
003EC1000000
ENDCHAR
STARTCHAR uni1E2A
ENCODING 7722
SWIDTH 665 0
DWIDTH 12 0
BBX 13 17 0 -4
BITMAP
0005ADF203FF60
02C5BFE007FF20
1E70EFA00AFE00
9F13FF700EFB00
BE06FF413FF700
4C09FFFFFFF400
000CFC44AFF100
001FF800CFD000
004FF500FF9000
007FF203FF6000
00AFE006FF3000
00DFB00AFE0000
01FF700DFB0000
00000000000000
00570008400000
006F418E200000
0009EEA2000000
ENDCHAR
STARTCHAR uni1E2B
ENCODING 7723
SWIDTH 505 0
DWIDTH 9 0
BBX 11 17 -1 -4
BITMAP
000353000000
003FF6000000
006FF2000000
00AFD0000000
00DFDBEC2000
01FFC3EF9000
04FF40DFA000
08FF01FF8000
0BFC04FF5000
0EF907FF2000
2FF609FE0190
5FF308FE2920
9FF001BEC400
000000000000
084003800000
0CC12CA00000
03CED7000000
ENDCHAR
STARTCHAR uni1E36
ENCODING 7734
SWIDTH 379 0
DWIDTH 7 0
BBX 12 17 0 -4
BITMAP
0005AEF10000
02CADFC00000
2E90FF900000
AF13FF500000
DD07FF200000
7C0AFE000000
000DFA000000
002FF7000000
005FF3000000
009FF0000000
00CFC0000000
01FF80000000
04FFC5100000
0015CFE83000
04C707FFFEDB
0BFF103DFFF9
06EA00018ED2
ENDCHAR
STARTCHAR uni1E37
ENCODING 7735
SWIDTH 293 0
DWIDTH 5 0
BBX 7 17 -1 -4
BITMAP
00048900
000CFC00
000FF900
003FF600
007FF300
00AFE000
00DFB000
01FF8000
04FF5000
07FF2060
0AFE0290
09FF9C20
02CEA200
00000000
08C30000
1FFA0000
0BE50000
ENDCHAR
STARTCHAR uni1E42
ENCODING 7746
SWIDTH 787 0
DWIDTH 14 0
BBX 14 17 1 -4
BITMAP
0006BEF5005FF6
02C78FF400BFF4
1D90DFF303FFF2
8F24FFF309FFE0
BF09FFF21EFFC0
5E1EDFF17EEFA0
005F8FF1D9FF80
00BB7FF5F5FF60
02F58FEBA5FF30
07E08FFF48FF10
0D909FFC0AFE00
4F30AFF60CFC00
9C00AFE10EFA00
00000000000000
0001AA10000000
0006FF60000000
0002DD20000000
ENDCHAR
STARTCHAR uni1E43
ENCODING 7747
SWIDTH 752 0
DWIDTH 14 0
BBX 16 13 -1 -4
BITMAP
00DFDBEE58DE7000
01FFC3EFF59FF100
05FF40EFB06FF200
08FF02FF709FF000
0BFC05FF40CFC000
0EF908FF10FF9000
2FF60BFD02FF6091
6FF30EFA01FF7480
9FF02FF7007EE800
0000000000000000
00003C8000000000
0000AFF100000000
00005EA000000000
ENDCHAR
STARTCHAR uni1E44
ENCODING 7748
SWIDTH 668 0
DWIDTH 12 0
BBX 13 17 0 0
BITMAP
000000006E9000
00000000CFF000
000000005C7000
00000000000000
0039DFD1000EC0
06E6CFF4002F90
4F70EFF8005F50
BF13FFFB009F20
DE06FEFF00CE00
9F0AF7FF30FA00
041DE1FF73F700
002FA0DFA6F300
005F709FEAF000
008F305FFEC000
00CE002FFF8000
00FB000DFF5000
03F70009FF1000
ENDCHAR
STARTCHAR uni1E45
ENCODING 7749
SWIDTH 505 0
DWIDTH 9 0
BBX 11 13 -1 0
BITMAP
000007E80000
00000DFE0000
000005C60000
000000000000
00DFDBEC2000
01FFC3EF9000
05FF40DFA000
08FF01FF8000
0BFC04FF5000
0EF907FF2000
2FF609FE0190
6FF308FE2920
9FF001BEC400
ENDCHAR
STARTCHAR uni1E46
ENCODING 7750
SWIDTH 668 0
DWIDTH 12 0
BBX 13 17 0 -4
BITMAP
0039DFD1000EC0
06E6CFF4002F90
4F70EFF8005F50
BF13FFFB009F20
DE06FEFF00CE00
9F0AF7FF30FA00
041DE1FF73F700
002FA0DFA6F300
005F709FEAF000
008F305FFEC000
00CE002FFF8000
00FB000DFF5000
03F70009FF1000
00000000000000
00007C40000000
0000FFC0000000
00009E60000000
ENDCHAR
STARTCHAR uni1E47
ENCODING 7751
SWIDTH 505 0
DWIDTH 9 0
BBX 11 13 -1 -4
BITMAP
00DFDBEC2000
01FFC3EF9000
05FF40DFA000
08FF01FF8000
0BFC04FF5000
0EF907FF2000
2FF609FE0190
6FF308FE2920
9FF001BEC400
000000000000
001AB1000000
006FF6000000
002DD2000000
ENDCHAR
STARTCHAR uni1E5A
ENCODING 7770
SWIDTH 601 0
DWIDTH 11 0
BBX 11 17 0 -4
BITMAP
0006BEFEA300
03DD6333DF30
3EA0DF906F70
BF13FF50AF40
DC06FF27F700
5A09FFFFD300
000DFB3DFB00
001FF70AFB00
005FF30CF900
008FF11FF600
00BFC05FF200
00EF908FF000
03FF605EF300
000000000000
0000AB200000
0004FF800000
0001CE300000
ENDCHAR
STARTCHAR uni1E5B
ENCODING 7771
SWIDTH 376 0
DWIDTH 7 0
BBX 8 13 -1 -4
BITMAP
00DFB8EA
01FFEBFE
05FF50B7
08FF1000
0BFD0000
0EFA0000
2FF70000
6FF30000
9FF00000
00000000
5C600000
CFE00000
7E900000
ENDCHAR
STARTCHAR uni1E60
ENCODING 7776
SWIDTH 570 0
DWIDTH 10 0
BBX 10 18 0 0
BITMAP
0000006C50
000000DFD0
0000008E70
0000000000
0000000000
00007DFE91
000BFC33EA
003FF500DE
003FF804F9
000DFE3010
0003EFE300
00005FFE20
017717FFB0
0CFC50CFF2
5FD0007FF3
5FB000AFE0
1DF749FF40
02AEFD9200
ENDCHAR
STARTCHAR uni1E61
ENCODING 7777
SWIDTH 382 0
DWIDTH 7 0
BBX 9 13 -1 0
BITMAP
00007E8000
0000DFE000
00005C6000
0000000000
0005BD4000
000DFF5000
003DFF6000
00A6FF7000
03B1FF8000
1C60FF9000
8E60FFB820
7A27FFA200
09EEC50000
ENDCHAR
STARTCHAR uni1E62
ENCODING 7778
SWIDTH 570 0
DWIDTH 10 0
BBX 10 17 0 -4
BITMAP
00007DFE91
000BFC33EA
003FF500DE
003FF804F9
000DFE3010
0003EFE300
00005FFE20
017717FFB0
0CFC50CFF2
5FD0007FF3
5FB000AFE0
1DF749FF40
02AEFD9200
0000000000
004C700000
00BFF00000
006EA00000
ENDCHAR
STARTCHAR uni1E63
ENCODING 7779
SWIDTH 382 0
DWIDTH 7 0
BBX 9 14 -1 -4
BITMAP
0003793000
000BFF5000
001EFF5000
0078FF7000
00C3FF8000
0661FF9000
3E90FFA330
8A20FFD900
6B28FF6000
09EEB30000
0000000000
07C4000000
1FFB000000
0AE5000000
ENDCHAR
STARTCHAR uni1E6C
ENCODING 7788
SWIDTH 481 0
DWIDTH 9 0
BBX 13 17 0 -4
BITMAP
0039DEFD941280
07E73BFFFFFFA0
4F500EFE9BDB20
AE002FFA000000
DC005FF6000000
BC009FF3000000
2700CFE0000000
0000FFB0000000
0003FF70000000
0006FF40000000
000AFF00000000
000DFC00000000
001FF800000000
00000000000000
003C8000000000
00AFF200000000
005EB000000000
ENDCHAR
STARTCHAR uni1E6D
ENCODING 7789
SWIDTH 267 0
DWIDTH 5 0
BBX 7 16 -1 -4
BITMAP
0028A400
007FF200
00AFE000
07FFFC00
01FF9100
04FF5000
07FF2000
0AFD0000
0EFA0110
1FF70940
1FFEBA00
07ED8000
00000000
5C600000
CFE00000
7E900000
ENDCHAR
STARTCHAR Wgrave
ENCODING 7808
SWIDTH 962 0
DWIDTH 17 0
BBX 19 18 0 0
BITMAP
00000000006F60000000
00000000001F80000000
00000000000AB0000000
00000000000000000000
00000000000000000000
0005ADF2001FF6000D60
02CBAFF2007FF6003E10
2EA08FF300CFF6009900
AF107FF302FFF600E300
DD007FF307DFF704D000
8C006FF30D7FF7097000
01006FF43D3FF71E1000
00006FF4872FF75A0000
00005FF4D22FF7A50000
00005FF8B02FF9D00000
00005FFE501FFE800000
00004FFE001FFF200000
00004FF8000FFC000000
ENDCHAR
STARTCHAR wgrave
ENCODING 7809
SWIDTH 661 0
DWIDTH 12 0
BBX 13 13 -1 0
BITMAP
000002FA000000
000000CC000000
0000007F000000
00000000000000
00DFB07FF26E50
02FF70AFE06D90
05FF40DFB00780
08FF11FF800B60
0BFD04FF401F20
0EF908FF108B00
2FF81DFE04F400
1FFEDDFFCF8000
07ED62CFD70000
ENDCHAR
STARTCHAR Wacute
ENCODING 7810
SWIDTH 962 0
DWIDTH 17 0
BBX 19 18 0 0
BITMAP
00000000000006710000
0000000000003F800000
000000000000BC000000
00000000000172000000
00000000000000000000
0005ADF2001FF6000D60
02CBAFF2007FF6003E10
2EA08FF300CFF6009900
AF107FF302FFF600E300
DD007FF307DFF704D000
8C006FF30D7FF7097000
01006FF43D3FF71E1000
00006FF4872FF75A0000
00005FF4D22FF7A50000
00005FF8B02FF9D00000
00005FFE501FFE800000
00004FFE001FFF200000
00004FF8000FFC000000
ENDCHAR
STARTCHAR wacute
ENCODING 7811
SWIDTH 661 0
DWIDTH 12 0
BBX 13 13 -1 0
BITMAP
000000008F4000
00000001F90000
00000008D10000
00000004200000
00DFB07FF26E50
02FF70AFE06D90
05FF40DFB00780
08FF11FF800B60
0BFD04FF401F20
0EF908FF108B00
2FF81DFE04F400
1FFEDDFFCF8000
07ED62CFD70000
ENDCHAR
STARTCHAR Wdieresis
ENCODING 7812
SWIDTH 962 0
DWIDTH 17 0
BBX 19 17 0 0
BITMAP
0000000003E71DB00000
0000000004F91ED00000
00000000001001100000
00000000000000000000
0005ADF2001FF6000D60
02CBAFF2007FF6003E10
2EA08FF300CFF6009900
AF107FF302FFF600E300
DD007FF307DFF704D000
8C006FF30D7FF7097000
01006FF43D3FF71E1000
00006FF4872FF75A0000
00005FF4D22FF7A50000
00005FF8B02FF9D00000
00005FFE501FFE800000
00004FFE001FFF200000
00004FF8000FFC000000
ENDCHAR
STARTCHAR wdieresis
ENCODING 7813
SWIDTH 661 0
DWIDTH 12 0
BBX 13 12 -1 0
BITMAP
00000BD18E3000
00000DE19F4000
00000110010000
00DFB07FF26E50
02FF70AFE06D90
05FF40DFB00780
08FF11FF800B60
0BFD04FF401F20
0EF908FF108B00
2FF81DFE04F400
1FFEDDFFCF8000
07ED62CFD70000
ENDCHAR
STARTCHAR uni1E8E
ENCODING 7822
SWIDTH 620 0
DWIDTH 11 0
BBX 13 17 0 0
BITMAP
000000009E6000
00000000FFC000
000000007C5000
00000000000000
0005ADF4000D50
02CB9FF8004D00
2EA03FFB00A600
AF100EFF12E100
DD000AFF488000
8C0006FF8D1000
010002FFF90000
000000DFF20000
000000FFD00000
000003FFA00000
000007FF700000
00000AFF300000
00000DFF000000
ENDCHAR
STARTCHAR uni1E8F
ENCODING 7823
SWIDTH 505 0
DWIDTH 9 0
BBX 11 17 -1 -4
BITMAP
00000BE40000
00002FFA0000
000009C30000
000000000000
00DFB07FF200
02FF70AFE000
05FF40DFB000
08FF11FF8000
0BFD05FF4000
0EF908FF1120
2FF81EFD0920
1FFEDFFA5800
07ED9FFC6000
0029EFF30000
00C4AFE00000
02E7FF800000
009EE8000000
ENDCHAR
STARTCHAR uni1E92
ENCODING 7826
SWIDTH 542 0
DWIDTH 10 0
BBX 10 22 0 -4
BITMAP
00000001FB
00000008F2
0000001E80
0000003700
0000000000
009EFFFFFA
05F811BFF2
03D504FF90
00000CFF20
00005FF900
0000CFE200
0005FF8000
000DFE1000
006FF80000
01EFE10000
07FF700BB0
1EFE212ED0
8FFFFFFD30
0000000000
002B900000
009FF30000
004EB00000
ENDCHAR
STARTCHAR uni1E93
ENCODING 7827
SWIDTH 428 0
DWIDTH 8 0
BBX 8 13 0 -4
BITMAP
04DFFFF6
0EC1BFD0
0964FF40
000CFB00
006FF300
01EF9000
08FE1460
2FF92BD0
BFFFFD40
00000000
09B20000
3FF80000
1CE30000
ENDCHAR
STARTCHAR uni1E97
ENCODING 7831
SWIDTH 267 0
DWIDTH 5 0
BBX 8 15 -1 0
BITMAP
00110010
00CE1CF2
00BD1AD1
00146200
006FF300
00AFE000
07FFFC00
01FF9100
04FF5000
07FF2000
0AFD0000
0EFA0110
1FF70940
1FFEBA00
07ED8000
ENDCHAR
STARTCHAR uni1E9E
ENCODING 7838
SWIDTH 559 0
DWIDTH 10 0
BBX 12 18 -1 -5
BITMAP
00003BEFFFF8
0002EF91BFE1
0009FE03FF80
001EF90BFE10
004FF54FF700
008FF1CFE100
00CFC09FC000
00EF900EF700
03FF600AFD00
06FF2008FE00
09FE000BFB00
0DFA426FF400
1FF78EEB3000
4FF400000000
7FF000000000
AFC000000000
DC6000000000
100000000000
ENDCHAR
STARTCHAR uni1EA0
ENCODING 7840
SWIDTH 668 0
DWIDTH 12 0
BBX 13 17 0 -4
BITMAP
0000000029EE40
00000003CAFF30
0000003D3AFE00
000002E60DFB00
00000CC01FF800
07CEEFC66FF400
9F84FD36DFF100
BF39F600BFD000
022FE100EF9000
008FA003FF6000
00EF5006FF3000
03FF100AFE0000
06FD000DFB0000
06FB0000000000
01AA03C8000000
00000AFF200000
000005EB000000
ENDCHAR
STARTCHAR uni1EA1
ENCODING 7841
SWIDTH 526 0
DWIDTH 9 0
BBX 12 13 -1 -4
BITMAP
0006DFAFF800
008FE48FF500
04FF507FF200
0BFD00AFD000
1FF900DFA000
3FF702FF7021
3FF707FF50B0
1EFEACFFDC50
04DE919EC500
000000000000
001AB1000000
006FF6000000
002DD2000000
ENDCHAR
STARTCHAR uni1EA2
ENCODING 7842
SWIDTH 668 0
DWIDTH 12 0
BBX 14 20 0 -2
BITMAP
0000000001BEA0
000000000054F5
000000000001D1
00000000008810
00000000001100
0000000029EE40
00000003CAFF30
0000003D3AFE00
000002E60DFB00
00000CC01FF800
07CEEFC66FF400
9F84FD36DFF100
BF39F600BFD000
022FE100EF9000
008FA003FF6000
00EF5006FF3000
03FF100AFE0000
06FD000DFB0000
07FB0000000000
01CB0000000000
ENDCHAR
STARTCHAR uni1EA3
ENCODING 7843
SWIDTH 526 0
DWIDTH 9 0
BBX 12 13 -1 0
BITMAP
000002DFB100
00000034F200
000000993000
000000100000
0006DFAFF800
008FE48FF500
04FF507FF200
0BFD00AFD000
1FF900DFA000
3FF702FF7021
3FF707FF50B0
1EFEACFFDC50
04DE919EC500
ENDCHAR
STARTCHAR uni1EA4
ENCODING 7844
SWIDTH 668 0
DWIDTH 12 0
BBX 16 20 0 -2
BITMAP
0000000000000072
00000000000985A0
0000000002B7C510
0000000006205100
0000000000000000
0000000029EE4000
00000003CAFF3000
0000003D3AFE0000
000002E60DFB0000
00000CC01FF80000
07CEEFC66FF40000
9F84FD36DFF10000
BF39F600BFD00000
022FE100EF900000
008FA003FF600000
00EF5006FF300000
03FF100AFE000000
06FD000DFB000000
07FB000000000000
01CB000000000000
ENDCHAR
STARTCHAR uni1EA5
ENCODING 7845
SWIDTH 526 0
DWIDTH 9 0
BBX 12 16 -1 0
BITMAP
000000000066
0000000002F4
000000000990
0000002D1610
000004ED6000
000048218000
000000000000
0006DFAFF800
008FE48FF500
04FF507FF200
0BFD00AFD000
1FF900DFA000
3FF702FF7021
3FF707FF50B0
1EFEACFFDC50
04DE919EC500
ENDCHAR
STARTCHAR uni1EA6
ENCODING 7846
SWIDTH 668 0
DWIDTH 12 0
BBX 15 20 0 -2
BITMAP
0000000000001B60
00000000002C9580
0000000006A2C110
0000000002001000
0000000000000000
0000000029EE4000
00000003CAFF3000
0000003D3AFE0000
000002E60DFB0000
00000CC01FF80000
07CEEFC66FF40000
9F84FD36DFF10000
BF39F600BFD00000
022FE100EF900000
008FA003FF600000
00EF5006FF300000
03FF100AFE000000
06FD000DFB000000
07FB000000000000
01CB000000000000
ENDCHAR
STARTCHAR uni1EA7
ENCODING 7847
SWIDTH 526 0
DWIDTH 9 0
BBX 12 15 -1 0
BITMAP
000000002F30
000000000C50
0000002D1770
000004DC6000
000047118000
000000000000
0006DFAFF800
008FE48FF500
04FF507FF200
0BFD00AFD000
1FF900DFA000
3FF702FF7021
3FF707FF50B0
1EFEACFFDC50
04DE919EC500
ENDCHAR
STARTCHAR uni1EA8
ENCODING 7848
SWIDTH 668 0
DWIDTH 12 0
BBX 16 20 0 -2
BITMAP
0000000000000BD3
00000000000769F4
0000000001A7C510
0000000008307100
0000000000000000
0000000029EE4000
00000003CAFF3000
0000003D3AFE0000
000002E60DFB0000
00000CC01FF80000
07CEEFC66FF40000
9F84FD36DFF10000
BF39F600BFD00000
022FE100EF900000
008FA003FF600000
00EF5006FF300000
03FF100AFE000000
06FD000DFB000000
07FB000000000000
01CB000000000000
ENDCHAR
STARTCHAR uni1EA9
ENCODING 7849
SWIDTH 526 0
DWIDTH 9 0
BBX 12 15 -1 0
BITMAP
000000003DB0
0000000014D1
0000002D1B50
000004ED6100
000048218000
000000000000
0006DFAFF800
008FE48FF500
04FF507FF200
0BFD00AFD000
1FF900DFA000
3FF702FF7021
3FF707FF50B0
1EFEACFFDC50
04DE919EC500
ENDCHAR
STARTCHAR uni1EAA
ENCODING 7850
SWIDTH 668 0
DWIDTH 12 0
BBX 15 20 0 -2
BITMAP
0000000000378840
00000000001CC500
0000000002B7D000
0000000006205100
0000000000000000
0000000029EE4000
00000003CAFF3000
0000003D3AFE0000
000002E60DFB0000
00000CC01FF80000
07CEEFC66FF40000
9F84FD36DFF10000
BF39F600BFD00000
022FE100EF900000
008FA003FF600000
00EF5006FF300000
03FF100AFE000000
06FD000DFB000000
07FB000000000000
01CB000000000000
ENDCHAR
STARTCHAR uni1EAB
ENCODING 7851
SWIDTH 526 0
DWIDTH 9 0
BBX 12 15 -1 0
BITMAP
0000018DC810
000000001000
0000002D1000
000004ED6000
000048218000
000000000000
0006DFAFF800
008FE48FF500
04FF507FF200
0BFD00AFD000
1FF900DFA000
3FF702FF7021
3FF707FF50B0
1EFEACFFDC50
04DE919EC500
ENDCHAR
STARTCHAR uni1EAC
ENCODING 7852
SWIDTH 668 0
DWIDTH 12 0
BBX 14 22 0 -4
BITMAP
000000000004C0
00000000005FF2
0000000006D597
00000000250005
00000000000000
0000000029EE40
00000003CAFF30
0000003D3AFE00
000002E60DFB00
00000CC01FF800
07CEEFC66FF400
9F84FD36DFF100
BF39F600BFD000
022FE100EF9000
008FA003FF6000
00EF5006FF3000
03FF100AFE0000
06FD000DFB0000
06FB0000000000
01AA03C8000000
00000AFF200000
000005EB000000
ENDCHAR
STARTCHAR uni1EAD
ENCODING 7853
SWIDTH 526 0
DWIDTH 9 0
BBX 12 17 -1 -4
BITMAP
0000002D3000
000004EE8000
00007A32B000
000010001000
0006DFAFF800
008FE48FF500
04FF507FF200
0BFD00AFD000
1FF900DFA000
3FF702FF7021
3FF707FF50B0
1EFEACFFDC50
04DE919EC500
000000000000
001AB1000000
006FF6000000
002DD2000000
ENDCHAR
STARTCHAR uni1EAE
ENCODING 7854
SWIDTH 668 0
DWIDTH 12 0
BBX 15 20 0 -2
BITMAP
0000000000007300
000000000206B210
000000000E766E20
0000000005CCA200
0000000000000000
0000000029EE4000
00000003CAFF3000
0000003D3AFE0000
000002E60DFB0000
00000CC01FF80000
07CEEFC66FF40000
9F84FD36DFF10000
BF39F600BFD00000
022FE100EF900000
008FA003FF600000
00EF5006FF300000
03FF100AFE000000
06FD000DFB000000
07FB000000000000
01CB000000000000
ENDCHAR
STARTCHAR uni1EAF
ENCODING 7855
SWIDTH 526 0
DWIDTH 9 0
BBX 12 15 -1 0
BITMAP
00000009C000
0000001E4000
0000005C0000
0000CB23CA00
00003CDC7000
000000000000
0006DFAFF800
008FE48FF500
04FF507FF200
0BFD00AFD000
1FF900DFA000
3FF702FF7021
3FF707FF50B0
1EFEACFFDC50
04DE919EC500
ENDCHAR
STARTCHAR uni1EB0
ENCODING 7856
SWIDTH 668 0
DWIDTH 12 0
BBX 15 20 0 -2
BITMAP
00000000006E0000
00000000022F1210
000000000E725E20
0000000005CCA200
0000000000000000
0000000029EE4000
00000003CAFF3000
0000003D3AFE0000
000002E60DFB0000
00000CC01FF80000
07CEEFC66FF40000
9F84FD36DFF10000
BF39F600BFD00000
022FE100EF900000
008FA003FF600000
00EF5006FF300000
03FF100AFE000000
06FD000DFB000000
07FB000000000000
01CB000000000000
ENDCHAR
STARTCHAR uni1EB1
ENCODING 7857
SWIDTH 526 0
DWIDTH 9 0
BBX 12 15 -1 0
BITMAP
000003F20000
000000D40000
000000760000
0000CB01CA00
00003CDC7000
000000000000
0006DFAFF800
008FE48FF500
04FF507FF200
0BFD00AFD000
1FF900DFA000
3FF702FF7021
3FF707FF50B0
1EFEACFFDC50
04DE919EC500
ENDCHAR
STARTCHAR uni1EB2
ENCODING 7858
SWIDTH 668 0
DWIDTH 12 0
BBX 15 20 0 -2
BITMAP
00000000004DA000
00000000060FC420
000000000E565E20
0000000006FFD300
0000000000010000
0000000029EE4000
00000003CAFF3000
0000003D3AFE0000
000002E60DFB0000
00000CC01FF80000
07CEEFC66FF40000
9F84FD36DFF10000
BF39F600BFD00000
022FE100EF900000
008FA003FF600000
00EF5006FF300000
03FF100AFE000000
06FD000DFB000000
07FB000000000000
01CB000000000000
ENDCHAR
STARTCHAR uni1EB3
ENCODING 7859
SWIDTH 526 0
DWIDTH 9 0
BBX 12 15 -1 0
BITMAP
000000BD2000
000000397000
0000008E3000
0000CB53CA00
00003CDC7000
000000000000
0006DFAFF800
008FE48FF500
04FF507FF200
0BFD00AFD000
1FF900DFA000
3FF702FF7021
3FF707FF50B0
1EFEACFFDC50
04DE919EC500
ENDCHAR
STARTCHAR uni1EB4
ENCODING 7860
SWIDTH 668 0
DWIDTH 12 0
BBX 15 20 0 -2
BITMAP
0000000000578710
0000000003257510
000000000E704E20
0000000005CCA200
0000000000000000
0000000029EE4000
00000003CAFF3000
0000003D3AFE0000
000002E60DFB0000
00000CC01FF80000
07CEEFC66FF40000
9F84FD36DFF10000
BF39F600BFD00000
022FE100EF900000
008FA003FF600000
00EF5006FF300000
03FF100AFE000000
06FD000DFB000000
07FB000000000000
01CB000000000000
ENDCHAR
STARTCHAR uni1EB5
ENCODING 7861
SWIDTH 526 0
DWIDTH 9 0
BBX 12 15 -1 0
BITMAP
000003ADB600
000000001000
000000000000
0000BC01BB00
00003BDC8100
000000000000
0006DFAFF800
008FE48FF500
04FF507FF200
0BFD00AFD000
1FF900DFA000
3FF702FF7021
3FF707FF50B0
1EFEACFFDC50
04DE919EC500
ENDCHAR
STARTCHAR uni1EB6
ENCODING 7862
SWIDTH 668 0
DWIDTH 12 0
BBX 15 21 0 -4
BITMAP
00000000AF000DB0
000000006F618F30
0000000008EEB300
0000000000000000
0000000029EE4000
00000003CAFF3000
0000003D3AFE0000
000002E60DFB0000
00000CC01FF80000
07CEEFC66FF40000
9F84FD36DFF10000
BF39F600BFD00000
022FE100EF900000
008FA003FF600000
00EF5006FF300000
03FF100AFE000000
06FD000DFB000000
06FB000000000000
01AA03C800000000
00000AFF20000000
000005EB00000000
ENDCHAR
STARTCHAR uni1EB7
ENCODING 7863
SWIDTH 526 0
DWIDTH 9 0
BBX 12 17 -1 -4
BITMAP
0003F802AE10
00007DED9200
000000000000
000000000000
0006DFAFF800
008FE48FF500
04FF507FF200
0BFD00AFD000
1FF900DFA000
3FF702FF7021
3FF707FF50B0
1EFEACFFDC50
04DE919EC500
000000000000
001AB1000000
006FF6000000
002DD2000000
ENDCHAR
STARTCHAR uni1EB8
ENCODING 7864
SWIDTH 459 0
DWIDTH 8 0
BBX 9 17 0 -4
BITMAP
00018DEB20
000CF82BB0
006FD00AC0
009FB01C40
007FE10000
001DFB1000
04EFB10000
2EFD100000
9FF7000000
CFF4000040
CFF9002A30
7FFFEEE500
07DED92000
0000000000
03C8000000
09FF200000
04EB000000
ENDCHAR
STARTCHAR uni1EB9
ENCODING 7865
SWIDTH 384 0
DWIDTH 7 0
BBX 9 13 -1 -4
BITMAP
0006DFD300
008FD3D800
04FF31E600
0BFC2CD100
0FFFE91000
3FF8000120
3FF7000910
1EFC239300
04CFD81000
0000000000
02BA000000
07FF400000
03EC100000
ENDCHAR
STARTCHAR uni1EBA
ENCODING 7866
SWIDTH 459 0
DWIDTH 8 0
BBX 9 18 0 0
BITMAP
000005DE70
00000138D0
000000E710
0000002000
0000000000
00018DEB20
000CF82BB0
006FD00AC0
009FB01C40
007FE10000
001DFB1000
04EFB10000
2EFD100000
9FF7000000
CFF4000040
CFF9002A30
7FFFEEE500
07DED92000
ENDCHAR
STARTCHAR uni1EBB
ENCODING 7867
SWIDTH 384 0
DWIDTH 7 0
BBX 9 13 -1 0
BITMAP
00007EE600
0000129B00
00000E6100
0000020000
0006DFD300
008FD3D800
04FF31E600
0BFC2CD100
0FFFE91000
3FF8000120
3FF7000910
1EFC239300
04CFD81000
ENDCHAR
STARTCHAR uni1EBC
ENCODING 7868
SWIDTH 459 0
DWIDTH 8 0
BBX 11 17 0 0
BITMAP
00003CEC6130
000188CEE910
000000000000
000000000000
00018DEB2000
000CF82BB000
006FD00AC000
009FB01C4000
007FE1000000
001DFB100000
04EFB1000000
2EFD10000000
9FF700000000
CFF400004000
CFF9002A3000
7FFFEEE50000
07DED9200000
ENDCHAR
STARTCHAR uni1EBD
ENCODING 7869
SWIDTH 384 0
DWIDTH 7 0
BBX 9 12 -1 0
BITMAP
002BEEB870
00659DEA20
0000000000
0006DFD300
008FD3D800
04FF31E600
0BFC2CD100
0FFFE91000
3FF8000120
3FF7000910
1EFC239300
04CFD81000
ENDCHAR
STARTCHAR uni1EBE
ENCODING 7870
SWIDTH 459 0
DWIDTH 8 0
BBX 11 18 0 0
BITMAP
0000000007A0
0000003D1D20
000006B98400
000036015000
000000000000
00018DEB2000
000CF82BB000
006FD00AC000
009FB01C4000
007FE1000000
001DFB100000
04EFB1000000
2EFD10000000
9FF700000000
CFF400004000
CFF9002A3000
7FFFEEE50000
07DED9200000
ENDCHAR
STARTCHAR uni1EBF
ENCODING 7871
SWIDTH 384 0
DWIDTH 7 0
BBX 11 16 -1 0
BITMAP
000000000570
000000001E60
000000007B00
000001C35200
00003DC80000
000392090000
000000000000
0006DFD30000
008FD3D80000
04FF31E60000
0BFC2CD10000
0FFFE9100000
3FF800012000
3FF700091000
1EFC23930000
04CFD8100000
ENDCHAR
STARTCHAR uni1EC0
ENCODING 7872
SWIDTH 459 0
DWIDTH 8 0
BBX 11 18 0 0
BITMAP
000000013D00
0000007E2C10
00002A658100
000011001000
000000000000
00018DEB2000
000CF82BB000
006FD00AC000
009FB01C4000
007FE1000000
001DFB100000
04EFB1000000
2EFD10000000
9FF700000000
CFF400004000
CFF9002A3000
7FFFEEE50000
07DED9200000
ENDCHAR
STARTCHAR uni1EC1
ENCODING 7873
SWIDTH 384 0
DWIDTH 7 0
BBX 10 15 -1 0
BITMAP
00000001E5
00000000A7
000001C359
00003DC800
0003920800
0000000000
0006DFD300
008FD3D800
04FF31E600
0BFC2CD100
0FFFE91000
3FF8000120
3FF7000910
1EFC239300
04CFD81000
ENDCHAR
STARTCHAR uni1EC2
ENCODING 7874
SWIDTH 459 0
DWIDTH 8 0
BBX 12 18 0 0
BITMAP
000000002DC1
0000002B0DE2
000004B95610
000038027000
000000000000
00018DEB2000
000CF82BB000
006FD00AC000
009FB01C4000
007FE1000000
001DFB100000
04EFB1000000
2EFD10000000
9FF700000000
CFF400004000
CFF9002A3000
7FFFEEE50000
07DED9200000
ENDCHAR
STARTCHAR uni1EC3
ENCODING 7875
SWIDTH 384 0
DWIDTH 7 0
BBX 10 15 -1 0
BITMAP
00000005D9
000000014D
000001C3C4
00003DD810
0003930900
0000000000
0006DFD300
008FD3D800
04FF31E600
0BFC2CD100
0FFFE91000
3FF8000120
3FF7000910
1EFC239300
04CFD81000
ENDCHAR
STARTCHAR uni1EC4
ENCODING 7876
SWIDTH 459 0
DWIDTH 8 0
BBX 11 18 0 0
BITMAP
000004DEB710
0000015F8200
000007B96000
000036015000
000000000000
00018DEB2000
000CF82BB000
006FD00AC000
009FB01C4000
007FE1000000
001DFB100000
04EFB1000000
2EFD10000000
9FF700000000
CFF400004000
CFF9002A3000
7FFFEEE50000
07DED9200000
ENDCHAR
STARTCHAR uni1EC5
ENCODING 7877
SWIDTH 384 0
DWIDTH 7 0
BBX 10 15 -1 0
BITMAP
000017DC92
0000000100
000001C300
00003DD800
0003930900
0000000000
0006DFD300
008FD3D800
04FF31E600
0BFC2CD100
0FFFE91000
3FF8000120
3FF7000910
1EFC239300
04CFD81000
ENDCHAR
STARTCHAR uni1EC6
ENCODING 7878
SWIDTH 459 0
DWIDTH 8 0
BBX 9 22 0 -4
BITMAP
0000003D00
000004EF40
00005D7790
0001610050
0000000000
00018DEB20
000CF82BB0
006FD00AC0
009FB01C40
007FE10000
001DFB1000
04EFB10000
2EFD100000
9FF7000000
CFF4000040
CFF9002A30
7FFFEEE500
07DED92000
0000000000
03C8000000
09FF200000
04EB000000
ENDCHAR
STARTCHAR uni1EC7
ENCODING 7879
SWIDTH 384 0
DWIDTH 7 0
BBX 9 17 -1 -4
BITMAP
000002C400
00003EE900
0005B51C00
0002000100
0006DFD300
008FD3D800
04FF31E600
0BFC2CD100
0FFFE91000
3FF8000120
3FF7000910
1EFC239300
04CFD81000
0000000000
02BA000000
07FF400000
03EC100000
ENDCHAR
STARTCHAR uni1EC8
ENCODING 7880
SWIDTH 375 0
DWIDTH 7 0
BBX 9 18 0 0
BITMAP
00002CE900
0000055F30
0000002D10
0000097100
0000010000
0005ADF100
02C8DFC000
2E81FF9000
AF14FF6000
DD07FF2000
8C0AFE0000
010DFB0000
002FF70000
005FF40000
008FF10000
00CFC00000
00FF900000
03FF600000
ENDCHAR
STARTCHAR uni1EC9
ENCODING 7881
SWIDTH 267 0
DWIDTH 5 0
BBX 7 13 -1 0
BITMAP
004DE900
00136E00
000C8200
00010000
00DFB000
02FF7000
05FF4000
08FF1000
0BFD0000
0EF90120
2FF70A40
1FFECA00
07ED7000
ENDCHAR
STARTCHAR uni1ECA
ENCODING 7882
SWIDTH 375 0
DWIDTH 7 0
BBX 8 17 0 -4
BITMAP
0005ADF1
02C8DFC0
2E81FF90
AF14FF60
DD07FF20
8C0AFE00
010DFB00
002FF700
005FF400
008FF100
00CFC000
00FF9000
03FF6000
00000000
06C50000
0DFD0000
08E70000
ENDCHAR
STARTCHAR uni1ECB
ENCODING 7883
SWIDTH 267 0
DWIDTH 5 0
BBX 7 16 -1 -4
BITMAP
002DD200
006FF600
001BB100
00DFB000
02FF7000
05FF4000
08FF1000
0BFD0000
0EF90120
2FF70A40
1FFECA00
07ED7000
00000000
5C600000
CFE00000
7E900000
ENDCHAR
STARTCHAR uni1ECC
ENCODING 7884
SWIDTH 665 0
DWIDTH 12 0
BBX 12 17 0 -4
BITMAP
00017BEFEA20
007EA5547FE1
0AE44EE30CF8
6F62EF6009FB
AF1BFD000AFC
7E3FF7000BFB
028FF2000EF8
00CFD0003FF4
00EFB0009FE1
01FF9002EF70
00EFB00AFC00
009FF8BFD100
0019EFD81000
000000000000
0003C8000000
000AFF100000
0005EA000000
ENDCHAR
STARTCHAR uni1ECD
ENCODING 7885
SWIDTH 433 0
DWIDTH 8 0
BBX 11 13 -1 -4
BITMAP
0007DFC20000
009FD3CA0000
05FF40DC1690
0CFD01EE9400
2FF900CA0000
4FF601F70000
5FF506E10000
2FF83E600000
05DFC5000000
000000000000
02BA00000000
07FF40000000
03EC10000000
ENDCHAR
STARTCHAR uni1ECE
ENCODING 7886
SWIDTH 665 0
DWIDTH 12 0
BBX 12 18 0 0
BITMAP
0000000AEB20
000000043D70
000000001C30
00000005B200
000000011000
00017BEFEA20
007EA5547FE1
0AE44EE30CF8
6F62EF6009FB
AF1BFD000AFC
7E3FF7000BFB
028FF2000EF8
00CFD0003FF4
00EFB0009FE1
01FF9002EF70
00EFB00AFC00
009FF8BFD100
0019EFD81000
ENDCHAR
STARTCHAR uni1ECF
ENCODING 7887
SWIDTH 433 0
DWIDTH 8 0
BBX 11 13 -1 0
BITMAP
00002CFB1000
0000033F3000
000009A30000
000001000000
0007DFC20000
009FD3CA0000
05FF40DC1690
0CFD01EE9400
2FF900CA0000
4FF601F70000
5FF506E10000
2FF83E600000
05DFC5000000
ENDCHAR
STARTCHAR uni1ED0
ENCODING 7888
SWIDTH 665 0
DWIDTH 12 0
BBX 13 18 0 0
BITMAP
00000000001E30
00000000986800
0000002B7C6100
00000062051000
00000000000000
00017BEFEA2000
007EA5547FE100
0AE44EE30CF800
6F62EF6009FB00
AF1BFD000AFC00
7E3FF7000BFB00
028FF2000EF800
00CFD0003FF400
00EFB0009FE100
01FF9002EF7000
00EFB00AFC0000
009FF8BFD10000
0019EFD8100000
ENDCHAR
STARTCHAR uni1ED1
ENCODING 7889
SWIDTH 433 0
DWIDTH 8 0
BBX 11 16 -1 0
BITMAP
000000000570
000000001E60
000000007B00
000001C35200
00003DC80000
000392090000
000000000000
0007DFC20000
009FD3CA0000
05FF40DC1690
0CFD01EE9400
2FF900CA0000
4FF601F70000
5FF506E10000
2FF83E600000
05DFC5000000
ENDCHAR
STARTCHAR uni1ED2
ENCODING 7890
SWIDTH 665 0
DWIDTH 12 0
BBX 12 18 0 0
BITMAP
0000000001B6
00000002C958
0000006A2C11
000000200100
000000000000
00017BEFEA20
007EA5547FE1
0AE44EE30CF8
6F62EF6009FB
AF1BFD000AFC
7E3FF7000BFB
028FF2000EF8
00CFD0003FF4
00EFB0009FE1
01FF9002EF70
00EFB00AFC00
009FF8BFD100
0019EFD81000
ENDCHAR
STARTCHAR uni1ED3
ENCODING 7891
SWIDTH 433 0
DWIDTH 8 0
BBX 11 15 -1 0
BITMAP
00000001E500
00000000A700
000001C35900
00003DC80000
000392080000
000000000000
0007DFC20000
009FD3CA0000
05FF40DC1690
0CFD01EE9400
2FF900CA0000
4FF601F70000
5FF506E10000
2FF83E600000
05DFC5000000
ENDCHAR
STARTCHAR uni1ED4
ENCODING 7892
SWIDTH 665 0
DWIDTH 12 0
BBX 13 18 0 0
BITMAP
00000000007E70
00000000765F80
0000001A7C3400
00000073071000
00000000000000
00017BEFEA2000
007EA5547FE100
0AE44EE30CF800
6F62EF6009FB00
AF1BFD000AFC00
7E3FF7000BFB00
028FF2000EF800
00CFD0003FF400
00EFB0009FE100
01FF9002EF7000
00EFB00AFC0000
009FF8BFD10000
0019EFD8100000
ENDCHAR
STARTCHAR uni1ED5
ENCODING 7893
SWIDTH 433 0
DWIDTH 8 0
BBX 11 15 -1 0
BITMAP
00000003DA00
000000014D20
000001C3DC00
00002DF76000
0002B74B0000
000100000000
0007DFC20000
009FD3CA0000
05FF40DC1690
0CFD01EE9400
2FF900CA0000
4FF601F70000
5FF506E10000
2FF83E600000
05DFC5000000
ENDCHAR
STARTCHAR uni1ED6
ENCODING 7894
SWIDTH 665 0
DWIDTH 12 0
BBX 12 18 0 0
BITMAP
00000009ED94
00000011CC50
0000002B7D00
000000620510
000000000000
00017BEFEA20
007EA5547FE1
0AE44EE30CF8
6F62EF6009FB
AF1BFD000AFC
7E3FF7000BFB
028FF2000EF8
00CFD0003FF4
00EFB0009FE1
01FF9002EF70
00EFB00AFC00
009FF8BFD100
0019EFD81000
ENDCHAR
STARTCHAR uni1ED7
ENCODING 7895
SWIDTH 433 0
DWIDTH 8 0
BBX 11 16 -1 0
BITMAP
000003751100
000028CFB100
000000000000
000001C30000
00003DD80000
000393090000
000000000000
0007DFC20000
009FD3CA0000
05FF40DC1690
0CFD01EE9400
2FF900CA0000
4FF601F70000
5FF506E10000
2FF83E600000
05DFC5000000
ENDCHAR
STARTCHAR uni1ED8
ENCODING 7896
SWIDTH 665 0
DWIDTH 12 0
BBX 12 22 0 -4
BITMAP
00000001B400
0000001CF800
000002D94C00
000006200410
000000000000
00017BEFEA20
007EA5547FE1
0AE44EE30CF8
6F62EF6009FB
AF1BFD000AFC
7E3FF7000BFB
028FF2000EF8
00CFD0003FF4
00EFB0009FE1
01FF9002EF70
00EFB00AFC00
009FF8BFD100
0019EFD81000
000000000000
0003C8000000
000AFF100000
0005EA000000
ENDCHAR
STARTCHAR uni1ED9
ENCODING 7897
SWIDTH 433 0
DWIDTH 8 0
BBX 11 17 -1 -4
BITMAP
000003D10000
00005EE60000
0008A33B0000
000100010000
0007DFC20000
009FD3CA0000
05FF40DC1690
0CFD01EE9400
2FF900CA0000
4FF601F70000
5FF506E10000
2FF83E600000
05DFC5000000
000000000000
02BA00000000
07FF40000000
03EC10000000
ENDCHAR
STARTCHAR uni1EDA
ENCODING 7898
SWIDTH 665 0
DWIDTH 12 0
BBX 13 18 0 0
BITMAP
000000007F5000
00000000DB0000
00000006F20450
00000006500AF0
00000000000BC0
00017BEFD82E50
007EA5547FF800
0AE44EE30CF600
6F62EF6009FA00
AF1BFD000AFC00
7E3FF7000BFB00
028FF2000EF900
00CFD0003FF500
00EFB0009FE100
01FF9002EF8000
00EFB00AFC1000
009FF8BFD20000
0019EFD8100000
ENDCHAR
STARTCHAR uni1EDB
ENCODING 7899
SWIDTH 439 0
DWIDTH 8 0
BBX 10 13 -1 0
BITMAP
000000AE20
000003F611
00000BB0CB
00000210D9
0005CEC7E2
008FE4AE30
04FF607E00
0CFE108E00
1FFB00AD00
3FF800E900
2FF705F300
0DFA3E7000
04CEC50000
ENDCHAR
STARTCHAR uni1EDC
ENCODING 7900
SWIDTH 665 0
DWIDTH 12 0
BBX 13 18 0 0
BITMAP
000006F6000000
000001F9000010
000000AB000AE0
00000000000AE0
00000000000CA0
00017BEFD82E40
007EA5547FF800
0AE44EE30CF600
6F62EF6009FA00
AF1BFD000AFC00
7E3FF7000BFB00
028FF2000EF900
00CFD0003FF500
00EFB0009FE100
01FF9002EF8000
00EFB00AFC1000
009FF8BFD20000
0019EFD8100000
ENDCHAR
STARTCHAR uni1EDD
ENCODING 7901
SWIDTH 439 0
DWIDTH 8 0
BBX 10 13 -1 0
BITMAP
00009F3000
00004F6022
00000D80CB
00000000D9
0005CEC8E2
008FE4AE30
04FF607E00
0CFE108E00
1FFB00AD00
3FF800E900
2FF705F300
0DFA3E7000
04CEC50000
ENDCHAR
STARTCHAR uni1EDE
ENCODING 7902
SWIDTH 665 0
DWIDTH 12 0
BBX 13 18 0 0
BITMAP
0000000AEB2000
000000043D7000
000000001C3000
00000005B209C0
00000001100BE0
00017BEFD82E70
007EA5547FF900
0AE44EE30CF600
6F62EF6009FA00
AF1BFD000AFC00
7E3FF7000BFB00
028FF2000EF900
00CFD0003FF500
00EFB0009FE100
01FF9002EF8000
00EFB00AFC1000
009FF8BFD20000
0019EFD8100000
ENDCHAR
STARTCHAR uni1EDF
ENCODING 7903
SWIDTH 439 0
DWIDTH 8 0
BBX 10 13 -1 0
BITMAP
00002CFB10
0000033F30
000009A3A9
00000100CA
0005CEC7E2
008FE4AE30
04FF607E00
0CFE108E00
1FFB00AD00
3FF800E900
2FF705F300
0DFA3E7000
04CEC50000
ENDCHAR
STARTCHAR uni1EE0
ENCODING 7904
SWIDTH 665 0
DWIDTH 12 0
BBX 13 17 0 0
BITMAP
00000276312000
000028DFFE3560
00000005720AF0
00000000000BC0
00017BEFD82E50
007EA5547FF800
0AE44EE30CF600
6F62EF6009FA00
AF1BFD000AFC00
7E3FF7000BFB00
028FF2000EF900
00CFD0003FF500
00EFB0009FE100
01FF9002EF8000
00EFB00AFC1000
009FF8BFD20000
0019EFD8100000
ENDCHAR
STARTCHAR uni1EE1
ENCODING 7905
SWIDTH 439 0
DWIDTH 8 0
BBX 10 12 -1 0
BITMAP
000AEC8533
00359EA1CB
00000000D8
0005CEC8E1
008FE4AE30
04FF507E00
0CFE008E00
1FFA00BD00
3FF702F900
2FF80AF300
0DFECF7000
04CEC50000
ENDCHAR
STARTCHAR uni1EE2
ENCODING 7906
SWIDTH 665 0
DWIDTH 12 0
BBX 13 20 0 -4
BITMAP
00000000000350
00000000000AF0
00000000000BC0
00017BEFD82E50
007EA5547FF800
0AE44EE30CF600
6F62EF6009FA00
AF1BFD000AFC00
7E3FF7000BFB00
028FF2000EF900
00CFD0003FF500
00EFB0009FE100
01FF9002EF8000
00EFB00AFC1000
009FF8BFD20000
0019EFD8100000
00000000000000
0003C800000000
000AFF10000000
0005EA00000000
ENDCHAR
STARTCHAR uni1EE3
ENCODING 7907
SWIDTH 439 0
DWIDTH 8 0
BBX 10 16 -1 -4
BITMAP
0000000044
00000000CB
00000000D8
0005CEC8E1
008FE4AE30
04FF607E00
0CFE108E00
1FFB00AD00
3FF800E900
2FF705F300
0DFA3E7000
04CEC50000
0000000000
02BA000000
07FF400000
03EC100000
ENDCHAR
STARTCHAR uni1EE4
ENCODING 7908
SWIDTH 716 0
DWIDTH 13 0
BBX 15 17 -1 -4
BITMAP
00006ADF6001FF70
004D98FF3004FF40
04F709FD0008FF10
0DD00DF9000BFD00
1FA02FF5000EF900
0AA06FF1003FF600
0000AFC0007FF200
0000DF8000AFE000
0002FF4001EF9000
0004FF2005FF4000
0004FF401DFB0000
0001EFECEFD20000
00004CFED8200000
0000000000000000
000005C600000000
00000CFE00000000
000007E900000000
ENDCHAR
STARTCHAR uni1EE5
ENCODING 7909
SWIDTH 505 0
DWIDTH 9 0
BBX 11 13 -1 -4
BITMAP
00DFB07FF200
02FF70AFE000
05FF40DFB000
08FF11FF8000
0BFD04FF4000
0EF908FF1030
2FF81DFE0480
1FFEDCFFCD10
07ED62CEA200
000000000000
002B90000000
008FF3000000
003EC1000000
ENDCHAR
STARTCHAR uni1EE6
ENCODING 7910
SWIDTH 716 0
DWIDTH 13 0
BBX 15 18 -1 0
BITMAP
0000000006DD5000
00000000033AC000
0000000000088000
0000000000E30000
0000000000200000
00006ADF6001FF70
004D98FF3004FF40
04F709FD0008FF10
0DD00DF9000BFD00
1FA02FF5000EF900
0AA06FF1003FF600
0000AFC0007FF200
0000DF8000AFE000
0002FF4001EF9000
0004FF2005FF4000
0004FF401DFB0000
0001EFECEFD20000
00004CFED8200000
ENDCHAR
STARTCHAR uni1EE7
ENCODING 7911
SWIDTH 505 0
DWIDTH 9 0
BBX 11 13 -1 0
BITMAP
00004DE80000
0000127D0000
00000D720000
000002000000
00DFB07FF200
02FF70AFE000
05FF40DFB000
08FF11FF8000
0BFD04FF4000
0EF908FF1030
2FF81DFE0480
1FFEDCFFCD10
07ED62CEA200
ENDCHAR
STARTCHAR uni1EE8
ENCODING 7912
SWIDTH 716 0
DWIDTH 13 0
BBX 17 18 -1 0
BITMAP
00000000000AF20000
00000000002F800630
00000000009D001F90
000000000073002F60
000000000000007C00
00006ADF6001FFB100
004D98FF3004FF3000
04F709FD0008FF0000
0DD00DF9000BFC0000
1FA02FF5000EF90000
0AA06FF1003FF50000
0000AFC0007FF20000
0000DF8000AFD00000
0002FF4001EF900000
0004FF2005FF300000
0004FF401DFB000000
0001EFECEFD2000000
00004CFED810000000
ENDCHAR
STARTCHAR uni1EE9
ENCODING 7913
SWIDTH 505 0
DWIDTH 9 0
BBX 11 13 -1 0
BITMAP
0000005F7000
000000DB0670
000006E20BC0
000000001E60
00DFB07FFA00
02FF70AFE000
05FF40DFB000
08FF11FF8000
0BFD04FF5000
0EF908FF1030
2FF81DFE0480
1FFEDCFFCD10
07ED62CEA200
ENDCHAR
STARTCHAR uni1EEA
ENCODING 7914
SWIDTH 716 0
DWIDTH 13 0
BBX 17 18 -1 0
BITMAP
000000008F40000000
000000003F70001D70
000000000C90000F90
000000000000002F30
000000000000008800
00006ADF6001FF7000
004D98FF3004FF2000
04F709FD0008FE0000
0DD00DF9000BFB0000
1FA02FF5000EF80000
0AA06FF1003FF50000
0000AFC0007FF10000
0000DF8000AFD00000
0002FF4001EF800000
0004FF2005FF300000
0004FF401DFA000000
0001EFECEFD2000000
00004CFED810000000
ENDCHAR
STARTCHAR uni1EEB
ENCODING 7915
SWIDTH 505 0
DWIDTH 9 0
BBX 11 13 -1 0
BITMAP
00007F500000
00002F700670
00000CA00BC0
000000001E60
00DFB07FFA00
02FF70AFE000
05FF40DFB000
08FF11FF8000
0BFD04FF5000
0EF908FF1030
2FF81DFE0480
1FFEDCFFCD10
07ED62CEA200
ENDCHAR
STARTCHAR uni1EEC
ENCODING 7916
SWIDTH 716 0
DWIDTH 13 0
BBX 17 18 -1 0
BITMAP
0000000006DD500000
00000000033AC00430
000000000008801F90
0000000000E3001F60
000000000020007C00
00006ADF6001FFB100
004D98FF3004FF3000
04F709FD0008FF0000
0DD00DF9000BFC0000
1FA02FF5000EF90000
0AA06FF1003FF50000
0000AFC0007FF20000
0000DF8000AFD00000
0002FF4001EF900000
0004FF2005FF300000
0004FF401DFB000000
0001EFECEFD2000000
00004CFED810000000
ENDCHAR
STARTCHAR uni1EED
ENCODING 7917
SWIDTH 505 0
DWIDTH 9 0
BBX 11 13 -1 0
BITMAP
00004DE80000
0000127D0110
00000D720BC0
000002001E90
00DFB07FFD10
02FF70AFF100
05FF40DFC000
08FF11FF9000
0BFD04FF5000
0EF908FF2030
2FF81DFE0480
1FFEDCFFCD10
07ED62CEA200
ENDCHAR
STARTCHAR uni1EEE
ENCODING 7918
SWIDTH 716 0
DWIDTH 13 0
BBX 17 17 -1 0
BITMAP
000000002674111630
000000048DFFFA1F90
000000000057402F60
000000000000007C00
00006ADF6001FFB100
004D98FF3004FF3000
04F709FD0008FF0000
0DD00DF9000BFC0000
1FA02FF5000EF90000
0AA06FF1003FF50000
0000AFC0007FF20000
0000DF8000AFD00000
0002FF4001EF900000
0004FF2005FF300000
0004FF401DFB000000
0001EFECEFD2000000
00004CFED810000000
ENDCHAR
STARTCHAR uni1EEF
ENCODING 7919
SWIDTH 505 0
DWIDTH 9 0
BBX 11 12 -1 0
BITMAP
0002CEB83880
00034AC70BB0
000000001E60
00DFB07FF800
02FF70AFE000
05FF40DFB000
08FF11FF8000
0BFD04FF5000
0EF908FF1030
2FF81DFE0480
1FFEDCFFCD10
07ED62CEA200
ENDCHAR
STARTCHAR uni1EF0
ENCODING 7920
SWIDTH 716 0
DWIDTH 13 0
BBX 17 21 -1 -4
BITMAP
000000000000000630
000000000000001F90
000000000000001F60
000000000000007C00
00006ADF6001FFB100
004D98FF3004FF3000
04F709FD0008FF0000
0DD00DF9000BFC0000
1FA02FF5000EF90000
0AA06FF1003FF50000
0000AFC0007FF20000
0000DF8000AFD00000
0002FF4001EF900000
0004FF2005FF300000
0004FF401DFB000000
0001EFECEFD2000000
00004CFED810000000
000000000000000000
000005C60000000000
00000CFE0000000000
000007E90000000000
ENDCHAR
STARTCHAR uni1EF1
ENCODING 7921
SWIDTH 505 0
DWIDTH 9 0
BBX 11 16 -1 -4
BITMAP
000000000AB0
000000000BB0
000000001E40
00DFB07FF700
02FF70AFE000
05FF40DFB000
08FF11FF8000
0BFD04FF4000
0EF908FF1030
2FF81DFE0480
1FFEDCFFCD10
07ED62CEA200
000000000000
002B90000000
008FF3000000
003EC1000000
ENDCHAR
STARTCHAR Ygrave
ENCODING 7922
SWIDTH 620 0
DWIDTH 11 0
BBX 13 18 0 0
BITMAP
00000003F90000
00000000DB0000
000000008E0000
00000000000000
00000000000000
0005ADF4000D50
02CB9FF8004D00
2EA03FFB00A600
AF100EFF12E100
DD000AFF488000
8C0006FF8D1000
010002FFF90000
000000DFF20000
000000FFD00000
000003FFA00000
000007FF700000
00000AFF300000
00000DFF000000
ENDCHAR
STARTCHAR ygrave
ENCODING 7923
SWIDTH 505 0
DWIDTH 9 0
BBX 11 17 -1 -4
BITMAP
00008F400000
00003F600000
00000D900000
000000000000
00DFB07FF200
02FF70AFE000
05FF40DFB000
08FF11FF8000
0BFD05FF4000
0EF908FF1120
2FF81EFD0920
1FFEDFFA5800
07ED9FFC6000
0029EFF30000
00C4AFE00000
02E7FF800000
009EE8000000
ENDCHAR
STARTCHAR uni1EF4
ENCODING 7924
SWIDTH 620 0
DWIDTH 11 0
BBX 13 17 0 -4
BITMAP
0005ADF4000D50
02CB9FF8004D00
2EA03FFB00A600
AF100EFF12E100
DD000AFF488000
8C0006FF8D1000
010002FFF90000
000000DFF20000
000000FFD00000
000003FFA00000
000007FF700000
00000AFF300000
00000DFF000000
00000000000000
00001BA1000000
00007FF5000000
00003DC1000000
ENDCHAR
STARTCHAR uni1EF5
ENCODING 7925
SWIDTH 505 0
DWIDTH 9 0
BBX 11 13 -1 -4
BITMAP
00DFB07FF200
02FF70AFE000
05FF40DFB000
08FF11FF8000
0BFD05FF4000
0EF908FF1120
2FF81EFD0920
1FFEDFFA5800
07ED9FFC6000
0029DFF30000
00C3AFE15000
02E8FF8BF800
009EE807E500
ENDCHAR
STARTCHAR uni1EF6
ENCODING 7926
SWIDTH 620 0
DWIDTH 11 0
BBX 13 18 0 0
BITMAP
000000006DD500
0000000033AC00
00000000008800
000000000E3000
00000000020000
0005ADF4000D50
02CB9FF8004D00
2EA03FFB00A600
AF100EFF12E100
DD000AFF488000
8C0006FF8D1000
010002FFF90000
000000DFF20000
000000FFD00000
000003FFA00000
000007FF700000
00000AFF300000
00000DFF000000
ENDCHAR
STARTCHAR uni1EF7
ENCODING 7927
SWIDTH 505 0
DWIDTH 9 0
BBX 11 17 -1 -4
BITMAP
00004DFA0000
00000DB50000
000002000000
000000000000
00DFB07FF200
02FF70AFE000
05FF40DFB000
08FF11FF8000
0BFD05FF4000
0EF908FF1120
2FF81EFD0920
1FFEDFFA5800
07ED9FFC6000
0029EFF30000
00C4AFE00000
02E7FF800000
009EE8000000
ENDCHAR
STARTCHAR uni1EF8
ENCODING 7928
SWIDTH 620 0
DWIDTH 11 0
BBX 13 17 0 0
BITMAP
00000005762020
000001CFFFFE40
00000111576100
00000000000000
0005ADF4000D50
02CB9FF8004D00
2EA03FFB00A600
AF100EFF12E100
DD000AFF488000
8C0006FF8D1000
010002FFF90000
000000DFF20000
000000FFD00000
000003FFA00000
000007FF700000
00000AFF300000
00000DFF000000
ENDCHAR
STARTCHAR uni1EF9
ENCODING 7929
SWIDTH 505 0
DWIDTH 9 0
BBX 11 16 -1 -4
BITMAP
0005CFDA8500
002559CB6000
000000000000
00DFB07FF200
02FF70AFE000
05FF40DFB000
08FF11FF8000
0BFD05FF4000
0EF908FF1120
2FF81EFD0920
1FFEDFFA5800
07ED9FFC6000
0029EFF30000
00C4AFE00000
02E7FF800000
009EE8000000
ENDCHAR
STARTCHAR uni2010
ENCODING 8208
SWIDTH 290 0
DWIDTH 5 0
BBX 5 2 0 3
BITMAP
7EEE20
122200
ENDCHAR
STARTCHAR endash
ENCODING 8211
SWIDTH 352 0
DWIDTH 6 0
BBX 6 2 0 3
BITMAP
7EEEE3
122220
ENDCHAR
STARTCHAR emdash
ENCODING 8212
SWIDTH 444 0
DWIDTH 8 0
BBX 7 2 0 3
BITMAP
7EEEEEC0
12222210
ENDCHAR
STARTCHAR quoteleft
ENCODING 8216
SWIDTH 209 0
DWIDTH 4 0
BBX 4 5 1 9
BITMAP
0010
0290
0D70
4FF1
2DC0
ENDCHAR
STARTCHAR quoteright
ENCODING 8217
SWIDTH 238 0
DWIDTH 4 0
BBX 4 4 1 9
BITMAP
2DC0
4FF1
0AA0
1A10
ENDCHAR
STARTCHAR quotesinglbase
ENCODING 8218
SWIDTH 220 0
DWIDTH 4 0
BBX 4 5 -1 -2
BITMAP
1CD1
2FF3
07C0
0920
0100
ENDCHAR
STARTCHAR quotedblleft
ENCODING 8220
SWIDTH 429 0
DWIDTH 8 0
BBX 7 5 1 9
BITMAP
00100010
02900830
0D706D10
4FF1BF80
2DC08E50
ENDCHAR
STARTCHAR quotedblright
ENCODING 8221
SWIDTH 426 0
DWIDTH 8 0
BBX 6 5 2 8
BITMAP
BE34E9
EF57FD
5E10C7
830290
100100
ENDCHAR
STARTCHAR quotedblbase
ENCODING 8222
SWIDTH 440 0
DWIDTH 8 0
BBX 7 5 -1 -2
BITMAP
1CD16E70
2FF39FB0
07C01E50
09204800
01001000
ENDCHAR
STARTCHAR dagger
ENCODING 8224
SWIDTH 495 0
DWIDTH 9 0
BBX 8 17 1 -4
BITMAP
00009A00
0000D600
0002F300
0005E000
0009A000
7FFFFFF3
AFFFFFE0
004F1000
007C0000
00A90000
00E60000
02F20000
05E00000
08B00000
0C800000
0F500000
3F100000
ENDCHAR
STARTCHAR daggerdbl
ENCODING 8225
SWIDTH 495 0
DWIDTH 9 0
BBX 9 17 0 -4
BITMAP
000009A000
00000D6000
00002F3000
00005E0000
00009A0000
07FFFFFF30
0AFFFFFE00
0004F10000
0007D00000
4FFFFFF600
7FFFFFF300
001F300000
005E000000
008B000000
00B8000000
00E5000000
03F1000000
ENDCHAR
STARTCHAR bullet
ENCODING 8226
SWIDTH 434 0
DWIDTH 8 0
BBX 4 3 2 3
BITMAP
5ED3
CFF9
5ED3
ENDCHAR
STARTCHAR ellipsis
ENCODING 8230
SWIDTH 702 0
DWIDTH 13 0
BBX 12 3 0 0
BITMAP
1BA109B304C7
6FF63FF90BFF
2DD20BE406E9
ENDCHAR
STARTCHAR perthousand
ENCODING 8240
SWIDTH 1175 0
DWIDTH 21 0
BBX 21 13 0 0
BITMAP
002BEB1000B80000000000
01DB3F6005E10000000000
08F30F900D600000000000
0DD02F907C000000000000
0FA04F62E4000000000000
1F908F2AA0000000000000
0EA2E93E208EE60019ED40
06FF90C809F4AE00CD3CC0
001105D13F808F25F60BE0
00001D507F30AF0AF10DD0
00008C009F10EB0BE02F80
0002E3007F49E309F2BD10
000A90001BEC3002CEB200
ENDCHAR
STARTCHAR minute
ENCODING 8242
SWIDTH 196 0
DWIDTH 4 0
BBX 4 5 1 8
BITMAP
09F3
0DA0
3F30
7B00
5300
ENDCHAR
STARTCHAR second
ENCODING 8243
SWIDTH 341 0
DWIDTH 6 0
BBX 6 5 1 8
BITMAP
09F3FC
0DA4F5
3F39C0
7B0D50
530700
ENDCHAR
STARTCHAR guilsinglleft
ENCODING 8249
SWIDTH 359 0
DWIDTH 6 0
BBX 6 7 0 1
BITMAP
00003B
002AB2
18C400
8D1000
07D600
002BC0
000040
ENDCHAR
STARTCHAR guilsinglright
ENCODING 8250
SWIDTH 344 0
DWIDTH 6 0
BBX 6 7 0 1
BITMAP
086000
01BB10
0007D5
00009C
017D81
5D7100
410000
ENDCHAR
STARTCHAR fraction
ENCODING 8260
SWIDTH 248 0
DWIDTH 4 0
BBX 9 13 -2 0
BITMAP
00000009A0
0000003F20
000000B800
000005E100
00000D6000
00007C0000
0002E40000
000AA00000
003E200000
00C8000000
05D1000000
1D50000000
8C00000000
ENDCHAR
STARTCHAR uni2052
ENCODING 8274
SWIDTH 796 0
DWIDTH 14 0
BBX 10 13 2 0
BITMAP
1DD20000B8
5FF60005E1
1AB1000D60
0000007C00
000002E400
00000AA000
00003E2000
0000C80000
0005D10000
001D500000
008C0007A2
02E3002FFA
0A90000BE5
ENDCHAR
STARTCHAR uni2070
ENCODING 8304
SWIDTH 379 0
DWIDTH 7 0
BBX 7 9 0 4
BITMAP
002BEB10
01DB3F60
08F30F90
0DD02F90
0FA04F60
1F908F20
0EA2E900
06FF9000
00110000
ENDCHAR
ENDFONT
